<svg xmlns="http://www.w3.org/2000/svg" xmlns:xlink="http://www.w3.org/1999/xlink" fill="none" version="1.1" width="12.400000005960464" height="12.400001913309097" viewBox="0 0 12.400000005960464 12.400001913309097"><g><path d="M6.782400002980232,5.748630002980232L11.744500002980232,5.748630002980232C12.004800002980232,5.781630002980232,12.200000002980232,6.003090002980232,12.200000002980232,6.265510002980232C12.200000002980232,6.5279300029802325,12.004800002980232,6.749400002980233,11.744500002980232,6.782400002980232L6.782400002980232,6.782400002980232L6.782400002980232,11.744500002980232C6.749400002980233,12.004800002980232,6.5279300029802325,12.200000002980232,6.265510002980232,12.200000002980232C6.003090002980232,12.200000002980232,5.781620002980232,12.004800002980232,5.748630002980232,11.744500002980232L5.748630002980232,6.782400002980232L0.7865320029802323,6.782400002980232C0.47527000298023225,6.8218500029802325,0.20000000298023224,6.579260002980233,0.20000000298023224,6.265510002980232C0.20000000298023224,5.951760002980232,0.4752710029802322,5.709180002980232,0.7865320029802323,5.748630002980232L5.748630002980232,5.748630002980232L5.748630002980232,0.7865320029802323C5.709180002980232,0.4752710029802322,5.951760002980232,0.20000000298023224,6.265510002980232,0.20000000298023224C6.579260002980233,0.20000024945023223,6.8218500029802325,0.4752710029802322,6.782400002980232,0.7865320029802323L6.782400002980232,5.748630002980232Z" fill="#FFCC00" fill-opacity="1"/><path d="M6.982400002980232,0.7865320029802323L6.982400002980232,5.748630002980232L6.782400002980232,5.748630002980232L6.782400002980232,5.548630002980232L11.757100002980232,5.548630002980232L11.769600002980232,5.550220002980232Q12.039800002980233,5.584460002980232,12.219900002980232,5.788810002980232Q12.400000002980232,5.993150002980232,12.400000002980232,6.265510002980232Q12.400000002980232,6.537880002980232,12.219900002980232,6.742220002980233Q12.039800002980233,6.946560002980232,11.769600002980232,6.980810002980232L11.757100002980232,6.982400002980232L6.782400002980232,6.982400002980232L6.782400002980232,6.782400002980232L6.982400002980232,6.782400002980232L6.982400002980232,11.757100002980232L6.980810002980232,11.769600002980232Q6.946560002980232,12.039800002980233,6.742220002980233,12.219900002980232Q6.537880002980232,12.400000002980232,6.265510002980232,12.400000002980232Q5.993150002980232,12.400000002980232,5.788800002980232,12.219900002980232Q5.584460002980232,12.039800002980233,5.550210002980232,11.769600002980232L5.548630002980232,11.757100002980232L5.548630002980232,6.782400002980232L5.748630002980232,6.782400002980232L5.748630002980232,6.982400002980232L0.7865320029802323,6.982400002980232L0.7865320029802323,6.782400002980232L0.8116790029802322,6.980810002980232Q0.48862200298023223,7.0217600029802325,0.24431120298023223,6.8064600029802325Q2.980232227667301e-9,6.591150002980232,2.980232227667301e-9,6.265510002980232Q2.980232227667301e-9,5.939870002980232,0.24431120298023223,5.724570002980232Q0.48862300298023226,5.509270002980232,0.8116790029802322,5.550210002980232L0.7865320029802323,5.748630002980232L0.7865320029802323,5.548630002980232L5.748630002980232,5.548630002980232L5.748630002980232,5.748630002980232L5.548630002980232,5.748630002980232L5.548630002980232,0.7865320029802323L5.748630002980232,0.7865320029802323L5.550210002980232,0.8116790029802322Q5.509270002980232,0.48862300298023226,5.724570002980232,0.24431130298023224Q5.939870002980232,2.980232227667301e-9,6.265510002980232,2.980232227667301e-9Q6.591160002980232,2.980232227667301e-9,6.8064600029802325,0.24431130298023224Q7.0217600029802325,0.48862300298023226,6.980810002980232,0.8116790029802322L6.782400002980232,0.7865320029802323L6.982400002980232,0.7865320029802323ZM6.582400002980232,0.7865320029802323L6.582400002980232,0.7739080029802322L6.583990002980232,0.7613840029802322Q6.602220002980232,0.6175490029802322,6.506360002980232,0.5087750029802323Q6.410500002980232,0.40000000298023225,6.265510002980232,0.40000000298023225Q6.1205300029802325,0.40000000298023225,6.0246700029802325,0.5087750029802323Q5.928810002980232,0.6175490029802322,5.947040002980232,0.7613850029802323L5.948630002980233,0.7739080029802322L5.948630002980233,5.948630002980233L0.7739080029802322,5.948630002980233L0.7613850029802323,5.947040002980232Q0.6175490029802322,5.928810002980232,0.5087750029802323,6.0246700029802325Q0.40000000298023225,6.1205300029802325,0.40000000298023225,6.265510002980232Q0.40000000298023225,6.410500002980232,0.5087750029802323,6.506360002980232Q0.6175490029802322,6.602220002980232,0.7613850029802323,6.583990002980232L0.7739080029802322,6.582400002980232L5.948630002980233,6.582400002980232L5.948630002980233,11.744500002980232L5.748630002980232,11.744500002980232L5.947040002980232,11.719300002980232Q5.982610002980232,12.000000002980233,6.265510002980232,12.000000002980233Q6.548410002980233,12.000000002980233,6.583990002980232,11.719300002980232L6.782400002980232,11.744500002980232L6.582400002980232,11.744500002980232L6.582400002980232,6.582400002980232L11.744500002980232,6.582400002980232L11.744500002980232,6.782400002980232L11.719300002980232,6.583990002980232Q12.000000002980233,6.548410002980233,12.000000002980233,6.265510002980232Q12.000000002980233,5.982610002980232,11.719300002980232,5.947040002980232L11.744500002980232,5.748630002980232L11.744500002980232,5.948630002980233L6.582400002980232,5.948630002980233L6.582400002980232,0.7865320029802323Z" fill="#FFCC00" fill-opacity="1"/></g></svg>