<svg xmlns="http://www.w3.org/2000/svg" xmlns:xlink="http://www.w3.org/1999/xlink" fill="none" version="1.1" width="24" height="23" viewBox="0 0 24 23"><g style="mix-blend-mode:passthrough"><g><path d="M10.7263,19.1692L9.7864,19.1692L7.61886,22.5263C7.32387,22.9832,6.71513,23.1139,6.25921,22.8183C6.07075,22.6961,5.92969,22.5129,5.85946,22.2993L4.8306,19.1692L2.59219,19.1692Q1.51848,19.1692,0.759243,18.4084Q0,17.6475,0,16.5715L0,2.59769Q0,1.5217,0.759239,0.760848Q1.51848,0,2.5922,0L20.827,0Q21.9007,0,22.66,0.760852Q23.4192,1.52169,23.4192,2.59769L23.5083,6.69592L23.5083,6.69694L23.5085,6.71836C23.5085,7.2542,23.0812,7.69181,22.5467,7.70345L22.5253,7.70368C22.2719,7.70368,22.0283,7.60566,21.8453,7.43006C21.7941,7.38096,21.7488,7.32686,21.7098,7.26888L6.35746,17.6333C6.40699,17.707,6.4471,17.7883,6.47582,17.8756L7.08426,19.7266L8.42596,17.6486C8.60715,17.368,8.91794,17.1986,9.25147,17.1986L10.7263,17.1986C11.2694,17.1986,11.7096,17.6397,11.7096,18.1839C11.7096,18.7281,11.2694,19.1692,10.7263,19.1692Z" fill-rule="evenodd" fill="#FFCC00" fill-opacity="1"/></g><g style="mix-blend-mode:passthrough"><ellipse cx="6.301695942878723" cy="8.196349620819092" rx="1.4748727083206177" ry="1.4779987335205078" fill="#FFFFFF" fill-opacity="1"/></g><g style="mix-blend-mode:passthrough"><ellipse cx="11.217938542366028" cy="8.196349620819092" rx="1.4748727083206177" ry="1.4779987335205078" fill="#FFFFFF" fill-opacity="1"/></g><g style="mix-blend-mode:passthrough"><ellipse cx="16.134181141853333" cy="8.196349620819092" rx="1.4748727083206177" ry="1.4779987335205078" fill="#FFFFFF" fill-opacity="1"/></g><g><path d="M18.35308230163574,10.86648332019043Q18.960322301635742,11.10111732019043,19.415342301635743,11.49938432019043L19.547182301635743,11.61474532019043Q20.48821230163574,11.55186932019043,21.11067230163574,11.74969132019043L21.11350230163574,11.75059132019043L21.116312301635745,11.75156132019043Q22.843662301635742,12.34695132019043,23.28506230163574,14.05527132019043Q23.475662301635744,14.79255132019043,23.30306230163574,15.543521320190429L23.26666230163574,15.70189132019043L23.37926230163574,15.85808132019043Q23.99496230163574,16.71201132019043,23.99996230163574,17.72939132019043Q24.00256230163574,18.278241320190432,23.85786230163574,18.730941320190432Q23.355962301635742,20.301061320190428,21.785462301635743,20.826781320190427Q21.664572301635744,20.86728132019043,21.572902301635743,20.90228132019043Q21.562602301635742,20.906181320190427,21.553482301635743,20.90978132019043L21.553742301635744,20.91278132019043Q21.518672301635743,20.98618132019043,21.478012301635744,21.08158132019043Q20.967472301635745,22.279481320190428,19.637842301635743,22.80208132019043Q19.061642301635743,23.02858132019043,18.342512301635743,22.995881320190428Q17.632332301635742,22.96358132019043,17.069892301635743,22.692781320190427Q16.592962301635744,22.46328132019043,16.241352301635743,22.13238132019043L16.147902301635742,22.044381320190432L15.939492301635742,22.06788132019043Q14.905932301635742,22.184581320190432,13.992962301635743,21.67348132019043Q13.080322301635743,21.16258132019043,12.633576301635742,20.217711320190432Q12.316732301635742,19.54752132019043,12.348582301635743,18.74562132019043Q12.368201301635743,18.24956132019043,12.426514301635741,18.04664132019043L12.443902301635742,17.98617132019043L12.335347301635743,17.83160132019043Q12.008183301635743,17.36587132019043,11.851716301635742,16.876311320190432Q11.706943561635741,16.42349132019043,11.709610549135743,15.87472132019043Q11.714722761635743,14.825341320190429,12.339828301635743,13.98766132019043Q12.964102301635743,13.15109132019043,13.975542301635741,12.835751320190429L14.149692301635742,12.78145132019043L14.278362301635742,12.52768132019043Q14.589302301635742,11.914391320190429,14.984292301635742,11.55636132019043Q15.603932301635743,10.99482932019043,16.361762301635743,10.785439320190429Q17.400442301635742,10.49841432019043,18.35308230163574,10.86648332019043ZM17.65274230163574,11.99756132019043Q16.967792301635743,11.85382132019043,16.331702301635744,12.161201320190429Q15.746802301635743,12.44393132019043,15.444252301635743,13.04982132019043Q15.292362301635743,13.35402132019043,15.255012301635743,13.68826132019043Q15.214302301635742,14.05252132019043,15.213142301635742,15.240261320190431Q15.212212301635741,16.19507132019043,15.222362301635743,16.415541320190428Q15.225882301635743,16.49205132019043,15.230802301635743,16.533421320190428Q15.326352301635742,16.59585132019043,15.643512301635742,16.77354132019043Q15.706212301635741,16.80867132019043,15.762362301635743,16.83948132019043Q15.763462301635741,16.79666132019043,15.764502301635742,16.74891132019043Q15.774652301635742,16.27939132019043,15.775032301635743,15.51633132019043Q15.775652301635741,14.340821320190429,15.786592301635743,14.05359132019043Q15.800472301635743,13.689261320190429,15.897942301635743,13.56819132019043Q15.994922301635743,13.447891320190429,16.69935230163574,13.048971320190429Q17.76395230163574,12.44603132019043,18.18668230163574,12.20255132019043Q17.85758230163574,12.04054132019043,17.65274230163574,11.99756132019043ZM19.703122301635744,12.908711320190429Q19.37963230163574,12.98458132019043,18.03709230163574,13.74756132019043L16.81965230163574,14.44331132019043Q16.81234230163574,14.54494132019043,16.81234230163574,14.87857132019043Q16.81234230163574,14.96440132019043,16.812982301635742,15.04101132019043Q17.106842301635744,14.87584132019043,17.505502301635744,14.64852132019043Q17.603972301635743,14.59236132019043,17.79348230163574,14.48428132019043Q19.055812301635743,13.76427132019043,19.281902301635743,13.64502132019043Q19.57936230163574,13.48812132019043,19.73888230163574,13.51707132019043Q19.74649230163574,13.51845132019043,19.749142301635743,13.51885132019043Q19.916632301635744,13.54396132019043,20.734602301635743,14.02243132019043Q21.77226230163574,14.629491320190429,22.093662301635742,14.80673132019043Q22.091962301635743,14.77290132019043,22.09006230163574,14.73434132019043Q22.062762301635743,14.19146132019043,21.74636230163574,13.72789132019043Q21.333722301635742,13.12324132019043,20.54864230163574,12.92570132019043Q20.10580230163574,12.814271320190429,19.703122301635744,12.908711320190429ZM13.951152301635743,14.25061132019043Q13.960942301635743,14.24418132019043,13.970292301635743,14.238061320190429Q13.978422301635742,14.55636132019043,13.978422301635742,15.33073132019043L13.978422301635742,16.893491320190428L14.131842301635743,17.05925132019043Q14.245412301635742,17.18192132019043,14.805692301635743,17.50023132019043Q16.270542301635743,18.332401320190428,16.695922301635743,18.581751320190428Q16.74835230163574,18.61249132019043,16.793552301635742,18.63929132019043Q16.728862301635743,18.677851320190427,16.65468230163574,18.72094132019043Q16.472192301635744,18.82694132019043,16.33890230163574,18.898371320190428Q16.310982301635743,18.91333132019043,16.288112301635742,18.925201320190432Q16.200632301635743,18.87904132019043,16.051682301635743,18.79710132019043Q15.719492301635743,18.61435132019043,15.268012301635743,18.35721132019043L14.000412301635741,17.63699132019043Q13.581382301635742,17.40292132019043,13.293342301635743,16.963131320190428Q13.006622301635742,16.52548132019043,13.006622301635742,15.91251132019043Q13.006622301635742,15.11149132019043,13.555502301635743,14.56092132019043Q13.701022301635742,14.414961320190429,13.951152301635743,14.25061132019043ZM19.38131230163574,14.784901320190428Q19.413162301635744,14.768011320190428,19.43887230163574,14.754771320190429Q19.59483230163574,14.85185132019043,20.486362301635744,15.354901320190429Q21.95416230163574,16.18305132019043,22.22356230163574,16.477771320190428Q22.636262301635742,16.92917132019043,22.710462301635744,17.53863132019043Q22.784762301635745,18.14944132019043,22.492562301635743,18.699901320190428Q22.219862301635743,19.21358132019043,21.770162301635743,19.47099132019043L21.769962301635744,18.41479132019043Q21.76986230163574,16.90370132019043,21.658612301635742,16.72743132019043Q21.552282301635742,16.55884132019043,21.073462301635743,16.29008132019043Q19.457012301635743,15.38283132019043,18.903252301635742,15.052071320190429Q18.961722301635742,15.01814132019043,19.03429230163574,14.97676132019043Q19.230582301635742,14.86482132019043,19.38131230163574,14.784901320190428ZM17.607182301635742,15.78935132019043Q17.747572301635742,15.70745132019043,17.852902301635744,15.64945132019043Q17.88763230163574,15.66857132019043,17.93231230163574,15.69353132019043Q18.11988230163574,15.79828132019043,18.376582301635743,15.94586132019043L18.879572301635744,16.23499132019043L18.887662301635743,16.84550132019043L18.895632301635743,17.45136132019043L18.38801230163574,17.74202132019043L17.87221230163574,18.03731132019043L17.74582230163574,17.97010132019043Q17.503752301635743,17.84146132019043,17.10911230163574,17.61088132019043L16.829852301635743,17.44779132019043L16.821272301635744,16.84677132019043L16.81272230163574,16.25107132019043L16.971732301635743,16.15897132019043L17.33368230163574,15.94868132019043L17.607182301635742,15.78935132019043ZM19.94259230163574,16.961431320190428Q19.943452301635745,16.90155132019043,19.94438230163574,16.848531320190432Q20.009552301635743,16.88391132019043,20.081682301635745,16.923711320190428Q20.38929230163574,17.09342132019043,20.479932301635742,17.14835132019043Q20.486632301635744,17.23855132019043,20.489922301635744,17.41619132019043Q20.496682301635744,17.78183132019043,20.488982301635744,18.602861320190428Q20.474952301635742,20.102011320190428,20.399482301635743,20.32693132019043Q20.14112230163574,21.09658132019043,19.46023230163574,21.48008132019043Q18.780122301635743,21.863181320190428,17.998002301635744,21.680581320190427Q17.721192301635742,21.61598132019043,17.514072301635743,21.50568132019043L18.37859230163574,21.006581320190428L19.108072301635744,20.59221132019043Q19.66875230163574,20.276301320190427,19.783332301635742,20.15038132019043L19.93536230163574,19.98337132019043L19.93536230163574,18.17064132019043Q19.93536230163574,17.46408132019043,19.94259230163574,16.961431320190428ZM18.887312301635742,19.19920132019043Q18.892932301635742,19.03063132019043,18.888612301635742,18.80391132019043L18.88572230163574,18.65332132019043L18.327902301635742,18.97223132019043Q16.22027230163574,20.17721132019043,16.041342301635744,20.17721132019043Q15.869032301635741,20.17722132019043,15.064202301635742,19.713331320190427Q13.978762301635742,19.08770132019043,13.647312301635742,18.90246132019043Q13.630612301635741,18.893131320190427,13.614722301635743,18.884281320190432Q13.615852301635742,18.89861132019043,13.617142301635742,18.913471320190432Q13.651622301635742,19.31222132019043,13.723512301635742,19.49938132019043Q14.132612301635742,20.56459132019043,15.209762301635742,20.77438132019043Q15.781052301635743,20.88558132019043,16.253542301635743,20.70738132019043Q16.382892301635742,20.658621320190427,17.65093230163574,19.95341132019043Q18.669272301635743,19.38706132019043,18.884922301635743,19.25671132019043Q18.886242301635743,19.231031320190432,18.887312301635742,19.19920132019043Z" fill-rule="evenodd" fill="#189C75" fill-opacity="1"/></g></g></svg>