<svg xmlns="http://www.w3.org/2000/svg" xmlns:xlink="http://www.w3.org/1999/xlink" fill="none" version="1.1" width="12" height="12" viewBox="0 0 12 12"><g style="mix-blend-mode:passthrough"><g style="mix-blend-mode:passthrough"><rect x="0" y="0" width="12" height="12" rx="0" fill="#FFFFFF" fill-opacity="0"/></g><g><path d="M5.5,2L2,2Q2,2,2,2L2,10L2,10L10,10Q10,10,10,10L10,6.5Q10,6.45075,10.00961,6.40245Q10.01921,6.35415,10.03806,6.30866Q10.0569,6.26316,10.08426,6.22221Q10.11162,6.18127,10.14645,6.14645Q10.18127,6.11162,10.22221,6.08426Q10.26316,6.0569,10.30866,6.03806Q10.35415,6.01921,10.40245,6.00961Q10.45075,6,10.5,6Q10.54924,6,10.59754,6.00961Q10.64584,6.01921,10.69134,6.03806Q10.73684,6.0569,10.77778,6.08426Q10.81873,6.11162,10.85355,6.14645Q10.88837,6.18127,10.91573,6.22221Q10.94309,6.26316,10.96194,6.30866Q10.98078,6.35415,10.99039,6.40245Q11,6.45075,11,6.5L11,10Q11,10.41422,10.70711,10.70711Q10.41422,11,10,11L2,11Q1.5857864,11,1.292894,10.70711Q1,10.41422,1,10L1,2Q1,1.5857864,1.292893,1.292893Q1.5857864,1,2,1L5.5,1Q5.54924,1,5.59754,1.009607Q5.64584,1.019215,5.69134,1.03806Q5.73684,1.0569060000000001,5.77778,1.084265Q5.81873,1.111625,5.85355,1.146447Q5.88837,1.181269,5.91573,1.222215Q5.94309,1.263161,5.96194,1.3086579999999999Q5.98078,1.354155,5.99039,1.4024549Q6,1.4507543,6,1.5Q6,1.5492457,5.99039,1.5975451Q5.98078,1.645845,5.96194,1.6913420000000001Q5.94309,1.736839,5.91573,1.777785Q5.88837,1.818731,5.85355,1.853553Q5.81873,1.888375,5.77778,1.915735Q5.73684,1.9430939999999999,5.69134,1.96194Q5.64584,1.980785,5.59754,1.990393Q5.54924,2,5.5,2ZM6,1.5Q6,1.5492457,5.99039,1.5975451Q5.98078,1.645845,5.96194,1.6913420000000001Q5.94309,1.736839,5.91573,1.777785Q5.88837,1.818731,5.85355,1.853553Q5.81873,1.888375,5.77778,1.915735Q5.73684,1.9430939999999999,5.69134,1.96194Q5.64584,1.980785,5.59755,1.990393Q5.54925,2,5.5,2Q5.45075,2,5.40245,1.990393Q5.354150000000001,1.980785,5.30866,1.96194Q5.26316,1.9430939999999999,5.2222100000000005,1.915735Q5.18127,1.888375,5.14645,1.853553Q5.11162,1.818731,5.0842600000000004,1.777785Q5.05691,1.736839,5.03806,1.6913420000000001Q5.01921,1.645845,5.00961,1.5975451Q5,1.5492457,5,1.5Q5,1.4507543,5.00961,1.4024549Q5.01921,1.354155,5.03806,1.3086579999999999Q5.05691,1.263161,5.0842600000000004,1.222215Q5.11162,1.181269,5.14645,1.146447Q5.18127,1.111625,5.2222100000000005,1.084265Q5.26316,1.0569060000000001,5.30866,1.03806Q5.354150000000001,1.019215,5.40245,1.009607Q5.45075,1,5.5,1Q5.54925,1,5.59755,1.009607Q5.64584,1.019215,5.69134,1.03806Q5.73684,1.0569060000000001,5.77778,1.084265Q5.81873,1.111625,5.85355,1.146447Q5.88837,1.181269,5.91573,1.222215Q5.94309,1.263161,5.96194,1.3086579999999999Q5.98078,1.354155,5.99039,1.4024549Q6,1.4507543,6,1.5ZM11,6.5Q11,6.54924,10.99039,6.59754Q10.98078,6.64584,10.96194,6.69134Q10.94309,6.73684,10.91573,6.77778Q10.88837,6.81873,10.85355,6.85355Q10.81873,6.88837,10.77778,6.91573Q10.73684,6.94309,10.69134,6.96194Q10.64584,6.98078,10.59754,6.99039Q10.54924,7,10.5,7Q10.45075,7,10.40245,6.99039Q10.35415,6.98078,10.30866,6.96194Q10.26316,6.94309,10.22221,6.91573Q10.18127,6.88837,10.14645,6.85355Q10.11162,6.81873,10.08426,6.77778Q10.0569,6.73684,10.03806,6.69134Q10.01921,6.64584,10.00961,6.59754Q10,6.54924,10,6.5Q10,6.45075,10.00961,6.40245Q10.01921,6.35415,10.03806,6.30866Q10.0569,6.26316,10.08426,6.22221Q10.11162,6.18127,10.14645,6.14645Q10.18127,6.11162,10.22221,6.08426Q10.26316,6.0569,10.30866,6.03806Q10.35415,6.01921,10.40245,6.00961Q10.45075,6,10.5,6Q10.54924,6,10.59754,6.00961Q10.64584,6.01921,10.69134,6.03806Q10.73684,6.0569,10.77778,6.08426Q10.81873,6.11162,10.85355,6.14645Q10.88837,6.18127,10.91573,6.22221Q10.94309,6.26316,10.96194,6.30866Q10.98078,6.35415,10.99039,6.40245Q11,6.45075,11,6.5Z" fill="#979797" fill-opacity="1"/></g><g><path d="M9.027548583068848,1.853342L3.8537735830688478,7.03332L3.5000085830688477,6.67997L4.000008583068848,6.67997L4.000008583068848,8.5L3.5000085830688477,8.5L3.5000085830688477,8L5.329308583068848,8L5.329308583068848,8.5L4.975678583068848,8.146519999999999L10.146378583068849,2.97355L10.500008583068848,3.32702L10.146378583068849,3.6805L8.320148583068848,1.8534760000000001L8.673778583068849,1.5L9.027548583068848,1.853342ZM8.320018583068848,1.146658Q8.320158583068848,1.146514,8.320308583068847,1.146369Q8.355138583068847,1.111555,8.396088583068849,1.084204Q8.437038583068848,1.056854,8.482538583068848,1.038018Q8.528038583068849,1.019183,8.576348583068848,1.009586Q8.624648583068847,0.999989,8.673888583068848,1Q8.723138583068849,1.000011,8.771438583068846,1.0096289999999999Q8.819728583068848,1.019247,8.865228583068848,1.038102Q8.910718583068848,1.056958,8.951658583068848,1.084326Q8.992598583068848,1.111694,9.027408583068848,1.1465239999999999L10.853638583068847,2.97355Q10.888438583068847,3.00837,10.915788583068847,3.04931Q10.943128583068848,3.09025,10.961968583068849,3.1357299999999997Q10.980798583068847,3.1812199999999997,10.990408583068849,3.2295100000000003Q11.000008583068848,3.27779,11.000008583068848,3.32702Q11.000008583068848,3.3762600000000003,10.990408583068849,3.42454Q10.980798583068847,3.47283,10.961968583068849,3.51832Q10.943128583068848,3.5638,10.915788583068847,3.60474Q10.888438583068847,3.64568,10.853638583068847,3.6805L5.6829385830688475,8.853480000000001Q5.612608583068848,8.92384,5.520698583068848,8.96192Q5.428788583068847,9,5.329308583068848,9L3.5000085830688477,9Q3.4507628830688475,9,3.4024634830688476,8.99039Q3.3541635830688477,8.98078,3.3086665830688475,8.96194Q3.263169583068848,8.94309,3.2222235830688475,8.91573Q3.1812775830688476,8.88837,3.146455583068848,8.85355Q3.1116335830688477,8.81873,3.0842735830688475,8.77778Q3.056914583068848,8.73684,3.0380685830688474,8.69134Q3.0192235830688476,8.64584,3.0096155830688476,8.59754Q3.0000085830688477,8.549240000000001,3.0000085830688477,8.5L3.0000085830688477,6.67997Q3.0000085830688477,6.5806,3.0380115830688474,6.48877Q3.0760145830688477,6.39695,3.1462435830688475,6.32663L8.320018583068848,1.146658Z" fill="#979797" fill-opacity="1"/></g></g></svg>