<svg xmlns="http://www.w3.org/2000/svg" xmlns:xlink="http://www.w3.org/1999/xlink" fill="none" version="1.1" width="14" height="14" viewBox="0 0 14 14"><g style="mix-blend-mode:passthrough"><g style="mix-blend-mode:passthrough"><rect x="0" y="0" width="14" height="14" rx="0" fill-opacity="0"/></g><g><path d="M10.5,2.04167L9.81517,2.04167C9.56813,1.34295,8.90777,0.875599615,8.16667,0.875L5.83333,0.875C5.09223,0.875599563,4.43187,1.34295,4.18483,2.04167L3.5,2.04167C2.533502,2.04167,1.75,2.82517,1.75,3.79167L1.75,11.9583C1.75,12.9248,2.533502,13.7083,3.5,13.7083L10.5,13.7083C11.4665,13.7083,12.25,12.9248,12.25,11.9583L12.25,3.79167C12.25,2.82517,11.4665,2.04167,10.5,2.04167ZM5.83333,2.04167L8.16667,2.04167C8.48883,2.04167,8.75,2.30283,8.75,2.625C8.75,2.94717,8.48883,3.20833,8.16667,3.20833L5.83333,3.20833C5.51117,3.20833,5.25,2.94717,5.25,2.625C5.25,2.30283,5.51117,2.04167,5.83333,2.04167ZM11.08333,11.9583C11.08333,12.2805,10.82217,12.5417,10.5,12.5417L3.5,12.5417C3.17783,12.5417,2.91667,12.2805,2.91667,11.9583L2.91667,3.79167C2.91667,3.4695,3.17783,3.20833,3.5,3.20833L4.18483,3.20833C4.43187,3.90705,5.09223,4.3744,5.83333,4.375L8.16667,4.375C8.90777,4.3744,9.56813,3.90705,9.81517,3.20833L10.5,3.20833C10.82217,3.20833,11.08333,3.4695,11.08333,3.79167L11.08333,11.9583Z"  fill-opacity="1"/></g></g></svg>