<svg xmlns="http://www.w3.org/2000/svg" xmlns:xlink="http://www.w3.org/1999/xlink" fill="none" version="1.1" width="24" height="24" viewBox="0 0 24 24"><g style="mix-blend-mode:passthrough"><g style="mix-blend-mode:passthrough"><rect x="0" y="0" width="24" height="24" rx="0" fill="#D8D8D8" fill-opacity="0"/></g><g style="mix-blend-mode:passthrough"><g><path d="M18.6464,19.3536L4.646447,5.353553Q4.611625,5.318731,4.584265,5.277785Q4.556906,5.236839,4.53806,5.191342Q4.519215,5.145845,4.509607,5.0975451Q4.5,5.0492457,4.5,5Q4.5,4.9507543,4.509607,4.9024549Q4.519215,4.854155,4.53806,4.808658Q4.556906,4.763161,4.584265,4.722215Q4.611625,4.681269,4.646447,4.646447Q4.681269,4.611625,4.722215,4.584265Q4.763161,4.556906,4.808658,4.53806Q4.854155,4.519215,4.9024549,4.509607Q4.9507543,4.5,5,4.5Q5.0492457,4.5,5.0975451,4.509607Q5.145845,4.519215,5.191342,4.53806Q5.236839,4.556906,5.277785,4.584265Q5.318731,4.611625,5.353553,4.646447L19.3536,18.6464Q19.3884,18.6813,19.4157,18.7222Q19.4431,18.763199999999998,19.4619,18.8087Q19.480800000000002,18.8542,19.4904,18.9025Q19.5,18.9508,19.5,19Q19.5,19.0492,19.4904,19.0975Q19.480800000000002,19.1458,19.4619,19.1913Q19.4431,19.236800000000002,19.4157,19.2778Q19.3884,19.3187,19.3536,19.3536Q19.3187,19.3884,19.2778,19.4157Q19.236800000000002,19.4431,19.1913,19.4619Q19.1458,19.480800000000002,19.0975,19.4904Q19.0492,19.5,19,19.5Q18.9508,19.5,18.9025,19.4904Q18.8542,19.480800000000002,18.8087,19.4619Q18.763199999999998,19.4431,18.7222,19.4157Q18.6813,19.3884,18.6464,19.3536ZM19.5,19Q19.5,19.0492,19.4904,19.0975Q19.480800000000002,19.1458,19.4619,19.1913Q19.4431,19.236800000000002,19.4157,19.2778Q19.3884,19.3187,19.3536,19.3536Q19.3187,19.3884,19.2778,19.4157Q19.236800000000002,19.4431,19.1913,19.4619Q19.1458,19.480800000000002,19.0975,19.4904Q19.0492,19.5,19,19.5Q18.9508,19.5,18.9025,19.4904Q18.8542,19.480800000000002,18.8087,19.4619Q18.763199999999998,19.4431,18.7222,19.4157Q18.6813,19.3884,18.6464,19.3536Q18.6116,19.3187,18.5843,19.2778Q18.5569,19.236800000000002,18.5381,19.1913Q18.519199999999998,19.1458,18.5096,19.0975Q18.5,19.0492,18.5,19Q18.5,18.9508,18.5096,18.9025Q18.519199999999998,18.8542,18.5381,18.8087Q18.5569,18.763199999999998,18.5843,18.7222Q18.6116,18.6813,18.6464,18.6464Q18.6813,18.6116,18.7222,18.5843Q18.763199999999998,18.5569,18.8087,18.5381Q18.8542,18.519199999999998,18.9025,18.5096Q18.9508,18.5,19,18.5Q19.0492,18.5,19.0975,18.5096Q19.1458,18.519199999999998,19.1913,18.5381Q19.236800000000002,18.5569,19.2778,18.5843Q19.3187,18.6116,19.3536,18.6464Q19.3884,18.6813,19.4157,18.7222Q19.4431,18.763199999999998,19.4619,18.8087Q19.480800000000002,18.8542,19.4904,18.9025Q19.5,18.9508,19.5,19ZM5.5,5Q5.5,5.0492457,5.490393,5.0975451Q5.480785,5.145845,5.46194,5.191342Q5.443094,5.236839,5.415735,5.277785Q5.388375,5.318731,5.353553,5.353553Q5.318731,5.388375,5.277785,5.415735Q5.236839,5.443094,5.191342,5.46194Q5.145845,5.480785,5.0975451,5.490393Q5.0492457,5.5,5,5.5Q4.9507543,5.5,4.9024549,5.490393Q4.854155,5.480785,4.808658,5.46194Q4.763161,5.443094,4.722215,5.415735Q4.681269,5.388375,4.646447,5.353553Q4.611625,5.318731,4.584265,5.277785Q4.556906,5.236839,4.53806,5.191342Q4.519215,5.145845,4.509607,5.0975451Q4.5,5.0492457,4.5,5Q4.5,4.9507543,4.509607,4.9024549Q4.519215,4.854155,4.53806,4.808658Q4.556906,4.763161,4.584265,4.722215Q4.611625,4.681269,4.646447,4.646447Q4.681269,4.611625,4.722215,4.584265Q4.763161,4.556906,4.808658,4.53806Q4.854155,4.519215,4.9024549,4.509607Q4.9507543,4.5,5,4.5Q5.0492457,4.5,5.0975451,4.509607Q5.145845,4.519215,5.191342,4.53806Q5.236839,4.556906,5.277785,4.584265Q5.318731,4.611625,5.353553,4.646447Q5.388375,4.681269,5.415735,4.722215Q5.443094,4.763161,5.46194,4.808658Q5.480785,4.854155,5.490393,4.9024549Q5.5,4.9507543,5.5,5Z" fill="#141414" fill-opacity="1"/></g><g><path d="M19.3536,5.353553L5.353553,19.3536Q5.318731,19.3884,5.277785,19.4157Q5.236839,19.4431,5.191342,19.4619Q5.145845,19.480800000000002,5.0975451,19.4904Q5.0492457,19.5,5,19.5Q4.9507543,19.5,4.9024549,19.4904Q4.854155,19.480800000000002,4.808658,19.4619Q4.763161,19.4431,4.722215,19.4157Q4.681269,19.3884,4.646447,19.3536Q4.611625,19.3187,4.584265,19.2778Q4.556906,19.236800000000002,4.53806,19.1913Q4.519215,19.1458,4.509607,19.0975Q4.5,19.0492,4.5,19Q4.5,18.9508,4.509607,18.9025Q4.519215,18.8542,4.53806,18.8087Q4.556906,18.763199999999998,4.584265,18.7222Q4.611625,18.6813,4.646447,18.6464L18.6464,4.646447Q18.6813,4.611625,18.7222,4.584265Q18.763199999999998,4.556906,18.8087,4.53806Q18.8542,4.519215,18.9025,4.509607Q18.9508,4.5,19,4.5Q19.0492,4.5,19.0975,4.509607Q19.1458,4.519215,19.1913,4.53806Q19.236800000000002,4.556906,19.2778,4.584265Q19.3187,4.611625,19.3536,4.646447Q19.3884,4.681269,19.4157,4.722215Q19.4431,4.763161,19.4619,4.808658Q19.480800000000002,4.854155,19.4904,4.9024549Q19.5,4.9507543,19.5,5Q19.5,5.0492457,19.4904,5.0975451Q19.480800000000002,5.145845,19.4619,5.191342Q19.4431,5.236839,19.4157,5.277785Q19.3884,5.318731,19.3536,5.353553ZM19.5,5Q19.5,5.0492457,19.4904,5.0975451Q19.480800000000002,5.145845,19.4619,5.191342Q19.4431,5.236839,19.4157,5.277785Q19.3884,5.318731,19.3536,5.353553Q19.3187,5.388375,19.2778,5.415735Q19.236800000000002,5.443094,19.1913,5.46194Q19.1458,5.480785,19.0975,5.490393Q19.0492,5.5,19,5.5Q18.9508,5.5,18.9025,5.490393Q18.8542,5.480785,18.8087,5.46194Q18.763199999999998,5.443094,18.7222,5.415735Q18.6813,5.388375,18.6464,5.353553Q18.6116,5.318731,18.5843,5.277785Q18.5569,5.236839,18.5381,5.191342Q18.519199999999998,5.145845,18.5096,5.0975451Q18.5,5.0492457,18.5,5Q18.5,4.9507543,18.5096,4.9024549Q18.519199999999998,4.854155,18.5381,4.808658Q18.5569,4.763161,18.5843,4.722215Q18.6116,4.681269,18.6464,4.646447Q18.6813,4.611625,18.7222,4.584265Q18.763199999999998,4.556906,18.8087,4.53806Q18.8542,4.519215,18.9025,4.509607Q18.9508,4.5,19,4.5Q19.0492,4.5,19.0975,4.509607Q19.1458,4.519215,19.1913,4.53806Q19.236800000000002,4.556906,19.2778,4.584265Q19.3187,4.611625,19.3536,4.646447Q19.3884,4.681269,19.4157,4.722215Q19.4431,4.763161,19.4619,4.808658Q19.480800000000002,4.854155,19.4904,4.9024549Q19.5,4.9507543,19.5,5ZM5.5,19Q5.5,19.0492,5.490393,19.0975Q5.480785,19.1458,5.46194,19.1913Q5.443094,19.236800000000002,5.415735,19.2778Q5.388375,19.3187,5.353553,19.3536Q5.318731,19.3884,5.277785,19.4157Q5.236839,19.4431,5.191342,19.4619Q5.145845,19.480800000000002,5.0975451,19.4904Q5.0492457,19.5,5,19.5Q4.9507543,19.5,4.9024549,19.4904Q4.854155,19.480800000000002,4.808658,19.4619Q4.763161,19.4431,4.722215,19.4157Q4.681269,19.3884,4.646447,19.3536Q4.611625,19.3187,4.584265,19.2778Q4.556906,19.236800000000002,4.53806,19.1913Q4.519215,19.1458,4.509607,19.0975Q4.5,19.0492,4.5,19Q4.5,18.9508,4.509607,18.9025Q4.519215,18.8542,4.53806,18.8087Q4.556906,18.763199999999998,4.584265,18.7222Q4.611625,18.6813,4.646447,18.6464Q4.681269,18.6116,4.722215,18.5843Q4.763161,18.5569,4.808658,18.5381Q4.854155,18.519199999999998,4.9024549,18.5096Q4.9507543,18.5,5,18.5Q5.0492457,18.5,5.0975451,18.5096Q5.145845,18.519199999999998,5.191342,18.5381Q5.236839,18.5569,5.277785,18.5843Q5.318731,18.6116,5.353553,18.6464Q5.388375,18.6813,5.415735,18.7222Q5.443094,18.763199999999998,5.46194,18.8087Q5.480785,18.8542,5.490393,18.9025Q5.5,18.9508,5.5,19Z" fill="#141414" fill-opacity="1"/></g></g></g></svg>