<svg xmlns="http://www.w3.org/2000/svg" xmlns:xlink="http://www.w3.org/1999/xlink" fill="none" version="1.1" width="12" height="12" viewBox="0 0 12 12"><g style="mix-blend-mode:passthrough"><g style="mix-blend-mode:passthrough"><rect x="0" y="0" width="12" height="12" rx="2" fill="#FFFFFF" fill-opacity="0"/></g><g><path d="M8.914282865657807,5.142858537368774L0.8571428656578064,5.142858537368774L0.8571428656578064,6.2857185373687745L8.914282865657807,6.2857185373687745L7.142852865657806,8.057138537368775L7.942852865657806,8.857138537368774L11.085742865657807,5.714288537368775L8.000002865657805,2.5714285373687744L7.200002865657806,3.3714285373687742L8.914282865657807,5.142858537368774Z" fill="#141414" fill-opacity="1"/><path d="M7.379652865657806,3.1975735373687746L9.504112865657806,5.392858537368774L0.8571428656578064,5.392858537368774L0.8571428656578064,5.142858537368774L1.1071428656578064,5.142858537368774L1.1071428656578064,6.2857185373687745L0.8571428656578064,6.2857185373687745L0.8571428656578064,6.0357185373687745L9.517832865657807,6.0357185373687745L7.319632865657806,8.233918537368774L7.142852865657806,8.057138537368775L7.319632865657806,7.880368537368774L8.119632865657806,8.680368537368775L7.942852865657806,8.857138537368774L7.766082865657807,8.680368537368775L10.908942865657806,5.537508537368774L11.085742865657807,5.714288537368775L10.907342865657807,5.889428537368774L7.821612865657807,2.7465765373687745L8.000002865657805,2.5714285373687744L8.176772865657806,2.7482055373687744L7.376772865657807,3.5482055373687746L7.200002865657806,3.3714285373687742L7.379652865657806,3.1975735373687746ZM6.849322865657807,3.3685545373687744L8.001632865657808,2.216245537368774L11.437642865657807,5.7158985373687745L7.942852865657806,9.210698537368774L6.789302865657806,8.057138537368775L8.737502865657806,6.108938537368775L8.914282865657807,6.2857185373687745L8.914282865657807,6.5357185373687745L0.6071428656578064,6.5357185373687745L0.6071428656578064,4.892858537368774L8.914282865657807,4.892858537368774L8.914282865657807,5.142858537368774L8.734632865657806,5.316708537368775L7.020352865657807,3.5452835373687743L6.849322865657807,3.3685545373687744Z" fill="#141414" fill-opacity="1"/></g></g></svg>