<svg xmlns="http://www.w3.org/2000/svg" xmlns:xlink="http://www.w3.org/1999/xlink" fill="none" version="1.1" width="12" height="12" viewBox="0 0 12 12"><g style="mix-blend-mode:passthrough"><g style="mix-blend-mode:passthrough"><rect x="0" y="0" width="12" height="12" rx="0" fill="#FFFFFF" fill-opacity="0"/></g><g style="mix-blend-mode:passthrough"><g style="mix-blend-mode:passthrough"><g><path d="M1.1869590190429689,2.39656L6.472352019042969,2.39656C6.3197020190429685,1.74216,5.781302019042969,1.25862,5.140522019042969,1.25862L1.5307420190429688,1.25862C1.3408740190429689,1.25862,1.1869590190429689,1.428439,1.1869590190429689,1.63794L1.1869590190429689,2.39654L1.1869590190429689,2.39656ZM7.174732019042969,2.39656L10.469252019042969,2.39656C11.038882019042969,2.39656,11.50058201904297,2.90602,11.50058201904297,3.53448L11.50058201904297,10.36206C11.50058201904297,10.9905,11.038882019042969,11.5,10.469232019042968,11.5L1.5307520190429686,11.5C0.9611430190429687,11.5,0.49938201904296875,10.9905,0.49938201904296875,10.36206L0.49938201904296875,1.63792C0.49938201904296875,1.0094720000000001,0.9611430190429687,0.5,1.5307520190429686,0.5L5.140512019042969,0.5C6.162592019042969,0.5,7.011042019042969,1.3201749999999999,7.174722019042969,2.39656L7.174732019042969,2.39656ZM7.203252019042969,3.15518L1.1869590190429689,3.15518L1.1869590190429689,10.36206C1.1869590190429689,10.5715,1.3408740190429689,10.7414,1.5307520190429686,10.7414L10.46924201904297,10.7414C10.65908201904297,10.7414,10.812982019042968,10.5715,10.812982019042968,10.36206L10.812982019042968,3.53448C10.812982019042968,3.325,10.65908201904297,3.15516,10.469232019042968,3.15516L7.203262019042969,3.15516L7.203252019042969,3.15518Z" fill="#3662EC" fill-opacity="1"/><path d="M7.203262019042969,3.05516L10.469232019042968,3.05516Q10.655982019042968,3.05516,10.78648201904297,3.19911Q10.91298201904297,3.33879,10.91298201904297,3.53448L10.91298201904297,10.36206Q10.91298201904297,10.5577,10.78648201904297,10.6974Q10.655982019042968,10.8414,10.46924201904297,10.8414L1.5307520190429686,10.8414Q1.3440190190429688,10.8414,1.2135550190429687,10.6974Q1.0869590190429688,10.5578,1.0869590190429688,10.36206L1.0869590190429688,3.05518L7.203252019042969,3.05518L7.203252019042969,3.25518L1.1869590190429689,3.25518L1.1869590190429689,3.15518L1.2869590190429687,3.15518L1.2869590190429687,10.36206Q1.2869590190429687,10.6414,1.5307520190429686,10.6414L10.46924201904297,10.6414Q10.712982019042968,10.6414,10.712982019042968,10.36206L10.712982019042968,3.53448Q10.712982019042968,3.41594,10.638282019042968,3.33342Q10.567282019042969,3.25516,10.469232019042968,3.25516L7.203262019042969,3.25516L7.203262019042969,3.05516ZM7.075862019042969,2.41159Q6.957372019042968,1.63239,6.410932019042969,1.1174089999999999Q5.861922019042969,0.6,5.140512019042969,0.6L1.5307520190429686,0.6Q1.1478730190429687,0.6,0.8755580190429688,0.900449Q0.5993820190429687,1.205158,0.5993820190429687,1.63792L0.5993820190429687,10.36206Q0.5993820190429687,10.7948,0.8755590190429687,11.0995Q1.1478740190429688,11.4,1.5307520190429686,11.4L10.469232019042968,11.4Q10.85208201904297,11.4,11.124382019042969,11.0996Q11.400582019042968,10.7948,11.400582019042968,10.36206L11.400582019042968,3.53448Q11.400582019042968,3.10171,11.124382019042969,2.797Q10.85208201904297,2.4965599999999997,10.469252019042969,2.4965599999999997L7.174732019042969,2.4965599999999997L7.174732019042969,2.29656L10.469252019042969,2.29656Q10.940782019042969,2.29656,11.272582019042968,2.66269Q11.60058201904297,3.02456,11.60058201904297,3.53448L11.60058201904297,10.36206Q11.60058201904297,10.872,11.272582019042968,11.2339Q10.940782019042969,11.6,10.469232019042968,11.6L1.5307520190429686,11.6Q1.0592210190429687,11.6,0.7273680190429688,11.2339Q0.39938201904296877,10.872,0.39938201904296877,10.36206L0.39938201904296877,1.63792Q0.39938201904296877,1.128009,0.7273690190429687,0.7661359999999999Q1.0592190190429687,0.4,1.5307520190429686,0.4L5.140512019042969,0.40000009999999997Q5.9413220190429685,0.40000009999999997,6.548102019042969,0.971861Q7.144732019042968,1.53415,7.273582019042969,2.38152L7.075862019042969,2.41159ZM1.0869590190429688,2.39654L1.0869590190429688,1.63794Q1.0869590190429688,1.442242,1.2135540190429688,1.302562Q1.3440120190429687,1.15862,1.5307420190429688,1.15862L5.140522019042969,1.15862Q5.653592019042969,1.15862,6.0549920190429685,1.50663Q6.446652019042968,1.8462,6.569732019042969,2.37384L6.598362019042969,2.4965599999999997L1.1869590190429689,2.4965599999999997L1.1869590190429689,2.29656L6.472352019042969,2.29656L6.472352019042969,2.39656L6.374962019042969,2.41927Q6.266622019042969,1.95482,5.923972019042969,1.65775Q5.578962019042969,1.3586200000000002,5.140522019042969,1.3586200000000002L1.5307420190429688,1.3586200000000002Q1.2869590190429687,1.3586200000000002,1.2869590190429687,1.63794L1.2869590190429687,2.39654L1.0869590190429688,2.39654Z" fill="#3662EC" fill-opacity="1"/></g></g><g style="mix-blend-mode:passthrough"><ellipse cx="3.4834685921669006" cy="6.9164857268333435" rx="0.6829882264137268" ry="0.683100163936615" fill="#3662EC" fill-opacity="1"/></g><g style="mix-blend-mode:passthrough"><ellipse cx="5.999994337558746" cy="6.9164857268333435" rx="0.6829882264137268" ry="0.683100163936615" fill="#3662EC" fill-opacity="1"/></g><g style="mix-blend-mode:passthrough"><ellipse cx="8.5165234208107" cy="6.9164857268333435" rx="0.6829882264137268" ry="0.683100163936615" fill="#3662EC" fill-opacity="1"/></g></g></g></svg>