<svg xmlns="http://www.w3.org/2000/svg" xmlns:xlink="http://www.w3.org/1999/xlink" fill="none" version="1.1" width="20" height="20" viewBox="0 0 20 20"><g style="mix-blend-mode:passthrough"><g style="mix-blend-mode:passthrough"><g style="mix-blend-mode:passthrough"><rect x="0" y="0" width="20" height="20" rx="0" fill="#FFFFFF" fill-opacity="0"/></g><g><path d="M18.517658764648438,18.292382470703124L9.350958764648437,2.4590594707031252L10.000028764648437,2.083282470703125L10.649098764648437,2.4590594707031252L1.4824287646484375,18.292382470703124L0.8333587646484375,17.916582470703126L0.8333587646484375,17.166582470703126L19.16665876464844,17.166582470703126L19.16665876464844,17.916582470703126L18.517658764648438,18.292382470703124ZM19.815758764648436,17.540882470703124Q19.91665876464844,17.715182470703127,19.91665876464844,17.916582470703126Q19.91665876464844,17.990482470703125,19.902258764648437,18.062882470703123Q19.88785876464844,18.135382470703124,19.859558764648437,18.203582470703125Q19.83135876464844,18.271882470703126,19.79025876464844,18.333282470703125Q19.749258764648438,18.394682470703124,19.69705876464844,18.446982470703126Q19.644758764648437,18.499182470703126,19.583358764648438,18.540182470703126Q19.52195876464844,18.581282470703126,19.453658764648438,18.609482470703124Q19.385458764648437,18.637782470703126,19.31305876464844,18.652182470703124Q19.240558764648437,18.666582470703126,19.16665876464844,18.666582470703126L0.8333587348461375,18.666582470703126Q0.6319157646484375,18.666582470703126,0.4575817646484375,18.565682470703123Q0.3936537646484375,18.528682470703124,0.3381747646484375,18.479882470703124Q0.2826957646484375,18.431082470703124,0.2377977646484375,18.372482470703126Q0.1928997646484375,18.313782470703124,0.16030776464843755,18.247482470703126Q0.12771576464843748,18.181282470703124,0.10868276464843751,18.109882470703123Q0.08964976464843755,18.038482470703123,0.0849067646484375,17.964782470703128Q0.08016376464843755,17.891082470703125,0.08989276464843754,17.817782470703126Q0.09962276464843745,17.744582470703126,0.12345076464843752,17.674682470703125Q0.14727876464843748,17.604782470703125,0.18428876464843746,17.540882470703124L9.350958764648437,1.707505470703125Q9.451168764648438,1.534420470703125,9.624248764648437,1.434212470703125Q9.688178764648438,1.397202470703125,9.758098764648437,1.373374470703125Q9.828018764648437,1.349546470703125,9.901238764648438,1.339816470703125Q9.974468764648437,1.3300874707031252,10.048178764648437,1.334830470703125Q10.121898764648437,1.339573470703125,10.193268764648437,1.358606470703125Q10.264648764648438,1.377639470703125,10.330938764648437,1.410231470703125Q10.397228764648437,1.442823470703125,10.455888764648437,1.487721470703125Q10.514538764648437,1.5326194707031249,10.563318764648438,1.588098470703125Q10.612088764648437,1.643577470703125,10.649098764648437,1.707505470703125L19.815758764648436,17.540882470703124Z" fill="#FF9494" fill-opacity="1"/></g><g><path d="M9.25,14.999949470703125L9.25,14.583282470703125Q9.25,14.509413970703125,9.264410999999999,14.436964470703124Q9.278822,14.364515470703125,9.30709,14.296269470703125Q9.335359,14.228024470703126,9.376398,14.166604470703126Q9.417437,14.105185470703125,9.46967,14.052952470703126Q9.521903,14.000719470703125,9.583322,13.959680470703125Q9.644742,13.918641470703125,9.712987,13.890372470703126Q9.781233,13.862104470703125,9.853682,13.847693470703124Q9.9261315,13.833282470703125,10,13.833282470703125Q10.0738685,13.833282470703125,10.146318,13.847693470703124Q10.218767,13.862104470703125,10.287013,13.890372470703126Q10.355258,13.918641470703125,10.416678,13.959680470703125Q10.478097,14.000719470703125,10.53033,14.052952470703126Q10.582563,14.105185470703125,10.623602,14.166604470703126Q10.664641,14.228024470703126,10.69291,14.296269470703125Q10.721178,14.364515470703125,10.735589000000001,14.436964470703124Q10.75,14.509413970703125,10.75,14.583282470703125L10.75,14.999949470703125Q10.75,15.073817470703124,10.735589000000001,15.146266470703125Q10.721178,15.218716470703125,10.69291,15.286961470703124Q10.664641,15.355207470703125,10.623602,15.416626470703125Q10.582563,15.478046470703125,10.53033,15.530279470703125Q10.478097,15.582512470703126,10.416678,15.623552470703125Q10.355258,15.664592470703125,10.287013,15.692862470703124Q10.218767,15.721122470703126,10.146318,15.735542470703125Q10.0738685,15.749952470703125,10,15.749952470703125Q9.9261315,15.749952470703125,9.853682,15.735542470703125Q9.781233,15.721122470703126,9.712987,15.692862470703124Q9.644742,15.664592470703125,9.583322,15.623552470703125Q9.521903,15.582512470703126,9.46967,15.530279470703125Q9.417437,15.478046470703125,9.376398,15.416626470703125Q9.335359,15.355207470703125,9.30709,15.286961470703124Q9.278822,15.218716470703125,9.264410999999999,15.146266470703125Q9.25,15.073817470703124,9.25,14.999949470703125ZM10.75,14.999949470703125Q10.75,15.073817470703124,10.735589000000001,15.146266470703125Q10.721178,15.218716470703125,10.69291,15.286961470703124Q10.664641,15.355207470703125,10.623602,15.416626470703125Q10.582563,15.478046470703125,10.53033,15.530279470703125Q10.478097,15.582512470703126,10.416678,15.623552470703125Q10.355258,15.664592470703125,10.287013,15.692862470703124Q10.218767,15.721122470703126,10.146318,15.735542470703125Q10.0738685,15.749952470703125,10,15.749952470703125Q9.9261315,15.749952470703125,9.853682,15.735542470703125Q9.781233,15.721122470703126,9.712987,15.692862470703124Q9.644742,15.664592470703125,9.583322,15.623552470703125Q9.521903,15.582512470703126,9.46967,15.530279470703125Q9.417437,15.478046470703125,9.376398,15.416626470703125Q9.335359,15.355207470703125,9.30709,15.286961470703124Q9.278822,15.218716470703125,9.264410999999999,15.146266470703125Q9.25,15.073817470703124,9.25,14.999949470703125Q9.25,14.926080470703125,9.264410999999999,14.853631470703125Q9.278822,14.781182470703126,9.30709,14.712936470703125Q9.335359,14.644690970703126,9.376398,14.583271496703125Q9.417437,14.521852070703124,9.46967,14.469619470703124Q9.521903,14.417386470703125,9.583322,14.376347470703125Q9.644742,14.335307470703125,9.712987,14.307039470703124Q9.781233,14.278771470703125,9.853682,14.264360470703124Q9.9261315,14.249949470703125,10,14.249949470703125Q10.0738685,14.249949470703125,10.146318,14.264360470703124Q10.218767,14.278771470703125,10.287013,14.307039470703124Q10.355258,14.335307470703125,10.416678,14.376347470703125Q10.478097,14.417386470703125,10.53033,14.469619470703124Q10.582563,14.521852070703124,10.623602,14.583271498603125Q10.664641,14.644690970703126,10.69291,14.712936470703125Q10.721178,14.781182470703126,10.735589000000001,14.853631470703125Q10.75,14.926080470703125,10.75,14.999949470703125ZM10.75,14.583282470703125Q10.75,14.657150970703125,10.735589000000001,14.729600470703126Q10.721178,14.802049470703125,10.69291,14.870295470703125Q10.664641,14.938540470703124,10.623602,14.999960470703124Q10.582563,15.061379470703125,10.53033,15.113612470703124Q10.478097,15.165845470703125,10.416678,15.206884470703125Q10.355258,15.247923470703125,10.287013,15.276192470703124Q10.218767,15.304460470703125,10.146318,15.318871470703126Q10.0738685,15.333282470703125,10,15.333282470703125Q9.9261315,15.333282470703125,9.853682,15.318871470703126Q9.781233,15.304460470703125,9.712987,15.276192470703124Q9.644742,15.247923470703125,9.583322,15.206884470703125Q9.521903,15.165845470703125,9.46967,15.113612470703124Q9.417437,15.061379470703125,9.376398,14.999960470703124Q9.335359,14.938540470703124,9.30709,14.870295470703125Q9.278822,14.802049470703125,9.264410999999999,14.729600470703126Q9.25,14.657150970703125,9.25,14.583282470703125Q9.25,14.509413970703125,9.264410999999999,14.436964470703124Q9.278822,14.364515470703125,9.30709,14.296269470703125Q9.335359,14.228024470703126,9.376398,14.166604470703126Q9.417437,14.105185470703125,9.46967,14.052952470703126Q9.521903,14.000719470703125,9.583322,13.959680470703125Q9.644742,13.918641470703125,9.712987,13.890372470703126Q9.781233,13.862104470703125,9.853682,13.847693470703124Q9.9261315,13.833282470703125,10,13.833282470703125Q10.0738685,13.833282470703125,10.146318,13.847693470703124Q10.218767,13.862104470703125,10.287013,13.890372470703126Q10.355258,13.918641470703125,10.416678,13.959680470703125Q10.478097,14.000719470703125,10.53033,14.052952470703126Q10.582563,14.105185470703125,10.623602,14.166604470703126Q10.664641,14.228024470703126,10.69291,14.296269470703125Q10.721178,14.364515470703125,10.735589000000001,14.436964470703124Q10.75,14.509413970703125,10.75,14.583282470703125Z" fill="#FF9494" fill-opacity="1"/></g><g><path d="M9.253459,12.0839501171875L9.25,7.9174927071875Q9.249939,7.8436242171875,9.26429,7.7711631171875Q9.278641,7.6987021171875,9.306852,7.6304331171875Q9.335064,7.5621641171875,9.376052,7.5007101171875Q9.41704,7.4392571171875,9.46923,7.3869801171875Q9.521419,7.3347041171875,9.582805,7.2936141171875Q9.64419,7.2525241171875,9.712412,7.2241991171875Q9.780635,7.1958741171875005,9.853072,7.1814031171875Q9.9255089,7.1669321171875,9.99937741,7.1668701171875Q10.0732459,7.1668091171875,10.145707,7.1811601171875Q10.218168,7.1955111171875,10.286437,7.2237221171875Q10.354706,7.2519341171875,10.41616,7.2929221171875Q10.477613,7.3339101171875,10.52989,7.3861001171875Q10.582166,7.4382891171875,10.623256,7.4996751171875005Q10.664346,7.5610601171875,10.692671,7.6292821171875Q10.720996,7.6975051171875,10.735467,7.7699421171875Q10.749938,7.8423790171875,10.75,7.9162475271875L10.753458,12.0827101171875Q10.75352,12.1565701171875,10.739169,12.2290401171875Q10.724817999999999,12.3015001171875,10.696606,12.3697701171875Q10.668395,12.4380301171875,10.627406,12.4994901171875Q10.586418,12.5609401171875,10.534229,12.613220117187499Q10.482039,12.665490117187499,10.420654,12.7065801171875Q10.359268,12.7476701171875,10.291046,12.7760001171875Q10.222824,12.804320117187501,10.150387,12.8188001171875Q10.0779498,12.8332701171875,10.00408125,12.8333301171875Q9.9302127,12.8333901171875,9.857752,12.8190401171875Q9.785291,12.8046901171875,9.717021,12.7764801171875Q9.648752,12.748260117187499,9.587299,12.7072801171875Q9.525845,12.6662901171875,9.473569,12.614100117187501Q9.421293,12.5619101171875,9.380203,12.500520117187499Q9.339112,12.439140117187499,9.310788,12.370920117187499Q9.282463,12.302690117187499,9.267992,12.2302601171875Q9.25352,12.1578201171875,9.253459,12.0839501171875ZM10.753459,12.0833301171875Q10.753459,12.1572001171875,10.739048,12.2296501171875Q10.724637,12.3021001171875,10.696368,12.3703401171875Q10.6681,12.4385901171875,10.627061,12.5000101171875Q10.586022,12.5614301171875,10.533789,12.6136601171875Q10.481556,12.6658901171875,10.420136,12.7069301171875Q10.358717,12.7479701171875,10.290471,12.7762401171875Q10.222226,12.804510117187501,10.149776,12.8189201171875Q10.0773272,12.8333301171875,10.00345868,12.8333301171875Q9.9295901,12.8333301171875,9.857141,12.8189201171875Q9.784692,12.804510117187501,9.716446,12.7762401171875Q9.6482,12.7479701171875,9.586781,12.7069301171875Q9.525362,12.6658901171875,9.473129,12.6136601171875Q9.420896,12.5614301171875,9.379857,12.5000101171875Q9.338817,12.4385901171875,9.310549,12.3703401171875Q9.282281,12.3021001171875,9.26787,12.2296501171875Q9.253459,12.1572001171875,9.253459,12.0833301171875Q9.253459,12.009460117187501,9.26787,11.9370101171875Q9.282281,11.8645601171875,9.310549,11.7963201171875Q9.338817,11.7280701171875,9.379857,11.6666501171875Q9.420896,11.6052301171875,9.473129,11.5530001171875Q9.525362,11.5007601171875,9.586781,11.459730117187501Q9.6482,11.4186901171875,9.716446,11.3904201171875Q9.784692,11.3621501171875,9.857141,11.3477401171875Q9.9295901,11.3333301171875,10.00345868,11.3333301171875Q10.0773272,11.3333301171875,10.149776,11.3477401171875Q10.222226,11.3621501171875,10.290471,11.3904201171875Q10.358717,11.4186901171875,10.420136,11.459730117187501Q10.481556,11.5007601171875,10.533789,11.5530001171875Q10.586022,11.6052301171875,10.627061,11.6666501171875Q10.6681,11.7280701171875,10.696368,11.7963201171875Q10.724636,11.8645601171875,10.739048,11.9370101171875Q10.753459,12.009460117187501,10.753459,12.0833301171875ZM10.75,7.9168701171875Q10.75,7.9907386171875,10.735589000000001,8.0631881171875Q10.721178,8.1356371171875,10.69291,8.2038831171875Q10.664641,8.2721281171875,10.623602,8.3335481171875Q10.582563,8.3949671171875,10.53033,8.4472001171875Q10.478097,8.4994331171875,10.416678,8.5404721171875Q10.355258,8.5815111171875,10.287013,8.6097801171875Q10.218767,8.6380481171875,10.146318,8.652459117187501Q10.0738685,8.6668701171875,10,8.6668701171875Q9.9261315,8.6668701171875,9.853682,8.652459117187501Q9.781233,8.6380481171875,9.712987,8.6097801171875Q9.644742,8.5815111171875,9.583322,8.5404721171875Q9.521903,8.4994331171875,9.46967,8.4472001171875Q9.417437,8.3949671171875,9.376398,8.3335481171875Q9.335359,8.2721281171875,9.30709,8.2038831171875Q9.278822,8.1356371171875,9.264410999999999,8.0631881171875Q9.25,7.9907386171875,9.25,7.9168701171875Q9.25,7.8430016171875,9.264410999999999,7.7705521171875Q9.278822,7.6981031171875,9.30709,7.6298571171875Q9.335359,7.5616121171875,9.376398,7.5001921171875Q9.417437,7.4387731171875,9.46967,7.3865401171875Q9.521903,7.3343071171875,9.583322,7.2932681171875Q9.644742,7.2522291171875,9.712987,7.2239601171875Q9.781233,7.1956921171875,9.853682,7.1812811171875Q9.9261315,7.1668701171875,10,7.1668701171875Q10.0738685,7.1668701171875,10.146318,7.1812811171875Q10.218767,7.1956921171875,10.287013,7.2239601171875Q10.355258,7.2522291171875,10.416678,7.2932681171875Q10.478097,7.3343071171875,10.53033,7.3865401171875Q10.582563,7.4387731171875,10.623602,7.5001921171875Q10.664641,7.5616121171875,10.69291,7.6298571171875Q10.721178,7.6981031171875,10.735589000000001,7.7705521171875Q10.75,7.8430016171875,10.75,7.9168701171875Z" fill="#FF9494" fill-opacity="1"/></g></g></g></svg>