<svg xmlns="http://www.w3.org/2000/svg" xmlns:xlink="http://www.w3.org/1999/xlink" fill="none" version="1.1" width="12" height="12" viewBox="0 0 12 12"><g style="mix-blend-mode:passthrough"><g><path d="M6,12C2.6862,12,0,9.3138,0,6C0,2.6862,2.6862,0,6,0C9.3138,0,12,2.6862,12,6C12,9.3138,9.3138,12,6,12ZM6.45,7.6362C6.45,7.88473,6.24853,8.0862,6,8.0862C5.75147,8.0862,5.55,7.88473,5.55,7.6362C5.55,7.2786,5.7156,6.87,6.0318,6.384C6.1806,6.1548,6.3432,5.9976,6.6276,5.7696L6.7152,5.6994C7.0896,5.4,7.1862,5.2614,7.1862,4.9512C7.1862,4.2702,6.6522,3.723,6,3.723C5.3202,3.723,4.8138,4.227,4.8138,4.9512C4.8138,5.19973,4.61233,5.4012,4.3638,5.4012C4.11527,5.4012,3.9138,5.19973,3.9138,4.9512C3.9138,3.7296,4.824,2.823,6,2.823C7.155,2.823,8.0862,3.7782,8.0862,4.9512C8.0862,5.6004,7.8444,5.949,7.2768,6.4026L7.1904,6.4716C6.9756,6.6438,6.8694,6.747,6.7866,6.8748C6.5568,7.2276,6.45,7.491,6.45,7.6368L6.45,7.6362ZM6,9.8184C5.69152,9.82864,5.43589,9.58135,5.43589,9.2727C5.43589,8.96405,5.69152,8.71677,6,8.727C6.29434,8.73677,6.52789,8.97821,6.52789,9.2727C6.52789,9.5672,6.29434,9.80863,6,9.8184Z"/></g><g><path d="M6.3933436405181885,7.384629014205933C6.3933436405181885,7.6331590142059325,6.191873640518189,7.834629014205933,5.943343640518188,7.834629014205933C5.694813640518189,7.834629014205933,5.493343640518189,7.6331590142059325,5.493343640518189,7.384629014205933C5.493343640518189,7.027029014205932,5.6589436405181885,6.618429014205932,5.975143640518189,6.132429014205933C6.123943640518188,5.903229014205932,6.286543640518188,5.7460290142059325,6.5709436405181885,5.518029014205933L6.658543640518189,5.447829014205933C7.032943640518189,5.148429014205933,7.129543640518189,5.009829014205932,7.129543640518189,4.699629014205932C7.129543640518189,4.018629014205933,6.595543640518189,3.4714290142059325,5.943343640518188,3.4714290142059325C5.263543640518188,3.4714290142059325,4.757143640518189,3.9754290142059325,4.757143640518189,4.699629014205932C4.757143640518189,4.948159014205933,4.555671640518188,5.149629014205932,4.307143640518189,5.149629014205932C4.058615640518188,5.149629014205932,3.8571436405181885,4.948159014205933,3.8571436405181885,4.699629014205932C3.8571436405181885,3.4780290142059327,4.767343640518188,2.5714290142059326,5.943343640518188,2.5714290142059326C7.098343640518189,2.5714290142059326,8.029543640518188,3.5266290142059327,8.029543640518188,4.699629014205932C8.029543640518188,5.348829014205933,7.787743640518189,5.697429014205932,7.220143640518188,6.151029014205933L7.133743640518189,6.220029014205933C6.918943640518188,6.392229014205933,6.812743640518189,6.495429014205932,6.729943640518188,6.623229014205933C6.500143640518188,6.976029014205933,6.3933436405181885,7.239429014205933,6.3933436405181885,7.385229014205932L6.3933436405181885,7.384629014205933ZM5.943343640518188,9.566829014205933C5.634863640518189,9.577069014205932,5.379233640518189,9.329779014205933,5.379233640518189,9.021129014205933C5.379233640518189,8.712479014205933,5.634863640518189,8.465189014205933,5.943343640518188,8.475429014205933C6.237673640518189,8.485199014205932,6.4712336405181885,8.726629014205933,6.4712336405181885,9.021129014205933C6.4712336405181885,9.315629014205932,6.237673640518189,9.557059014205933,5.943343640518188,9.566829014205933Z" fill="#FFFFFF" fill-opacity="1"/></g></g></svg>