<svg xmlns="http://www.w3.org/2000/svg" xmlns:xlink="http://www.w3.org/1999/xlink" fill="none" version="1.1" width="26" height="12" viewBox="0 0 26 12"><g><path d="M6.24,0L20.28,0C23.452,0,26,2.67273,26,6C26,9.32727,23.452,12,20.28,12L0,12L0,6.54545C0,2.94545,2.808,-8.12791e-7,6.24,0ZM9.62,9.27273L9.62,3.05455L8.84,3.05455L8.84,7.8L5.98,3.05455L5.2,3.05455L5.2,9.27273L5.98,9.27273L5.98,4.52727L8.84,9.27273L9.62,9.27273ZM14.248,6.38182L14.248,5.72727L11.804,5.72727L11.804,3.70909L14.612,3.70909L14.612,3.05455L11.024,3.05455L11.024,9.27273L14.664,9.27273L14.664,8.61818L11.804,8.61818L11.804,6.38182L14.248,6.38182ZM16.796,7.14545L15.912,3.10909L15.028,3.10909L16.432,9.32727L17.16,9.32727L18.356,5.01818L18.46,4.47273L18.564,5.01818L19.76,9.32727L20.488,9.32727L21.944,3.10909L21.06,3.10909L20.228,7.14545L20.124,7.96364L19.968,7.14545L18.928,3.10909L18.148,3.10909L17.108,7.14545L16.952,7.96364L16.796,7.14545Z" fill="#EE502F" fill-opacity="1"/></g></svg>