<svg xmlns="http://www.w3.org/2000/svg" xmlns:xlink="http://www.w3.org/1999/xlink" fill="none" version="1.1" width="20" height="20" viewBox="0 0 20 20"><g style="mix-blend-mode:passthrough"><g style="mix-blend-mode:passthrough"><rect x="0" y="0" width="20" height="20" rx="0" fill="#FCFCFC" fill-opacity="1"/></g><g><path d="M10.5335176953125,7.630890625Q10.0394276953125,7.136880625,10.0394276953125,6.438190625Q10.0394276953125,5.739500625,10.5335176953125,5.245490625L12.3845376953125,3.3944766250000002Q12.8785376953125,2.900390625,13.5771876953125,2.900390625Q14.2758876953125,2.900390625,14.7698876953125,3.394482625L16.6209876953125,5.245500625Q17.1149876953125,5.739500625,17.1149876953125,6.438190625Q17.1149876953125,7.136890625,16.6209876953125,7.630890625L14.7698876953125,9.481910625000001Q14.2758876953125,9.975990625,13.5771876953125,9.975990625Q12.8785376953125,9.975990625,12.3845276953125,9.481900625L10.5335176953125,7.630890625ZM2.8848876953125,4.836530625Q2.8848876953125,4.137920625,3.3788786953125,3.643930625Q3.8728696953125,3.149939625,4.5714776953125,3.149939625L7.7446576953125,3.149939625Q8.4432676953125,3.149939625,8.9372576953125,3.643930625Q9.4312476953125,4.137920625,9.4312476953125,4.836530625L9.4312476953125,8.009710625Q9.4312476953125,8.708320624999999,8.9372576953125,9.202310624999999Q8.4432676953125,9.696300625,7.7446576953125,9.696300625L4.5714776953125,9.696300625Q3.8728696953125,9.696300625,3.3788786953125,9.202310624999999Q2.8848876953125,8.708320624999999,2.8848876953125,8.009710625L2.8848876953125,4.836530625ZM13.2737876953125,4.283710625L11.4227476953125,6.1347306249999995Q11.2969276953125,6.2604106250000005,11.2969276953125,6.438190625Q11.2969276953125,6.615970625,11.4227076953125,6.741610625L13.2737876953125,8.592680625Q13.3994876953125,8.718490625000001,13.5771876953125,8.718490625000001Q13.7549876953125,8.718490625000001,13.8806876953125,8.592710624999999L15.7316876953125,6.741650625Q15.8574876953125,6.615970625,15.8574876953125,6.438190625Q15.8574876953125,6.2604106250000005,15.7317876953125,6.134770625L13.8806876953125,4.283710625Q13.7549876953125,4.157890625,13.5771876953125,4.157890625Q13.3994876953125,4.157890625,13.2737876953125,4.283710625ZM7.7446576953125,4.407670625L4.5714776953125,4.407670625Q4.3938376953125005,4.407670625,4.2682276953125005,4.533280625Q4.1426176953125005,4.658890625,4.1426176953125005,4.836530625L4.1426176953125005,8.009710625Q4.1426176953125005,8.187350625,4.2682276953125005,8.312960624999999Q4.3938376953125005,8.438570625,4.5714776953125,8.438570625L7.7446576953125,8.438570625Q7.9222976953125,8.438570625,8.0479076953125,8.312960624999999Q8.173517695312501,8.187350625,8.173517695312501,8.009710625L8.173517695312501,4.836530625Q8.173527695312501,4.658890625,8.0479076953125,4.533280625Q7.9222976953125,4.407670625,7.7446576953125,4.407670625ZM2.8848876953125,12.240620625Q2.8848876953125,11.542010625,3.3788786953125,11.048020625Q3.8728686953125,10.554030625,4.5714776953125,10.554030625L7.7446576953125,10.554030625Q8.4432676953125,10.554030625,8.9372576953125,11.048020625Q9.4312476953125,11.542010625,9.4312476953125,12.240620625L9.4312476953125,15.413790625Q9.4312476953125,16.112390625,8.9372576953125,16.606390625Q8.4432676953125,17.100390625,7.7446576953125,17.100390625L4.5714776953125,17.100390625Q3.8728666953125,17.100390625,3.3788786953125,16.606390625Q2.8848876953125,16.112390625,2.8848876953125,15.413790625L2.8848876953125,12.240620625ZM10.2889776953125,12.240620625Q10.2889776953125,11.542010625,10.7829676953125,11.048020625Q11.2769576953125,10.554030625,11.9755676953125,10.554030625L15.1487876953125,10.554030625Q15.8473876953125,10.554030625,16.3413876953125,11.048020625Q16.835287695312502,11.542010625,16.835387695312498,12.240620625L16.835387695312498,15.413790625Q16.835287695312502,16.112390625,16.3413876953125,16.606390625Q15.8473876953125,17.100390625,15.1487876953125,17.100390625L11.9755676953125,17.100390625Q11.2769576953125,17.100390625,10.7829676953125,16.606390625Q10.2889776953125,16.112390625,10.2889776953125,15.413790625L10.2889776953125,12.240620625ZM7.7446576953125,11.811760625L4.5714776953125,11.811760625Q4.3938376953125005,11.811760625,4.2682276953125005,11.937370625Q4.1426176953125005,12.062980625,4.1426176953125005,12.240620625L4.1426176953125005,15.413790625Q4.1426176953125005,15.591490625,4.2682276953125005,15.717090625Q4.3938376953125005,15.842690625,4.5714776953125,15.842690625L7.7446576953125,15.842690625Q7.9222976953125,15.842690625,8.0479076953125,15.717090625Q8.173517695312501,15.591490625,8.173517695312501,15.413790625L8.173517695312501,12.240620625Q8.173517695312501,12.062980625,8.0479076953125,11.937370625Q7.9222976953125,11.811760625,7.7446576953125,11.811760625ZM15.1487876953125,11.811760625L11.9755676953125,11.811760625Q11.7979276953125,11.811760625,11.6723176953125,11.937370625Q11.5467076953125,12.062980625,11.5467076953125,12.240620625L11.5467076953125,15.413790625Q11.5467076953125,15.591390625,11.6723176953125,15.717090625Q11.7979276953125,15.842690625,11.9755676953125,15.842690625L15.1487876953125,15.842690625Q15.3263876953125,15.842690625,15.4519876953125,15.717090625Q15.5775876953125,15.591490625,15.5775876953125,15.413790625L15.5775876953125,12.240620625Q15.5775876953125,12.062980625,15.4519876953125,11.937370625Q15.3263876953125,11.811760625,15.1487876953125,11.811760625Z" fill-rule="evenodd" fill="#0089FF" fill-opacity="1"/></g></g></svg>