<svg xmlns="http://www.w3.org/2000/svg" xmlns:xlink="http://www.w3.org/1999/xlink" fill="none" version="1.1" width="30" height="30" viewBox="0 0 30 30"><g style="mix-blend-mode:passthrough"><g style="mix-blend-mode:passthrough"><rect x="0" y="0" width="30" height="30" rx="0" fill="#D8D8D8" fill-opacity="0"/></g><g style="mix-blend-mode:passthrough"><ellipse cx="15" cy="15" rx="12.25" ry="12.25" fill-opacity="0" stroke-opacity="1" stroke="#4285F4" fill="none" stroke-width="1.5"/></g><g style="mix-blend-mode:passthrough"><ellipse cx="15" cy="15" rx="6.25" ry="12.25" fill-opacity="0" stroke-opacity="1" stroke="#4285F4" fill="none" stroke-width="1.5"/></g><g style="mix-blend-mode:passthrough"><path d="M5.277281465454101,22.27728Q7.179971465454102,20.37459,9.647651465454102,19.330851Q12.203071465454101,18.25,15.000001465454101,18.25Q17.7969114654541,18.25,20.3523114654541,19.330851Q22.8200114654541,20.37459,24.7227114654541,22.27728L23.6620114654541,23.33794Q21.9662114654541,21.64213,19.7680114654541,20.71236Q17.4927114654541,19.75,15.000001465454101,19.75Q12.5072414654541,19.75,10.231981465454101,20.71236Q8.033751465454102,21.64213,6.337941465454102,23.33794L5.277281465454101,22.27728Z" fill="#4285F4" fill-opacity="1"/></g><g style="mix-blend-mode:passthrough" transform="matrix(1,0,0,-1,0,19.61328125)"><path d="M5.277281465454101,13.083920625000001Q7.179971465454102,11.181230625,9.647651465454102,10.137491625Q12.203071465454101,9.056640625,15.000001465454101,9.056640625Q17.7969114654541,9.056640625,20.3523114654541,10.137491625Q22.8200114654541,11.181230625,24.7227114654541,13.083920625000001L23.6620114654541,14.144580625Q21.9662114654541,12.448770625,19.7680114654541,11.519000625Q17.4927114654541,10.556640625,15.000001465454101,10.556640625Q12.5072414654541,10.556640625,10.231981465454101,11.519000625Q8.033751465454102,12.448770625,6.337941465454102,14.144580625L5.277281465454101,13.083920625000001Z" fill="#4285F4" fill-opacity="1"/></g><g style="mix-blend-mode:passthrough"><path d="" fill="#4285F4" fill-opacity="1"/><path d="M27.5,15.75L2.5,15.75L2.5,14.25L27.5,14.25L27.5,15.75Z" fill="#4285F4" fill-opacity="1"/></g><g style="mix-blend-mode:passthrough" transform="matrix(0,1,-1,0,17.5,-12.5)"><path d="" fill="#4285F4" fill-opacity="1"/><path d="M40,3.25L15,3.25L15,1.75L40,1.75L40,3.25Z" fill="#4285F4" fill-opacity="1"/></g></g></svg>