<svg xmlns="http://www.w3.org/2000/svg" xmlns:xlink="http://www.w3.org/1999/xlink" fill="none" version="1.1" width="24" height="24" viewBox="0 0 24 24"><g style="mix-blend-mode:passthrough"><g transform="matrix(0,-1,1,0,-24,24)"><rect x="0" y="24" width="24" height="24" rx="4" fill="#FFF9E5" fill-opacity="0.8999999761581421"/></g><g><path d="M3.838287353515625,16.806152109375L3.838287353515625,7.566162109375L17.411687353515624,7.566162109375Q18.550787353515624,7.566162109375,19.356287353515626,8.371618509375Q20.161687353515624,9.177076109375,20.161687353515624,10.316162109375L20.161687353515624,16.806152109375Q20.161687353515624,17.945242109375002,19.356287353515626,18.750662109375Q18.550787353515624,19.556162109375002,17.411687353515624,19.556162109375002L6.588287353515625,19.556162109375002Q5.449201353515625,19.556162109375002,4.643743853515625,18.750662109375Q3.838287353515625,17.945242109375002,3.838287353515625,16.806152109375ZM5.338287353515625,16.806152109375Q5.338287353515625,17.323922109374998,5.7044073535156254,17.690032109375Q6.0705173535156245,18.056152109375,6.588287353515625,18.056152109375L17.411687353515624,18.056152109375Q17.929487353515626,18.056152109375,18.295587353515625,17.690032109375Q18.661687353515624,17.323922109374998,18.661687353515624,16.806152109375L18.661687353515624,10.316162109375Q18.661687353515624,9.798392109375,18.295587353515625,9.432282109375Q17.929487353515626,9.066162109375,17.411687353515624,9.066162109375L4.588287353515625,9.066162109375L4.588287353515625,8.316162109375L5.338287353515625,8.316162109375L5.338287353515625,16.806152109375Z" fill="#FFCC00" fill-opacity="1"/></g><g><path d="M12.45508392578125,11.633539359375Q12.47159392578125,11.450636359375,12.34827392578125,11.310702359375Q12.21883392578125,11.163818493485,12.02305392578125,11.163818359375Q11.827273925781249,11.163818359375,11.69783392578125,11.310702359375Q11.57452392578125,11.450637359375,11.59103392578125,11.633540359375L11.59103392578125,13.117858359374999L10.10674892578125,13.117858359374999Q9.92383992578125,13.101348359375,9.78390392578125,13.224668359375Q9.63702392578125,13.354108359375001,9.63702392578125,13.549888359375Q9.63702395558355,13.745668359375,9.78390392578125,13.875108359375Q9.92383792578125,13.998428359375,10.10674292578125,13.981918359375L11.59103392578125,13.981918359375L11.59103392578125,15.495178359375L11.59301392578125,15.510828359375001Q11.64104392578125,15.889808359375,12.02305392578125,15.889808359375Q12.40506392578125,15.889808359375,12.45309392578125,15.510828359375001L12.45508392578125,15.495178359375L12.45508392578125,13.981918359375L13.96831392578125,13.981918359375L13.98397392578125,13.979928359375Q14.36294392578125,13.931898359375,14.36294392578125,13.549888359375Q14.36294392578125,13.167878359374999,13.98397392578125,13.119838359375L13.96831392578125,13.117858359374999L12.45508392578125,13.117858359374999L12.45508392578125,11.633539359375Z" fill-rule="evenodd" fill="#FFCC00" fill-opacity="1"/><path d="M14.00912392578125,12.921428359375L13.98094392578125,12.917858359375L12.65508392578125,12.917858359375L12.65508392578125,11.641826359374999Q12.67525392578125,11.379245359375,12.49832392578125,11.178471859375Q12.30916392578125,10.963818359375,12.02305392578125,10.963818359375Q11.736943925781251,10.963818359375,11.54778392578125,11.178472159375Q11.37085392578125,11.379246359375,11.391033925781251,11.641828359375L11.391033925781251,12.917858359375L10.11503892578125,12.917858359375Q9.85244892578125,12.897678359375,9.65167082578125,13.074618359375Q9.43702392578125,13.263778359375,9.43702392578125,13.549888359375Q9.43702392578125,13.835988359375,9.65167102578125,14.025158359375Q9.85244592578125,14.202088359375,10.11502992578125,14.181918359375L11.391033925781251,14.181918359375L11.391033925781251,15.507798359375L11.39460392578125,15.535978359375001Q11.46479392578125,16.089808359375,12.02305392578125,16.089808359375Q12.58131392578125,16.089808359375,12.65151392578125,15.535978359375001L12.65508392578125,15.507798359375L12.65508392578125,14.181918359375L13.98094392578125,14.181918359375L14.00912392578125,14.178348359375Q14.56294392578125,14.108148359375,14.56294392578125,13.549888359375Q14.56294392578125,12.991628359375,14.00912392578125,12.921428359375ZM12.45508392578125,14.181918359375L12.45508392578125,13.981918359375L13.96831392578125,13.981918359375L13.98397392578125,13.979928359375Q14.36294392578125,13.931898359375,14.36294392578125,13.549888359375Q14.36294392578125,13.167878359374999,13.98397392578125,13.119838359375L13.96831392578125,13.117858359374999L12.45508392578125,13.117858359374999L12.45508392578125,11.633539359375Q12.47159392578125,11.450636359375,12.34827392578125,11.310702359375Q12.21883392578125,11.163818359375,12.02305392578125,11.163818359375Q11.827273925781249,11.163818359375,11.69783392578125,11.310702359375Q11.57452392578125,11.450637359375,11.59103392578125,11.633540359375L11.59103392578125,13.117858359374999L10.10674892578125,13.117858359374999Q9.92383992578125,13.101348359375,9.78390392578125,13.224668359375Q9.63702392578125,13.354108359375001,9.63702392578125,13.549888359375Q9.63702392578125,13.745668359375,9.78390392578125,13.875108359375Q9.92383792578125,13.998428359375,10.10674292578125,13.981918359375L11.59103392578125,13.981918359375L11.59103392578125,15.495178359375L11.59301392578125,15.510828359375001Q11.64104392578125,15.889808359375,12.02305392578125,15.889808359375Q12.40506392578125,15.889808359375,12.45309392578125,15.510828359375001L12.45508392578125,15.495178359375L12.45508392578125,14.181918359375Z" fill-rule="evenodd" fill="#FFCC00" fill-opacity="1"/></g><g style="mix-blend-mode:passthrough"><path d="M3.838287353515625,8.31615765625L3.838287353515625,7.34317765625Q3.838287353515625,6.29756765625,4.577647353515625,5.55820765625Q5.317007353515625,4.81884765625,6.362617353515625,4.81884765625L9.825467353515625,4.81884765625Q11.274107353515625,4.81884765625,12.298447353515625,5.84318765625Q13.322787353515626,6.86752765625,13.322787353515626,8.31615765625L13.322787353515626,9.06615765625L3.838287353515625,9.06615765625L3.838287353515625,8.31615765625ZM5.338287353515625,8.31615765625L4.588287353515625,8.31615765625L4.588287353515625,7.56615765625L12.572787353515626,7.56615765625L12.572787353515626,8.31615765625L11.822787353515626,8.31615765625Q11.822787353515626,7.48884765625,11.237787353515625,6.90384765625Q10.652787353515624,6.31884765625,9.825467353515625,6.31884765625L6.362617353515625,6.31884765625Q5.938327353515625,6.31884765625,5.638307353515625,6.61886765625Q5.338287353515625,6.91888765625,5.338287353515625,7.34317765625L5.338287353515625,8.31615765625Z" fill="#FFCC00" fill-opacity="1"/></g></g></svg>