<svg xmlns="http://www.w3.org/2000/svg" xmlns:xlink="http://www.w3.org/1999/xlink" fill="none" version="1.1" width="20" height="20" viewBox="0 0 20 20"><g style="mix-blend-mode:passthrough"><g style="mix-blend-mode:passthrough"><g style="mix-blend-mode:passthrough"><rect x="0" y="0" width="20" height="20" rx="0" fill="#FFFFFF" fill-opacity="0"/></g><g><path d="M5.3333587646484375,9.999952470703125Q5.3333587646484375,11.932952470703125,6.700198764648437,13.299782470703125Q8.067028764648438,14.666582470703124,10.000028764648437,14.666582470703124Q11.933018764648438,14.666582470703124,13.299858764648437,13.299782470703125Q14.666658764648437,11.932942470703125,14.666658764648437,9.999952470703125Q14.666658764648437,8.066952470703125,13.299858764648437,6.700122470703125Q11.933018764648438,5.333282470703125,10.000028764648437,5.333282470703125Q8.067028764648438,5.333282470703125,6.700198764648437,6.700122470703125Q5.3333587646484375,8.066952470703125,5.3333587646484375,9.999952470703125ZM3.8333587646484375,9.999952470703125Q3.8333587646484375,7.445632470703125,5.639538764648437,5.6394624707031245Q7.445708764648438,3.833282470703125,10.000028764648437,3.833282470703125Q12.554348764648438,3.833282470703125,14.360518764648438,5.6394624707031245Q16.16665876464844,7.445632470703125,16.16665876464844,9.999952470703125Q16.16665876464844,12.554262470703126,14.360518764648438,14.360442470703125Q12.554338764648438,16.166582470703126,10.000028764648437,16.166582470703126Q7.445708764648438,16.166582470703126,5.639538764648437,14.360442470703125Q3.8333587646484375,12.554272470703125,3.8333587646484375,9.999952470703125Z" fill="#FFCC00" fill-opacity="1"/></g><g><path d="M10.000028764648437,2.500047529296875C10.575318764648438,2.500047529296875,11.041688764648438,2.0336775292968747,11.041688764648438,1.458387529296875C11.041688764648438,0.883088529296875,10.575318764648438,0.416717529296875,10.000028764648437,0.416717529296875C9.424733764648437,0.416717529296875,8.958358764648438,0.883088529296875,8.958358764648438,1.458387529296875C8.958358764648438,2.0336775292968747,9.424733764648437,2.500047529296875,10.000028764648437,2.500047529296875Z" fill="#FFCC00" fill-opacity="1"/></g><g><path d="M16.04167,5.000047529296875C16.61696,5.000047529296875,17.08333,4.533677529296875,17.08333,3.958387529296875C17.08333,3.383088529296875,16.61696,2.916717529296875,16.04167,2.916717529296875C15.466375,2.916717529296875,15,3.383088529296875,15,3.958387529296875C15,4.533677529296875,15.466375,5.000047529296875,16.04167,5.000047529296875Z" fill="#FFCC00" fill-opacity="1"/></g><g><path d="M18.54167,11.041612470703125C19.11696,11.041612470703125,19.58333,10.575242470703126,19.58333,9.999952470703125C19.58333,9.424653470703126,19.11696,8.958282470703125,18.54167,8.958282470703125C17.966375,8.958282470703125,17.5,9.424653470703126,17.5,9.999952470703125C17.5,10.575242470703126,17.966375,11.041612470703125,18.54167,11.041612470703125Z" fill="#FFCC00" fill-opacity="1"/></g><g><path d="M16.04167,17.08333C16.61696,17.08333,17.08333,16.61696,17.08333,16.04167C17.08333,15.466371,16.61696,15,16.04167,15C15.466375,15,15,15.466371,15,16.04167C15,16.61696,15.466375,17.08333,16.04167,17.08333Z" fill="#FFCC00" fill-opacity="1"/></g><g><path d="M10.000028764648437,19.58333C10.575318764648438,19.58333,11.041688764648438,19.11696,11.041688764648438,18.54167C11.041688764648438,17.966371,10.575318764648438,17.5,10.000028764648437,17.5C9.424733764648437,17.5,8.958358764648438,17.966371,8.958358764648438,18.54167C8.958358764648438,19.11696,9.424733764648437,19.58333,10.000028764648437,19.58333Z" fill="#FFCC00" fill-opacity="1"/></g><g><path d="M3.9583112353515624,17.08333C4.533601235351562,17.08333,4.999971235351563,16.61696,4.999971235351563,16.04167C4.999971235351563,15.466371,4.533601235351562,15,3.9583112353515624,15C3.3830162353515627,15,2.9166412353515625,15.466371,2.9166412353515625,16.04167C2.9166412353515625,16.61696,3.3830162353515627,17.08333,3.9583112353515624,17.08333Z" fill="#FFCC00" fill-opacity="1"/></g><g><path d="M1.4583112353515626,11.041612470703125C2.0336012353515622,11.041612470703125,2.4999712353515626,10.575242470703126,2.4999712353515626,9.999952470703125C2.4999712353515626,9.424653470703126,2.0336012353515622,8.958282470703125,1.4583112353515626,8.958282470703125C0.8830162353515625,8.958282470703125,0.4166412353515625,9.424653470703126,0.4166412353515625,9.999952470703125C0.4166412353515625,10.575242470703126,0.8830162353515625,11.041612470703125,1.4583112353515626,11.041612470703125Z" fill="#FFCC00" fill-opacity="1"/></g><g><path d="M3.9583112353515624,5.000047529296875C4.533601235351562,5.000047529296875,4.999971235351563,4.533677529296875,4.999971235351563,3.958387529296875C4.999971235351563,3.383088529296875,4.533601235351562,2.916717529296875,3.9583112353515624,2.916717529296875C3.3830162353515627,2.916717529296875,2.9166412353515625,3.383088529296875,2.9166412353515625,3.958387529296875C2.9166412353515625,4.533677529296875,3.3830162353515627,5.000047529296875,3.9583112353515624,5.000047529296875Z" fill="#FFCC00" fill-opacity="1"/></g></g></g></svg>