<svg xmlns="http://www.w3.org/2000/svg" xmlns:xlink="http://www.w3.org/1999/xlink" fill="none" version="1.1" width="16" height="16" viewBox="0 0 16 16"><g style="mix-blend-mode:passthrough"><g style="mix-blend-mode:passthrough"><g><path d="M8.3841000390625,8.968200156249999L10.1315500390625,8.968200156249999C10.2232300390625,8.97982015625,10.2919600390625,9.05781015625,10.2919600390625,9.15023015625C10.2919600390625,9.24264015625,10.2232300390625,9.32064015625,10.1315500390625,9.33226015625L8.3841000390625,9.33226015625L8.3841000390625,11.07974015625C8.3724800390625,11.17142015625,8.2944900390625,11.24015015625,8.2020700390625,11.24015015625C8.1096600390625,11.24015015625,8.0316700390625,11.17142015625,8.0200500390625,11.07974015625L8.0200500390625,9.33226015625L6.2725930390624995,9.33226015625C6.1629793390625,9.34615015625,6.0660400390625,9.26072015625,6.0660400390625,9.15023015625C6.0660400390625,9.03973015625,6.1629794390625,8.95431015625,6.2725930390624995,8.968200156249999L8.0200500390625,8.968200156249999L8.0200500390625,7.22071715625C8.0061500390625,7.11110115625,8.0915800390625,7.01416015625,8.2020700390625,7.01416015625C8.3125600390625,7.0141602430484,8.397990039062499,7.11110115625,8.3841000390625,7.22071715625L8.3841000390625,8.968200156249999Z" fill="#3662EC" fill-opacity="1"/><path d="M8.5532400390625,7.22071715625L8.5532400390625,8.968200156249999L8.3841000390625,8.968200156249999L8.3841000390625,8.79905015625L10.1422300390625,8.79905015625L10.152820039062501,8.80040015625Q10.4611100390625,8.83947015625,10.4611100390625,9.15023015625Q10.4611100390625,9.46098015625,10.152820039062501,9.50006015625L10.1422300390625,9.50140015625L8.3841000390625,9.50140015625L8.3841000390625,9.33226015625L8.5532400390625,9.33226015625L8.5532400390625,11.09041015625L8.5519000390625,11.10101015625Q8.5128300390625,11.40930015625,8.2020700390625,11.40930015625Q7.8913200390625,11.40930015625,7.8522400390625,11.10101015625L7.8509000390625,11.090420156250001L7.8509000390625,9.33226015625L8.0200500390625,9.33226015625L8.0200500390625,9.50140015625L6.2725930390624995,9.50140015625L6.2725930390624995,9.33226015625L6.2938610390625,9.50006015625Q6.1358636390625,9.52008015625,6.0163792390625,9.41479015625Q5.8968960390625,9.30949015625,5.8968960390625,9.15023015625Q5.8968960390625,8.99097015625,6.0163791390625,8.88567015625Q6.1358638390625,8.780370156250001,6.2938610390625,8.80040015625L6.2725930390624995,8.968200156249999L6.2725930390624995,8.79905015625L8.0200500390625,8.79905015625L8.0200500390625,8.968200156249999L7.8509000390625,8.968200156249999L7.8509000390625,7.22071715625L8.0200500390625,7.22071715625L7.8522400390625,7.24198415625Q7.8322200390625,7.08398725625,7.9375100390625,6.96450255625Q8.0428100390625,6.84501615625,8.2020700390625,6.84501615625Q8.3613300390625,6.84501615625,8.4666300390625,6.96450245625Q8.5719200390625,7.08398745625,8.5519000390625,7.24198415625L8.3841000390625,7.22071715625L8.5532400390625,7.22071715625ZM8.2149500390625,7.22071715625L8.2149500390625,7.21004115625L8.2163000390625,7.19945015625Q8.2171100390625,7.19302215625,8.2128300390625,7.18816315625Q8.2085500390625,7.18330415625,8.2020700390625,7.18330415625Q8.1956000390625,7.18330415625,8.1913200390625,7.18816315625Q8.187030039062499,7.19302315625,8.1878500390625,7.19945015625L8.189190039062499,7.21004115625L8.189190039062499,9.13734015625L6.2619170390625,9.13734015625L6.2513250390625,9.13600015625Q6.2449020390625,9.135190156250001,6.2400440390625,9.139470156249999Q6.2351840390625,9.14375015625,6.2351840390625,9.15023015625Q6.2351840390625,9.15671015625,6.2400440390625,9.16099015625Q6.2449020390625,9.16527015625,6.2513260390625,9.16446015625L6.2619170390625,9.16311015625L8.189190039062499,9.16311015625L8.189190039062499,11.07974015625L8.0200500390625,11.07974015625L8.1878500390625,11.05847015625Q8.1894400390625,11.07101015625,8.2020700390625,11.07101015625Q8.2147100390625,11.07101015625,8.2163000390625,11.05847015625L8.3841000390625,11.07974015625L8.2149500390625,11.07974015625L8.2149500390625,9.16311015625L10.1315500390625,9.16311015625L10.1315500390625,9.33226015625L10.1102800390625,9.16446015625Q10.1228200390625,9.16287015625,10.1228200390625,9.15023015625Q10.1228200390625,9.137590156249999,10.1102800390625,9.13600015625L10.1315500390625,8.968200156249999L10.1315500390625,9.13734015625L8.2149500390625,9.13734015625L8.2149500390625,7.22071715625Z" fill="#3662EC" fill-opacity="1"/></g><g><path d="M2.92974853515625,4.0697165625L8.69498853515625,4.0697165625C8.52847853515625,3.3559065625,7.94119853515625,2.8284705624999997,7.24224853515625,2.8284705624999997L3.30473853515625,2.8284705624999997C3.09763853515625,2.8284705624999997,2.92974853515625,3.0137065625,2.92974853515625,3.2422265625L2.92974853515625,4.0697065625L2.92974853515625,4.0697165625ZM9.46113853515625,4.0697165625L13.05474853515625,4.0697165625C13.67604853515625,4.0697165625,14.17974853515625,4.6254265624999995,14.17974853515625,5.3109465625L14.17974853515625,12.7583765625C14.17974853515625,13.4438765625,13.67604853515625,13.9996765625,13.05474853515625,13.9996765625L3.30475853515625,13.9996765625C2.68343153515625,13.9996765625,2.17974853515625,13.4438765625,2.17974853515625,12.7583765625L2.17974853515625,3.2422065625C2.17974853515625,2.5567025625,2.68343153515625,2.0009765625,3.30475853515625,2.0009765625L7.24222853515625,2.0009765625C8.35710853515625,2.0009765625,9.28258853515625,2.8956135625,9.46112853515625,4.0697165625L9.46113853515625,4.0697165625ZM9.49224853515625,4.8972065625L2.92974853515625,4.8972065625L2.92974853515625,12.7583765625C2.92974853515625,12.9868765625,3.09763853515625,13.1721765625,3.30475853515625,13.1721765625L13.05474853515625,13.1721765625C13.26184853515625,13.1721765625,13.42974853515625,12.9868765625,13.42974853515625,12.7583765625L13.42974853515625,5.3109465625C13.42974853515625,5.0824465624999995,13.26184853515625,4.8971965625,13.05474853515625,4.8971965625L9.49225853515625,4.8971965625L9.49224853515625,4.8972065625Z" fill="#3662EC" fill-opacity="1"/><path d="M9.49225853515625,4.7971965625L13.05474853515625,4.7971965625Q13.25444853515625,4.7971965625,13.39404853515625,4.9512265625000005Q13.52974853515625,5.100996562500001,13.52974853515625,5.3109465625L13.52974853515625,12.7583765625Q13.52974853515625,12.9683765625,13.39404853515625,13.1180765625Q13.25444853515625,13.2721765625,13.05474853515625,13.2721765625L3.30475853515625,13.2721765625Q3.10509353515625,13.2721765625,2.96548753515625,13.1180765625Q2.82974853515625,12.9683765625,2.82974853515625,12.7583765625L2.82974853515625,4.7972165625L9.49224853515625,4.7972165625L9.49224853515625,4.997206562500001L2.92974853515625,4.997206562500001L2.92974853515625,4.8972065625L3.02974853515625,4.8972065625L3.02974853515625,12.7583765625Q3.02974853515625,13.0721765625,3.30475853515625,13.0721765625L13.05474853515625,13.0721765625Q13.16574853515625,13.0721765625,13.24584853515625,12.9837765625Q13.32974853515625,12.8911765625,13.32974853515625,12.7583765625L13.32974853515625,5.3109465625Q13.32974853515625,5.1781465625,13.24584853515625,5.0855365625Q13.16574853515625,4.9971965625,13.05474853515625,4.9971965625L9.49225853515625,4.9971965625L9.49225853515625,4.7971965625ZM9.36226853515625,4.0847565625Q9.232548535156251,3.2317165625,8.63421853515625,2.6678325625Q8.03274853515625,2.1009764625,7.24222853515625,2.1009765625L3.30475853515625,2.1009765625Q2.88308953515625,2.1009765625,2.5833505351562502,2.4316845625Q2.27974853515625,2.7666525625,2.27974853515625,3.2422065625L2.27974853515625,12.7583765625Q2.27974853515625,13.2339765625,2.5833505351562502,13.5689765625Q2.88309253515625,13.8996765625,3.30475853515625,13.8996765625L13.05474853515625,13.8996765625Q13.47644853515625,13.8996765625,13.77614853515625,13.5689765625Q14.07974853515625,13.2339765625,14.07974853515625,12.7583765625L14.07974853515625,5.3109465625Q14.07974853515625,4.8353865625,13.77614853515625,4.5004165625Q13.47644853515625,4.1697165625,13.05474853515625,4.1697165625L9.46113853515625,4.1697165625L9.46113853515625,3.9697165625L13.05474853515625,3.9697165625Q13.56504853515625,3.9697165625,13.92434853515625,4.366106562500001Q14.27974853515625,4.7582365625000005,14.27974853515625,5.3109465625L14.27974853515625,12.7583765625Q14.27974853515625,13.3110765625,13.92434853515625,13.7032765625Q13.56504853515625,14.0996765625,13.05474853515625,14.0996765625L3.30475853515625,14.0996765625Q2.79443953515625,14.0996765625,2.4351605351562498,13.7032765625Q2.07974853515625,13.3110765625,2.07974853515625,12.7583765625L2.07974853515625,3.2422065625Q2.07974853515625,2.6895035625,2.4351605351562498,2.2973715625Q2.79443653515625,1.9009765625,3.30475853515625,1.9009765625L7.24222853515625,1.9009765625Q8.11213853515625,1.9009765625,8.77139853515625,2.5222835625Q9.41989853515625,3.1334665624999998,9.55998853515625,4.054686562500001L9.36226853515625,4.0847565625ZM2.82974853515625,4.0697065625L2.82974853515625,3.2422265625Q2.82974853515625,3.0322665625000003,2.96548553515625,2.8824985625Q3.10508553515625,2.7284705625,3.30473853515625,2.7284705625L7.24224853515625,2.7284705625Q7.79850853515625,2.7284695625,8.23378853515625,3.1058565625Q8.658788535156251,3.4743265625,8.79237853515625,4.0469965625L8.82099853515625,4.1697165625L2.92974853515625,4.1697165625L2.92974853515625,3.9697165625L8.69498853515625,3.9697165625L8.69498853515625,4.0697165625L8.597608535156251,4.0924365625Q8.478758535156249,3.5829465625,8.10277853515625,3.2569665624999997Q7.72387853515625,2.9284705625000003,7.24224853515625,2.9284705625000003L3.30473853515625,2.9284705625000003Q3.1937385351562497,2.9284705625000003,3.11367753515625,3.0168065625000002Q3.02974853515625,3.1094065625000002,3.02974853515625,3.2422265625L3.02974853515625,4.0697065625L2.82974853515625,4.0697065625Z" fill="#3662EC" fill-opacity="1"/></g></g><g style="mix-blend-mode:passthrough"><rect x="0" y="0" width="16" height="16" rx="0" fill="#FFFFFF" fill-opacity="0"/></g></g></svg>