<svg xmlns="http://www.w3.org/2000/svg" xmlns:xlink="http://www.w3.org/1999/xlink" fill="none" version="1.1" width="24" height="24" viewBox="0 0 24 24"><g style="mix-blend-mode:passthrough"><g style="mix-blend-mode:passthrough"><rect x="0" y="0" width="24" height="24" rx="4" fill="#FFF9E5" fill-opacity="0.8999999761581421"/></g><g style="mix-blend-mode:passthrough"><g><path d="M7.943787173828125,10.46687903125C7.943787173828125,10.46687903125,7.913878173828125,10.46783203125,7.913878173828125,10.46783203125C7.654304173828125,10.46783203125,7.443878173828125,10.25740603125,7.443878173828125,9.99783203125C7.443878173828125,9.73825803125,7.654304173828125,9.52783203125,7.913878173828125,9.52783203125C7.913878173828125,9.52783203125,7.943787173828125,9.52878466225,7.943787173828125,9.52878466225L9.760158173828124,9.52878466225C9.760158173828124,9.52878466225,9.790068173828125,9.52783203125,9.790068173828125,9.52783203125C10.049638173828125,9.52783203125,10.260068173828126,9.73825803125,10.260068173828126,9.99783203125C10.260068173828126,10.25740603125,10.049638173828125,10.46783203125,9.790068173828125,10.46783203125C9.790068173828125,10.46783203125,9.760158173828124,10.46687903125,9.760158173828124,10.46687903125L7.943787173828125,10.46687903125Z" fill-rule="evenodd" fill="#FFCC00" fill-opacity="1"/><path d="M9.760158173828124,10.66688203125L7.943787173828125,10.66688203125L7.943787173828125,10.46687903125L7.950154173828125,10.66678203125L7.917062173828125,10.66783203125L7.913878173828125,10.66783203125Q7.636355173828125,10.66783203125,7.440116603828125,10.47159303125Q7.243878173828125,10.27535503125,7.243878173828125,9.99783203125Q7.243878173828125,9.72030903125,7.440116613828125,9.52407046125Q7.636355173828125,9.32783203125,7.913878173828125,9.32783203125L7.917062173828125,9.32783203125L7.950154173828125,9.32888603125L7.943787173828125,9.52878466225L7.943787173828125,9.32878503125L9.760158173828124,9.32878503125L9.760158173828124,9.52878466225L9.753788173828125,9.32888603125L9.786888173828125,9.32783203125L9.790068173828125,9.32783203125Q10.067588173828124,9.32783203125,10.263828173828125,9.52407047125Q10.460068173828125,9.72030903125,10.460068173828125,9.99783203125Q10.460068173828125,10.27535503125,10.263828173828125,10.47159403125Q10.067588173828124,10.66783203125,9.790068173828125,10.66783203125L9.786888173828125,10.66783203125L9.753788173828125,10.66678203125L9.760158173828124,10.46687903125L9.760158173828124,10.66688203125ZM9.760158173828124,10.26687903125L9.763338173828124,10.26687903125L9.796438173828125,10.26793303125L9.790068173828125,10.46783203125L9.790068173828125,10.26783203125Q10.060068173828125,10.26783203125,10.060068173828125,9.99783203125Q10.060068173828125,9.72783203125,9.790068173828125,9.72783203125L9.790068173828125,9.52783203125L9.796438173828125,9.72773103125L9.763338173828124,9.72878503125L7.940603173828125,9.72878503125L7.907511173828125,9.72773103125L7.913878173828125,9.52783203125L7.913878173828125,9.72783203125Q7.802040173828125,9.72783203125,7.722959173828125,9.80691303125Q7.643878173828125,9.88599403125,7.643878173828125,9.99783203125Q7.643878173828125,10.26783203125,7.913878173828125,10.26783203125L7.913878173828125,10.46783203125L7.907511173828125,10.26793303125L7.940603173828125,10.26687903125L9.760158173828124,10.26687903125Z" fill="#FFCC00" fill-opacity="1"/></g><g><path d="M7.943787173828125,13.214437625C7.943787173828125,13.214437625,7.913878173828125,13.215390625,7.913878173828125,13.215390625C7.654304173828125,13.215390625,7.443878173828125,13.004964625,7.443878173828125,12.745390625C7.443878173828125,12.485816625,7.654304173828125,12.275390625,7.913878173828125,12.275390625C7.913878173828125,12.275390625,7.943787173828125,12.276343256,7.943787173828125,12.276343256L12.105388173828125,12.276343256C12.105388173828125,12.276343256,12.135298173828126,12.275390625,12.135298173828126,12.275390625C12.394878173828126,12.275390625,12.605298173828125,12.485816625,12.605298173828125,12.745390625C12.605298173828125,13.004964625,12.394878173828126,13.215390625,12.135298173828126,13.215390625C12.135298173828126,13.215390625,12.105388173828125,13.214437625,12.105388173828125,13.214437625L7.943787173828125,13.214437625Z" fill-rule="evenodd" fill="#FFCC00" fill-opacity="1"/><path d="M12.105388173828125,13.414440625L7.943787173828125,13.414440625L7.943787173828125,13.214437625L7.950154173828125,13.414340625L7.917062173828125,13.415390625L7.913878173828125,13.415390625Q7.636355173828125,13.415390625,7.440116603828125,13.219151625Q7.243878173828125,13.022913625,7.243878173828125,12.745390625Q7.243878173828125,12.467867625,7.440116613828125,12.271629055Q7.636355173828125,12.075390625,7.913878173828125,12.075390625L7.917062173828125,12.075390625L7.950154173828125,12.076444625L7.943787173828125,12.276343256L7.943787173828125,12.076343625L12.105388173828125,12.076343625L12.105388173828125,12.276343256L12.099028173828124,12.076444625L12.132118173828125,12.075390625L12.135298173828126,12.075390625Q12.412828173828125,12.075390625,12.609058173828124,12.271629125Q12.805298173828124,12.467867625,12.805298173828124,12.745390625Q12.805298173828124,13.022913625,12.609058173828124,13.219152625Q12.412828173828125,13.415390625,12.135298173828126,13.415390625L12.132118173828125,13.415390625L12.099028173828124,13.414340625L12.105388173828125,13.214437625L12.105388173828125,13.414440625ZM12.105388173828125,13.014437625L12.108578173828125,13.014437625L12.141668173828126,13.015491625L12.135298173828126,13.215390625L12.135298173828126,13.015390625Q12.405298173828125,13.015390625,12.405298173828125,12.745390625Q12.405298173828125,12.475390625,12.135298173828126,12.475390625L12.135298173828126,12.275390625L12.141668173828126,12.475289625L12.108578173828125,12.476343625L7.940603173828125,12.476343625L7.907511173828125,12.475289625L7.913878173828125,12.275390625L7.913878173828125,12.475390625Q7.802040173828125,12.475390625,7.722959173828125,12.554471625Q7.643878173828125,12.633552625,7.643878173828125,12.745390625Q7.643878173828125,13.015390625,7.913878173828125,13.015390625L7.913878173828125,13.215390625L7.907511173828125,13.015491625L7.940603173828125,13.014437625L12.105388173828125,13.014437625Z" fill="#FFCC00" fill-opacity="1"/></g><g><path d="M17.90766203125,13.58098990625Q17.926902031250002,13.37076090625,17.78521203125,13.20998390625Q17.63674203125,13.041504072415,17.41217203125,13.04150390625Q17.18761203125,13.0415039394829,17.03913203125,13.20998390625Q16.89745203125,13.37076090625,16.91668203125,13.58099090625L16.91668203125,15.367863906250001L15.12981803125,15.367863906250001Q14.91958903125,15.34862390625,14.75881203125,15.49030390625Q14.59033203125,15.63878390625,14.5903320478664,15.86335390625Q14.59033203125,16.08791390625,14.75881203125,16.23639390625Q14.91958903125,16.378073906250002,15.12981803125,16.35884390625L16.91668203125,16.35884390625L16.91668203125,18.17810390625L16.91890203125,18.19556390625Q16.97399203125,18.63026390625,17.41217203125,18.63026390625Q17.85035203125,18.63026390625,17.90545203125,18.195553906249998L17.90766203125,18.17810390625L17.90766203125,16.35884390625L19.726922031249998,16.35884390625L19.744382031249998,16.35662390625Q20.17908203125,16.30153390625,20.17908203125,15.86335390625Q20.17908203125,15.42517390625,19.744382031249998,15.37007390625L19.726922031249998,15.367863906250001L17.90766203125,15.367863906250001L17.90766203125,13.58098990625Z" fill-rule="evenodd" fill="#FFCC00" fill-opacity="1"/><path d="M17.80766203125,15.367863906250001L17.80766203125,13.57642490625L17.80808203125,13.57187890625Q17.823392031250002,13.40455390625,17.71019203125,13.27609990625Q17.59157203125,13.14150390625,17.41217203125,13.14150390625Q17.23277203125,13.14150390625,17.11416203125,13.27609990625Q17.00096203125,13.40455390625,17.01627203125,13.57187890625L17.01668203125,13.57642590625L17.01668203125,15.467863906249999L15.12525203125,15.467863906249999L15.12070603125,15.46744390625Q14.95338103125,15.45213390625,14.82492803125,15.56533390625Q14.69033203125,15.68394390625,14.69033203125,15.86335390625Q14.69033203125,16.04275390625,14.82492803125,16.16136390625Q14.95338103125,16.274563906250002,15.12070603125,16.25925390625L15.12525303125,16.25884390625L17.01668203125,16.25884390625L17.01668203125,18.17810390625L16.91668203125,18.17810390625L17.01589203125,18.16552390625L17.01810203125,18.18298390625Q17.06212203125,18.53026390625,17.41217203125,18.53026390625Q17.76223203125,18.53026390625,17.80624203125,18.18298390625L17.80846203125,18.16552390625L17.90766203125,18.17810390625L17.80766203125,18.17810390625L17.80766203125,16.25884390625L19.726922031249998,16.25884390625L19.726922031249998,16.35884390625L19.71435203125,16.25963390625L19.731802031249998,16.25742390625Q20.07908203125,16.21340390625,20.07908203125,15.86335390625Q20.07908203125,15.51329390625,19.731802031249998,15.46927390625L19.71435203125,15.46706390625L19.726922031249998,15.367863906250001L19.726922031249998,15.467863906249999L17.80766203125,15.467863906249999L17.80766203125,15.367863906250001ZM18.00766203125,15.367863906250001L17.90766203125,15.367863906250001L17.90766203125,15.26786390625L19.73323203125,15.26786390625L19.75695203125,15.27086390625Q20.27908203125,15.337043906249999,20.27908203125,15.86335390625Q20.27908203125,16.38965390625,19.75695203125,16.45583390625L19.73323203125,16.45884390625L17.90766203125,16.45884390625L17.90766203125,16.35884390625L18.00766203125,16.35884390625L18.00766203125,18.18441390625L18.00466203125,18.208133906249998Q17.93848203125,18.730263906250002,17.41217203125,18.730263906250002Q16.88587203125,18.730263906250002,16.81969203125,18.208133906249998L16.81668203125,18.18441390625L16.81668203125,16.35884390625L16.91668203125,16.35884390625L16.91668203125,16.45884390625L15.12981803125,16.45884390625L15.12981803125,16.35884390625L15.13893003125,16.45842390625Q14.88579603125,16.481583906250002,14.69269603125,16.31141390625Q14.49033203125,16.13308390625,14.49033203125,15.86335390625Q14.49033203125,15.593613906249999,14.69269603125,15.41528390625Q14.88579703125,15.24511390625,15.13893003125,15.26827390625L15.12981803125,15.367863906250001L15.12981803125,15.26786390625L16.91668203125,15.26786390625L16.91668203125,15.367863906250001L16.81668203125,15.367863906250001L16.81668203125,13.58099090625L16.91668203125,13.58099090625L16.817102031250002,13.59010290625Q16.79394203125,13.33696890625,16.96411203125,13.14386790625Q17.14244203125,12.94150400625,17.41217203125,12.94150390625Q17.68190203125,12.94150410625,17.86024203125,13.14386790625Q18.030412031250002,13.33696890625,18.00725203125,13.59010190625L17.90766203125,13.58098990625L18.00766203125,13.58098990625L18.00766203125,15.367863906250001Z" fill="#FFCC00" fill-opacity="1"/></g><g><path d="M12.695864638671875,17.239220312500002L10.893694638671874,17.239220312500002L10.893714638671874,16.489220312500002L11.282724638671876,17.1304203125L8.209204638671874,18.9950203125Q8.146054638671874,19.033320312500003,8.076634638671875,19.0585203125Q8.007214638671876,19.083820312500002,7.934204638671876,19.0950203125Q7.861194638671876,19.1063203125,7.787394638671875,19.1030203125Q7.713604638671875,19.0998203125,7.641854638671875,19.0822203125Q7.570104638671875,19.0647203125,7.503154638671875,19.0334203125Q7.436214638671875,19.0022203125,7.376644638671875,18.9585203125Q7.317084638671875,18.914820312499998,7.267184638671875,18.8604203125Q7.217284638671876,18.8059203125,7.178974638671875,18.742720312499998Q7.070204638671875,18.5634203125,7.070204638671875,18.353720312500002L7.070204638671875,16.489220312500002L7.820204638671875,16.489220312500002L7.8202146386718745,17.239220312500002L5.586054638671875,17.239220312500002Q4.695479638671875,17.2393203125,4.065742638671875,16.609520312500003Q3.436004638671875,15.9798303125,3.436004638671875,15.0892603125L3.436004638671875,7.7408203125Q3.436004638671875,6.8502613125,4.065724638671875,6.2205403125Q4.695445638671875,5.5908203125,5.586004638671875,5.5908203125L17.065104638671876,5.5908203125Q17.955604638671876,5.5908203125,18.585304638671875,6.2205413125Q19.215104638671875,6.8502613125,19.215104638671875,7.7408203125L19.215104638671875,10.9668603125L17.715104638671875,10.9668603125L17.715104638671875,7.7408203125Q17.715104638671875,7.4715803125,17.524704638671874,7.2812003125Q17.334304638671874,7.0908203125,17.065104638671876,7.0908203125L5.586004638671875,7.0908203125Q5.316764638671875,7.0908203125,5.126385638671875,7.2812013125Q4.936004638671875,7.4715803125,4.936004638671875,7.7408203125L4.936004638671875,15.0892603125Q4.936004638671875,15.3585003125,5.126390638671875,15.5488803125Q5.316774638671875,15.7392603125,5.586024638671875,15.7392603125L7.820204638671875,15.7392003125Q7.894074638671875,15.7392003125,7.966514638671875,15.7536203125Q8.038964638671874,15.7680303125,8.107214638671875,15.7962903125Q8.175454638671875,15.8245603125,8.236874638671875,15.8656003125Q8.298294638671875,15.9066403125,8.350534638671874,15.9588703125Q8.402764638671876,16.0111103125,8.443804638671875,16.0725203125Q8.484844638671875,16.133940312500002,8.513114638671876,16.2021903125Q8.541374638671876,16.2704403125,8.555794638671875,16.3429203125Q8.570204638671875,16.4153203125,8.570204638671875,16.489220312500002L8.570204638671875,18.353720312500002L7.820204638671875,18.353720312500002L7.431194638671875,17.7125203125L10.504714638671874,15.8479703125Q10.684014638671876,15.7392003125,10.893744638671876,15.7392003125L12.695904638671875,15.7392603125L12.695864638671875,17.239220312500002ZM19.215104638671875,10.9668603125Q19.215104638671875,11.0407303125,19.200604638671877,11.113180312499999Q19.186204638671875,11.185630312499999,19.158004638671876,11.2538803125Q19.129704638671875,11.322120312500001,19.088704638671874,11.3835403125Q19.047604638671874,11.444960312500001,18.995404638671875,11.497190312499999Q18.943104638671876,11.5494303125,18.881704638671877,11.590470312499999Q18.820304638671875,11.6315103125,18.752104638671874,11.659770312500001Q18.683804638671873,11.6880403125,18.611404638671875,11.7024503125Q18.538904638671873,11.7168603125,18.465104638671875,11.7168603125Q18.391204638671873,11.7168603125,18.318704638671875,11.7024503125Q18.246304638671873,11.6880403125,18.178004638671876,11.659770312500001Q18.109804638671875,11.6315103125,18.048404638671876,11.590470312499999Q17.987004638671877,11.5494303125,17.934704638671874,11.497190312499999Q17.882504638671875,11.444960312500001,17.841404638671875,11.3835403125Q17.800404638671875,11.322120312500001,17.772104638671877,11.2538803125Q17.743904638671875,11.185630312499999,17.729504638671877,11.113180312499999Q17.715104638671875,11.0407303125,17.715104638671875,10.9668603125Q17.715104638671875,10.8930003125,17.729504638671877,10.8205503125Q17.743904638671875,10.7481003125,17.772104638671877,10.679850312500001Q17.800404638671875,10.6116103125,17.841404638671875,10.5501903125Q17.882504638671875,10.4887703125,17.934704638671874,10.4365303125Q17.987004638671877,10.384300312499999,18.048404638671876,10.3432603125Q18.109804638671875,10.3022203125,18.178004638671876,10.2739503125Q18.246304638671873,10.245690312499999,18.318704638671875,10.231280312500001Q18.391204638671873,10.2168603125,18.465104638671875,10.2168603125Q18.538904638671873,10.2168603125,18.611404638671875,10.231280312500001Q18.683804638671873,10.245690312499999,18.752104638671874,10.2739503125Q18.820304638671875,10.3022203125,18.881704638671877,10.3432603125Q18.943104638671876,10.384300312499999,18.995404638671875,10.4365303125Q19.047604638671874,10.4887703125,19.088704638671874,10.5501903125Q19.129704638671875,10.6116103125,19.158004638671876,10.679850312500001Q19.186204638671875,10.7481003125,19.200604638671877,10.8205503125Q19.215104638671875,10.8930003125,19.215104638671875,10.9668603125ZM13.445884638671876,16.489220312500002Q13.445884638671876,16.5631203125,13.431474638671874,16.635620312500002Q13.417064638671874,16.7080203125,13.388794638671875,16.7762203125Q13.360524638671874,16.844520312500002,13.319484638671875,16.9059203125Q13.278444638671875,16.9673203125,13.226214638671875,17.019620312500003Q13.173984638671875,17.0718203125,13.112564638671875,17.1128203125Q13.051144638671875,17.1539203125,12.982894638671874,17.1821203125Q12.914654638671875,17.2104203125,12.842204638671875,17.2248203125Q12.769754638671875,17.239220312500002,12.695884638671876,17.239220312500002Q12.622014638671875,17.239220312500002,12.549564638671875,17.2248203125Q12.477114638671875,17.2104203125,12.408874638671875,17.1821203125Q12.340624638671875,17.1539203125,12.279204638671875,17.1128203125Q12.217784638671874,17.0718203125,12.165554638671875,17.019620312500003Q12.113324638671875,16.9673203125,12.072284638671874,16.9059203125Q12.031244638671875,16.844520312500002,12.002974638671876,16.7762203125Q11.974704638671875,16.7080203125,11.960294638671876,16.635620312500002Q11.945884638671874,16.5631203125,11.945884638671874,16.489220312500002Q11.945884638671874,16.4154203125,11.960294638671876,16.3429203125Q11.974704638671875,16.2704903125,12.002974638671876,16.202240312500003Q12.031244638671875,16.1340003125,12.072284638671874,16.0725803125Q12.113324638671875,16.0111603125,12.165554638671875,15.9589303125Q12.217784638671874,15.9066903125,12.279204638671875,15.8656503125Q12.340624638671875,15.8246203125,12.408874638671875,15.7963503125Q12.477114638671875,15.7680803125,12.549564638671875,15.7536703125Q12.622014638671875,15.7392603125,12.695884638671876,15.7392603125Q12.769754638671875,15.7392603125,12.842204638671875,15.7536703125Q12.914654638671875,15.7680803125,12.982894638671874,15.7963503125Q13.051144638671875,15.8246203125,13.112564638671875,15.8656503125Q13.173984638671875,15.9066903125,13.226214638671875,15.9589303125Q13.278444638671875,16.0111603125,13.319484638671875,16.0725803125Q13.360524638671874,16.1340003125,13.388794638671875,16.202240312500003Q13.417064638671874,16.2704903125,13.431474638671874,16.3429203125Q13.445884638671876,16.4154203125,13.445884638671876,16.489220312500002Z" fill="#FFCC00" fill-opacity="1"/></g></g></g></svg>