<svg xmlns="http://www.w3.org/2000/svg" xmlns:xlink="http://www.w3.org/1999/xlink" fill="none" version="1.1" width="16" height="16" viewBox="0 0 16 16"><defs><clipPath id="master_svg0_1003_12866"><rect x="0" y="0" width="16" height="16" rx="0"/></clipPath></defs><g clip-path="url(#master_svg0_1003_12866)"><g><path d="M1.333496928215,8.00016609375C1.333496928215,4.3181660937499995,4.31749609375,1.33349609375,8.00016609375,1.33349609375C11.68219609375,1.33349609375,14.66679609375,4.31749609375,14.66679609375,8.00016609375C14.66679609375,11.68219609375,11.68279609375,14.66679609375,8.00016609375,14.66679609375C4.3181660937499995,14.66679609375,1.333496570587,11.68279609375,1.333496928215,8.00016609375ZM8.00016609375,7.52882609375L6.34882609375,5.87716609375C6.21858609375,5.74782609375,6.00815609375,5.74857609375,5.87882609375,5.87882609375C5.74802609375,6.00792609375,5.74727609375,6.21881609375,5.87716609375,6.34882609375L7.52882609375,8.00016609375L5.87716609375,9.65149609375C5.74783609375,9.78174609375,5.74857609375,9.99217609375,5.87882609375,10.12149609375C6.00792609375,10.25230609375,6.21881609375,10.25304609375,6.34882609375,10.12316609375L8.00016609375,8.47149609375L9.65149609375,10.12316609375C9.78174609375,10.25249609375,9.99217609375,10.25174609375,10.12149609375,10.12149609375C10.25230609375,9.99240609375,10.25305609375,9.78151609375,10.12316609375,9.65149609375L8.47149609375,8.00016609375L10.12316609375,6.34882609375C10.25249609375,6.21858609375,10.25174609375,6.00815609375,10.12149609375,5.87882609375C9.99240609375,5.74802609375,9.78151609375,5.74727609375,9.65149609375,5.87716609375L8.00016609375,7.52882609375Z" fill="#000000" fill-opacity="0.3400000035762787"/></g></g></svg>