<svg xmlns="http://www.w3.org/2000/svg" xmlns:xlink="http://www.w3.org/1999/xlink" fill="none" version="1.1" width="15.8316650390625" height="16" viewBox="0 0 15.8316650390625 16"><g style="mix-blend-mode:passthrough"><rect x="0" y="0" width="15.831670761108398" height="15.999897956848145" rx="0" fill="#FFFFFF" fill-opacity="0"/><g style="mix-blend-mode:passthrough"><g style="mix-blend-mode:passthrough"><g><path d="M13.27703271484375,5.96751203125L13.27703271484375,2.52783203125L13.74603271484375,2.52783203125L13.74603271484375,2.9968790312499998L1.74603271484375,2.9968790312499998L1.74603271484375,2.52783203125L2.2150797148437498,2.52783203125L2.2150797148437498,11.90878203125L1.74603271484375,11.90878203125L1.74603271484375,11.43973203125L3.84603271484375,11.43973203125Q3.89223271484375,11.43973203125,3.93754271484375,11.44874203125Q3.98285271484375,11.45775203125,4.0255327148437505,11.47543203125Q4.0682127148437495,11.49311203125,4.10662271484375,11.51878203125Q4.14503271484375,11.54444203125,4.17770271484375,11.57711203125Q4.21036271484375,11.60978203125,4.23603271484375,11.64819203125Q4.2616927148437505,11.68660203125,4.27937271484375,11.72928203125Q4.297052714843749,11.77196203125,4.306062714843749,11.81727203125Q4.31508271484375,11.86258203125,4.31508271484375,11.90878203125L4.31508271484375,13.47223203125L3.84603271484375,13.47223203125L3.6292527148437497,13.05633203125L6.62925271484375,11.49283203125Q6.73114271484375,11.43973203125,6.84603271484375,11.43973203125L8.19603271484375,11.43973203125Q8.24223271484375,11.43973203125,8.287542714843749,11.44874203125Q8.33284271484375,11.45775203125,8.37553271484375,11.47543203125Q8.41821271484375,11.49311203125,8.45662271484375,11.51878203125Q8.495032714843749,11.54444203125,8.52770271484375,11.57711203125Q8.56036271484375,11.60978203125,8.58603271484375,11.64819203125Q8.61169271484375,11.68660203125,8.62937271484375,11.72928203125Q8.647052714843749,11.77196203125,8.656062714843749,11.81727203125Q8.66508271484375,11.86258203125,8.66508271484375,11.90878203125Q8.66508271484375,11.95497203125,8.656062714843749,12.00028203125Q8.647052714843749,12.04559203125,8.62937271484375,12.08827203125Q8.61169271484375,12.13095203125,8.58603271484375,12.16937203125Q8.56036271484375,12.20778203125,8.52770271484375,12.24044203125Q8.495032714843749,12.27311203125,8.45662271484375,12.29878203125Q8.41821271484375,12.32444203125,8.37553271484375,12.34212203125Q8.33284271484375,12.35980203125,8.287542714843749,12.36881203125Q8.24223271484375,12.37783203125,8.19603271484375,12.37783203125L6.84603271484375,12.37783203125L6.84603271484375,11.90878203125L7.06281271484375,12.32473203125L4.06281271484375,13.88823203125Q3.96092271484375,13.94133203125,3.84603271484375,13.94133203125Q3.79983271484375,13.94133203125,3.75452271484375,13.93233203125Q3.70921271484375,13.92333203125,3.66653271484375,13.90563203125Q3.62385271484375,13.88793203125,3.58544271484375,13.86223203125Q3.54703271484375,13.83663203125,3.5143627148437497,13.80393203125Q3.48170271484375,13.77123203125,3.45603271484375,13.73283203125Q3.4303727148437497,13.69443203125,3.4126927148437503,13.65173203125Q3.39501271484375,13.60913203125,3.38600271484375,13.56373203125Q3.37698271484375,13.51843203125,3.37698271484375,13.47223203125L3.37698271484375,11.90878203125L3.84603271484375,11.90878203125L3.84603271484375,12.37783203125L1.74603271484375,12.37783203125Q1.69983561484375,12.37783203125,1.65452611484375,12.36881203125Q1.60921671484375,12.35980203125,1.56653571484375,12.34212203125Q1.52385571484375,12.32444203125,1.48544371484375,12.29878203125Q1.44703271484375,12.27311203125,1.41436571484375,12.24044203125Q1.38169971484375,12.20778203125,1.35603371484375,12.16936203125Q1.33036871484375,12.13095203125,1.31268971484375,12.08827203125Q1.29501071484375,12.04559203125,1.28599771484375,12.00028203125Q1.27698571484375,11.95497203125,1.27698571484375,11.90878203125L1.27698571484375,2.52783203125Q1.27698571484375,2.48163493125,1.28599771484375,2.4363254312500002Q1.29501071484375,2.39101603125,1.31268971484375,2.34833503125Q1.33036871484375,2.30565503125,1.35603371484375,2.26724303125Q1.38169971484375,2.22883203125,1.41436571484375,2.19616503125Q1.44703271484375,2.1634990312499998,1.48544371484375,2.13783303125Q1.52385571484375,2.11216803125,1.56653571484375,2.09448903125Q1.60921671484375,2.07681003125,1.65452611484375,2.06779703125Q1.69983561484375,2.0587850312500002,1.74603271484375,2.0587850312500002L13.74603271484375,2.0587850312500002Q13.79223271484375,2.0587850312500002,13.83753271484375,2.06779703125Q13.88283271484375,2.07681003125,13.92553271484375,2.09448903125Q13.96823271484375,2.11216803125,14.00663271484375,2.13783303125Q14.04503271484375,2.1634990312499998,14.07773271484375,2.19616503125Q14.11033271484375,2.22883203125,14.13603271484375,2.26724303125Q14.16173271484375,2.30565503125,14.17933271484375,2.34833503125Q14.19703271484375,2.39101603125,14.20603271484375,2.4363254312500002Q14.21503271484375,2.48163493125,14.21503271484375,2.52783203125L14.21503271484375,5.96751203125Q14.21503271484375,6.01371203125,14.20603271484375,6.0590220312500005Q14.19703271484375,6.104332031249999,14.17933271484375,6.14701203125Q14.16173271484375,6.18969203125,14.13603271484375,6.22810203125Q14.11033271484375,6.2665120312500004,14.07773271484375,6.29918203125Q14.04503271484375,6.33184203125,14.00663271484375,6.35751203125Q13.96823271484375,6.38317203125,13.92553271484375,6.40085203125Q13.88283271484375,6.41853203125,13.83753271484375,6.42754203125Q13.79223271484375,6.43656203125,13.74603271484375,6.43656203125Q13.69983271484375,6.43656203125,13.65453271484375,6.42754203125Q13.60923271484375,6.41853203125,13.56653271484375,6.40085203125Q13.52383271484375,6.38317203125,13.48543271484375,6.35751203125Q13.44703271484375,6.33184203125,13.41433271484375,6.29918203125Q13.38173271484375,6.2665120312500004,13.35603271484375,6.22810203125Q13.33033271484375,6.18969203125,13.31273271484375,6.14701203125Q13.29503271484375,6.104332031249999,13.28603271484375,6.0590220312500005Q13.27703271484375,6.01371203125,13.27703271484375,5.96751203125ZM14.21603271484375,5.96751203125Q14.21603271484375,6.01380203125,14.20703271484375,6.05920203125Q14.19793271484375,6.10460203125,14.18023271484375,6.147372031250001Q14.16253271484375,6.19014203125,14.13683271484375,6.22863203125Q14.11113271484375,6.2671220312500004,14.07833271484375,6.2998520312499995Q14.04563271484375,6.33258203125,14.00713271484375,6.35830203125Q13.96863271484375,6.38402203125,13.92593271484375,6.40173203125Q13.88313271484375,6.41945203125,13.83773271484375,6.428482031250001Q13.79233271484375,6.43751203125,13.74603271484375,6.43751203125Q13.69973271484375,6.43751203125,13.65433271484375,6.428482031250001Q13.60893271484375,6.41945203125,13.56613271484375,6.40173203125Q13.52343271484375,6.38402203125,13.48493271484375,6.35830203125Q13.44643271484375,6.33258203125,13.41373271484375,6.2998520312499995Q13.38093271484375,6.2671220312500004,13.35523271484375,6.22863203125Q13.32953271484375,6.19014203125,13.31183271484375,6.147372031250001Q13.29413271484375,6.10460203125,13.28503271484375,6.05920203125Q13.27603271484375,6.01380203125,13.27603271484375,5.96751203125Q13.27603271484375,5.92122203125,13.28503271484375,5.875822031249999Q13.29413271484375,5.83042203125,13.31183271484375,5.7876520312499995Q13.32953271484375,5.74488203125,13.35523271484375,5.70639203125Q13.38093271484375,5.66790203125,13.41373271484375,5.635172031250001Q13.44643271484375,5.60244203125,13.48493271484375,5.57672203125Q13.52343271484375,5.55100203125,13.56613271484375,5.533292031249999Q13.60893271484375,5.5155720312500005,13.65433271484375,5.5065420312499995Q13.69973271484375,5.49751203125,13.74603271484375,5.49751203125Q13.79233271484375,5.49751203125,13.83773271484375,5.5065420312499995Q13.88313271484375,5.5155720312500005,13.92593271484375,5.533292031249999Q13.96863271484375,5.55100203125,14.00713271484375,5.57672203125Q14.04563271484375,5.60244203125,14.07833271484375,5.635172031250001Q14.11113271484375,5.66790203125,14.13683271484375,5.70639203125Q14.16253271484375,5.74488203125,14.18023271484375,5.7876520312499995Q14.19793271484375,5.83042203125,14.20703271484375,5.875822031249999Q14.21603271484375,5.92122203125,14.21603271484375,5.96751203125ZM8.66603271484375,11.90878203125Q8.66603271484375,11.95507203125,8.657002714843749,12.00047203125Q8.64797271484375,12.04587203125,8.63025271484375,12.08864203125Q8.61254271484375,12.13141203125,8.58682271484375,12.16990203125Q8.56110271484375,12.20838203125,8.52837271484375,12.24112203125Q8.49564271484375,12.27385203125,8.457152714843751,12.29957203125Q8.41866271484375,12.32528203125,8.37589271484375,12.34300203125Q8.33312271484375,12.36071203125,8.28772271484375,12.36975203125Q8.24232271484375,12.37878203125,8.19603271484375,12.37878203125Q8.14974271484375,12.37878203125,8.10434271484375,12.36975203125Q8.058932714843749,12.36071203125,8.01617271484375,12.34300203125Q7.97340271484375,12.32528203125,7.93491271484375,12.29957203125Q7.89642271484375,12.27385203125,7.86369271484375,12.24112203125Q7.83096271484375,12.20838203125,7.80524271484375,12.16990203125Q7.77952271484375,12.13141203125,7.76181271484375,12.08864203125Q7.74409271484375,12.04587203125,7.73506271484375,12.00047203125Q7.72603271484375,11.95507203125,7.72603271484375,11.90878203125Q7.72603271484375,11.86249203125,7.73506271484375,11.81709203125Q7.74409271484375,11.77168203125,7.76181271484375,11.72892203125Q7.77952271484375,11.68615203125,7.80524271484375,11.64766203125Q7.83096271484375,11.60917203125,7.86369271484375,11.57644203125Q7.89642271484375,11.54370203125,7.93491271484375,11.51799203125Q7.97340271484375,11.49227203125,8.01617271484375,11.47455203125Q8.058932714843749,11.45684203125,8.10434271484375,11.44781203125Q8.14974271484375,11.43878203125,8.19603271484375,11.43878203125Q8.24232271484375,11.43878203125,8.28772271484375,11.44781203125Q8.33312271484375,11.45684203125,8.37589271484375,11.47455203125Q8.41866271484375,11.49227203125,8.457152714843751,11.51799203125Q8.49564271484375,11.54370203125,8.52837271484375,11.57644203125Q8.56110271484375,11.60917203125,8.58682271484375,11.64766203125Q8.61254271484375,11.68615203125,8.63025271484375,11.72892203125Q8.64797271484375,11.77168203125,8.657002714843749,11.81709203125Q8.66603271484375,11.86249203125,8.66603271484375,11.90878203125Z" fill="#FFCC00" fill-opacity="1"/></g><g><path d="M6.123813443603516,5.811163355895996L5.185718443603515,5.811163355895996L4.247623443603516,5.811163355895996Q4.201426343603516,5.811163355895996,4.156116843603516,5.8021513558959965Q4.110807443603516,5.793138355895996,4.068126443603516,5.775459355895996Q4.025446443603515,5.757780355895996,3.9870344436035157,5.732115355895996Q3.9486234436035157,5.706449355895996,3.9159564436035157,5.6737833558959965Q3.8832904436035154,5.6411163558959965,3.8576244436035156,5.6027053558959965Q3.8319594436035156,5.564293355895996,3.814280443603516,5.521613355895996Q3.7966014436035156,5.478932355895996,3.7875884436035157,5.433622955895996Q3.778576443603516,5.388313455895996,3.778576443603516,5.342116355895996Q3.778576443603516,5.295919255895996,3.7875884436035157,5.250609755895996Q3.7966014436035156,5.2053003558959965,3.814280443603516,5.1626193558959965Q3.8319594436035156,5.119939355895996,3.8576244436035156,5.081527355895996Q3.8832904436035154,5.043116355895996,3.9159564436035157,5.010449355895996Q3.9486234436035157,4.977783355895996,3.9870344436035157,4.9521173558959966Q4.025446443603515,4.9264523558959965,4.068126443603516,4.908773355895996Q4.110807443603516,4.891094355895996,4.156116843603516,4.882081355895996Q4.201426343603516,4.873069355895996,4.247623443603516,4.873069355895996L5.185718443603515,4.873069355895996L6.123813443603516,4.873069355895996Q6.170013443603516,4.873069355895996,6.215323443603515,4.882081355895996Q6.260633443603515,4.891094355895996,6.303313443603516,4.908773355895996Q6.345993443603516,4.9264523558959965,6.3844034436035155,4.9521173558959966Q6.422813443603516,4.977783355895996,6.455483443603516,5.010449355895996Q6.488143443603516,5.043116355895996,6.5138134436035156,5.081527355895996Q6.539473443603516,5.119939355895996,6.557153443603516,5.1626193558959965Q6.574833443603516,5.2053003558959965,6.583843443603516,5.250609755895996Q6.592863443603516,5.295919255895996,6.592863443603516,5.342116355895996Q6.592863443603516,5.388313455895996,6.583843443603516,5.433622955895996Q6.574833443603516,5.478932355895996,6.557153443603516,5.521613355895996Q6.539473443603516,5.564293355895996,6.5138134436035156,5.6027053558959965Q6.488143443603516,5.6411163558959965,6.455483443603516,5.6737833558959965Q6.422813443603516,5.706449355895996,6.3844034436035155,5.732115355895996Q6.345993443603516,5.757780355895996,6.303313443603516,5.775459355895996Q6.260633443603515,5.793138355895996,6.215323443603515,5.8021513558959965Q6.170013443603516,5.811163355895996,6.123813443603516,5.811163355895996ZM6.593813443603516,5.342116355895996Q6.593813443603516,5.388407355895996,6.5847834436035155,5.433808755895996Q6.575753443603515,5.479210355895996,6.558033443603516,5.521977355895996Q6.540323443603516,5.564744355895996,6.514603443603516,5.603234355895996Q6.488883443603516,5.641724355895996,6.456153443603515,5.674456355895996Q6.423423443603516,5.707189355895996,6.384933443603515,5.732907355895996Q6.3464434436035155,5.758625355895996,6.303673443603516,5.776339355895996Q6.260903443603516,5.794054355895996,6.215503443603516,5.8030853558959965Q6.170103443603516,5.812116355895996,6.123813443603516,5.812116355895996Q6.077523443603516,5.812116355895996,6.032123443603515,5.8030853558959965Q5.986723443603516,5.794054355895996,5.943953443603515,5.776339355895996Q5.901183443603515,5.758625355895996,5.862693443603516,5.732907355895996Q5.8242034436035155,5.707189355895996,5.791473443603516,5.674456355895996Q5.758743443603516,5.641724355895996,5.733023443603516,5.603234355895996Q5.707303443603516,5.564744355895996,5.689593443603515,5.521977355895996Q5.671873443603515,5.479210355895996,5.662843443603515,5.433808755895996Q5.653813443603516,5.388407355895996,5.653813443603516,5.342116355895996Q5.653813443603516,5.295825355895996,5.662843443603515,5.250423955895996Q5.671873443603515,5.205022355895996,5.689593443603515,5.162255355895996Q5.707303443603516,5.119488355895996,5.733023443603516,5.080998355895996Q5.758743443603516,5.042508355895996,5.791473443603516,5.009776355895996Q5.8242034436035155,4.977043355895996,5.862693443603516,4.951325355895996Q5.901183443603515,4.9256073558959965,5.943953443603515,4.907893355895996Q5.986723443603516,4.890178355895996,6.032123443603515,4.881147355895996Q6.077523443603516,4.872116355895996,6.123813443603516,4.872116355895996Q6.170103443603516,4.872116355895996,6.215503443603516,4.881147355895996Q6.260903443603516,4.890178355895996,6.303673443603516,4.907893355895996Q6.3464434436035155,4.9256073558959965,6.384933443603515,4.951325355895996Q6.423423443603516,4.977043355895996,6.456153443603515,5.009776355895996Q6.488883443603516,5.042508355895996,6.514603443603516,5.080998355895996Q6.540323443603516,5.119488355895996,6.558033443603516,5.162255355895996Q6.575753443603515,5.205022355895996,6.5847834436035155,5.250423955895996Q6.593813443603516,5.295825355895996,6.593813443603516,5.342116355895996ZM4.717623443603515,5.342116355895996Q4.717623443603515,5.388407355895996,4.708592443603516,5.433808755895996Q4.699561443603516,5.479210355895996,4.681846443603516,5.521977355895996Q4.664132443603515,5.564744355895996,4.638414443603516,5.603234355895996Q4.612696443603515,5.641724355895996,4.579963443603516,5.674456355895996Q4.547231443603516,5.707189355895996,4.508741443603515,5.732907355895996Q4.470251443603516,5.758625355895996,4.4274844436035155,5.776339355895996Q4.384717443603516,5.794054355895996,4.339315843603516,5.8030853558959965Q4.293914443603516,5.812116355895996,4.247623443603516,5.812116355895996Q4.2013324436035155,5.812116355895996,4.155931043603515,5.8030853558959965Q4.110529443603515,5.794054355895996,4.067762443603516,5.776339355895996Q4.024995443603515,5.758625355895996,3.9865054436035154,5.732907355895996Q3.9480154436035155,5.707189355895996,3.9152834436035158,5.674456355895996Q3.882550443603516,5.641724355895996,3.8568324436035155,5.603234355895996Q3.8311144436035156,5.564744355895996,3.8134004436035154,5.521977355895996Q3.7956854436035155,5.479210355895996,3.7866544436035157,5.433808755895996Q3.777623443603516,5.388407355895996,3.777623443603516,5.342116355895996Q3.777623443603516,5.295825355895996,3.7866544436035157,5.250423955895996Q3.7956854436035155,5.205022355895996,3.8134004436035154,5.162255355895996Q3.8311144436035156,5.119488355895996,3.8568324436035155,5.080998355895996Q3.882550443603516,5.042508355895996,3.9152834436035158,5.009776355895996Q3.9480154436035155,4.977043355895996,3.9865054436035154,4.951325355895996Q4.024995443603515,4.9256073558959965,4.067762443603516,4.907893355895996Q4.110529443603515,4.890178355895996,4.155931043603515,4.881147355895996Q4.2013324436035155,4.872116355895996,4.247623443603516,4.872116355895996Q4.293914443603516,4.872116355895996,4.339315843603516,4.881147355895996Q4.384717443603516,4.890178355895996,4.4274844436035155,4.907893355895996Q4.470251443603516,4.9256073558959965,4.508741443603515,4.951325355895996Q4.547231443603516,4.977043355895996,4.579963443603516,5.009776355895996Q4.612696443603515,5.042508355895996,4.638414443603516,5.080998355895996Q4.664132443603515,5.119488355895996,4.681846443603516,5.162255355895996Q4.699561443603516,5.205022355895996,4.708592443603516,5.250423955895996Q4.717623443603515,5.295825355895996,4.717623443603515,5.342116355895996Z" fill="#FFCC00" fill-opacity="1"/></g><g><path d="M8.469043443603516,8.625447680541992L6.123813443603516,8.625447680541992L4.247623443603516,8.625447680541992Q4.201426343603516,8.625447680541992,4.156116843603516,8.616435680541992Q4.110807443603516,8.607422680541992,4.068126443603516,8.589743680541993Q4.025446443603515,8.572064680541992,3.9870344436035157,8.546399680541992Q3.9486234436035157,8.520733680541992,3.9159564436035157,8.488067680541992Q3.8832904436035154,8.455400680541992,3.8576244436035156,8.416989680541992Q3.8319594436035156,8.378577680541992,3.814280443603516,8.335897680541992Q3.7966014436035156,8.293216680541992,3.7875884436035157,8.247907280541993Q3.778576443603516,8.202597780541993,3.778576443603516,8.156400680541992Q3.778576443603516,8.110203580541992,3.7875884436035157,8.064894080541992Q3.7966014436035156,8.019584680541993,3.814280443603516,7.976903680541993Q3.8319594436035156,7.934223680541992,3.8576244436035156,7.895811680541992Q3.8832904436035154,7.857400680541992,3.9159564436035157,7.824733680541992Q3.9486234436035157,7.792067680541992,3.9870344436035157,7.766401680541993Q4.025446443603515,7.740736680541993,4.068126443603516,7.723057680541992Q4.110807443603516,7.705378680541992,4.156116843603516,7.696365680541992Q4.201426343603516,7.687353680541992,4.247623443603516,7.687353680541992L6.123813443603516,7.687353680541992L8.469043443603516,7.687353680541992Q8.515243443603516,7.687353680541992,8.560553443603515,7.696365680541992Q8.605863443603516,7.705378680541992,8.648543443603515,7.723057680541992Q8.691223443603516,7.740736680541993,8.729633443603515,7.766401680541993Q8.768043443603515,7.792067680541992,8.800713443603517,7.824733680541992Q8.833383443603516,7.857400680541992,8.859043443603515,7.895811680541992Q8.884713443603516,7.934223680541992,8.902393443603515,7.976903680541993Q8.920063443603516,8.019584680541993,8.929083443603517,8.064894080541992Q8.938093443603517,8.110203580541992,8.938093443603517,8.156400680541992Q8.938093443603517,8.202597780541993,8.929083443603517,8.247907280541993Q8.920063443603516,8.293216680541992,8.902393443603515,8.335897680541992Q8.884713443603516,8.378577680541992,8.859043443603515,8.416989680541992Q8.833383443603516,8.455400680541992,8.800713443603517,8.488067680541992Q8.768043443603515,8.520733680541992,8.729633443603515,8.546399680541992Q8.691223443603516,8.572064680541992,8.648543443603515,8.589743680541993Q8.605863443603516,8.607422680541992,8.560553443603515,8.616435680541992Q8.515243443603516,8.625447680541992,8.469043443603516,8.625447680541992ZM8.939043443603516,8.156400680541992Q8.939043443603516,8.202691680541992,8.930013443603515,8.248093080541992Q8.920983443603514,8.293494680541992,8.903273443603515,8.336261680541993Q8.885553443603516,8.379028680541992,8.859833443603517,8.417518680541992Q8.834113443603517,8.456008680541991,8.801383443603516,8.488740680541992Q8.768653443603515,8.521473680541993,8.730163443603516,8.547191680541992Q8.691673443603516,8.572909680541992,8.648903443603515,8.590623680541992Q8.606143443603516,8.608338680541992,8.560733443603516,8.617369680541993Q8.515333443603517,8.626400680541993,8.469043443603516,8.626400680541993Q8.422753443603515,8.626400680541993,8.377353443603516,8.617369680541993Q8.331953443603515,8.608338680541992,8.289183443603516,8.590623680541992Q8.246413443603515,8.572909680541992,8.207923443603516,8.547191680541992Q8.169433443603516,8.521473680541993,8.136703443603515,8.488740680541992Q8.103973443603515,8.456008680541991,8.078253443603515,8.417518680541992Q8.052533443603515,8.379028680541992,8.034823443603516,8.336261680541993Q8.017103443603515,8.293494680541992,8.008073443603516,8.248093080541992Q7.999043443603515,8.202691680541992,7.999043443603515,8.156400680541992Q7.999043443603515,8.110109680541992,8.008073443603516,8.064708280541993Q8.017103443603515,8.019306680541993,8.034823443603516,7.976539680541992Q8.052533443603515,7.933772680541992,8.078253443603515,7.8952826805419924Q8.103973443603515,7.856792680541992,8.136703443603515,7.824060680541992Q8.169433443603516,7.791327680541992,8.207923443603516,7.765609680541992Q8.246413443603515,7.739891680541993,8.289183443603516,7.722177680541992Q8.331953443603515,7.704462680541992,8.377353443603516,7.695431680541992Q8.422753443603515,7.686400680541992,8.469043443603516,7.686400680541992Q8.515333443603517,7.686400680541992,8.560733443603516,7.695431680541992Q8.606143443603516,7.704462680541992,8.648903443603515,7.722177680541992Q8.691673443603516,7.739891680541993,8.730163443603516,7.765609680541992Q8.768653443603515,7.791327680541992,8.801383443603516,7.824060680541992Q8.834113443603517,7.856792680541992,8.859833443603517,7.8952826805419924Q8.885553443603516,7.933772680541992,8.903273443603515,7.976539680541992Q8.920983443603514,8.019306680541993,8.930013443603515,8.064708280541993Q8.939043443603516,8.110109680541992,8.939043443603516,8.156400680541992ZM4.717623443603515,8.156400680541992Q4.717623443603515,8.202691680541992,4.708592443603516,8.248093080541992Q4.699561443603516,8.293494680541992,4.681846443603516,8.336261680541993Q4.664132443603515,8.379028680541992,4.638414443603516,8.417518680541992Q4.612696443603515,8.456008680541991,4.579963443603516,8.488740680541992Q4.547231443603516,8.521473680541993,4.508741443603515,8.547191680541992Q4.470251443603516,8.572909680541992,4.4274844436035155,8.590623680541992Q4.384717443603516,8.608338680541992,4.339315843603516,8.617369680541993Q4.293914443603516,8.626400680541993,4.247623443603516,8.626400680541993Q4.2013324436035155,8.626400680541993,4.155931043603515,8.617369680541993Q4.110529443603515,8.608338680541992,4.067762443603516,8.590623680541992Q4.024995443603515,8.572909680541992,3.9865054436035154,8.547191680541992Q3.9480154436035155,8.521473680541993,3.9152834436035158,8.488740680541992Q3.882550443603516,8.456008680541991,3.8568324436035155,8.417518680541992Q3.8311144436035156,8.379028680541992,3.8134004436035154,8.336261680541993Q3.7956854436035155,8.293494680541992,3.7866544436035157,8.248093080541992Q3.777623443603516,8.202691680541992,3.777623443603516,8.156400680541992Q3.777623443603516,8.110109680541992,3.7866544436035157,8.064708280541993Q3.7956854436035155,8.019306680541993,3.8134004436035154,7.976539680541992Q3.8311144436035156,7.933772680541992,3.8568324436035155,7.8952826805419924Q3.882550443603516,7.856792680541992,3.9152834436035158,7.824060680541992Q3.9480154436035155,7.791327680541992,3.9865054436035154,7.765609680541992Q4.024995443603515,7.739891680541993,4.067762443603516,7.722177680541992Q4.110529443603515,7.704462680541992,4.155931043603515,7.695431680541992Q4.2013324436035155,7.686400680541992,4.247623443603516,7.686400680541992Q4.293914443603516,7.686400680541992,4.339315843603516,7.695431680541992Q4.384717443603516,7.704462680541992,4.4274844436035155,7.722177680541992Q4.470251443603516,7.739891680541993,4.508741443603515,7.765609680541992Q4.547231443603516,7.791327680541992,4.579963443603516,7.824060680541992Q4.612696443603515,7.856792680541992,4.638414443603516,7.8952826805419924Q4.664132443603515,7.933772680541992,4.681846443603516,7.976539680541992Q4.699561443603516,8.019306680541993,4.708592443603516,8.064708280541993Q4.717623443603515,8.110109680541992,4.717623443603515,8.156400680541992Z" fill="#FFCC00" fill-opacity="1"/></g><g><path d="M12.04869150390625,10.6516396875L13.91437150390625,10.6516396875C14.012261503906249,10.6640496875,14.085641503906249,10.7473096875,14.085641503906249,10.8459796875C14.085641503906249,10.9446496875,14.012261503906249,11.027919687499999,13.91437150390625,11.0403196875L12.04869150390625,11.0403196875L12.04869150390625,12.9059996875C12.036281503906249,13.0038896875,11.95301150390625,13.0772696875,11.85435150390625,13.0772696875C11.75568150390625,13.0772696875,11.67241150390625,13.0038896875,11.66000150390625,12.9059996875L11.66000150390625,11.0403196875L9.79432050390625,11.0403196875C9.67728950390625,11.0551596875,9.57379150390625,10.9639496875,9.57379150390625,10.8459796875C9.57379150390625,10.7280096875,9.67728950390625,10.6368096875,9.79432050390625,10.6516396875L11.66000150390625,10.6516396875L11.66000150390625,8.7859576875C11.64517150390625,8.6689276875,11.73638150390625,8.5654296875,11.85435150390625,8.5654296875C11.97231150390625,8.5654297801694,12.06352150390625,8.6689276875,12.04869150390625,8.7859576875L12.04869150390625,10.6516396875Z" fill="#FFCC00" fill-opacity="1"/><path d="M12.21869150390625,8.7859576875L12.21869150390625,10.6516396875L12.04869150390625,10.6516396875L12.04869150390625,10.4816396875L13.92510150390625,10.4816396875L13.93575150390625,10.4829896875Q14.25564150390625,10.5235296875,14.25564150390625,10.8459796875Q14.25564150390625,11.1684296875,13.93575150390625,11.2089696875L13.92510150390625,11.2103196875L12.04869150390625,11.2103196875L12.04869150390625,11.0403196875L12.21869150390625,11.0403196875L12.21869150390625,12.9167396875L12.21734150390625,12.9273796875Q12.17679150390625,13.247269687500001,11.85435150390625,13.247269687500001Q11.53190150390625,13.247269687500001,11.49135150390625,12.9273796875L11.49000150390625,12.9167396875L11.49000150390625,11.0403196875L11.66000150390625,11.0403196875L11.66000150390625,11.2103196875L9.79432050390625,11.2103196875L9.79432050390625,11.0403196875L9.81569450390625,11.2089696875Q9.65175280390625,11.2297496875,9.52777250390625,11.120489687500001Q9.40379150390625,11.0112296875,9.40379150390625,10.8459796875Q9.40379150390625,10.6807296875,9.52777270390625,10.5714696875Q9.65175370390625,10.4622096875,9.81569550390625,10.4829896875L9.79432050390625,10.6516396875L9.79432050390625,10.4816396875L11.66000150390625,10.4816396875L11.66000150390625,10.6516396875L11.49000150390625,10.6516396875L11.49000150390625,8.7859576875L11.66000150390625,8.7859576875L11.49135150390625,8.8073326875Q11.47057150390625,8.6433908875,11.57983150390625,8.5194103875Q11.68909150390625,8.3954296875,11.85435150390625,8.3954296875Q12.01960150390625,8.3954296875,12.12886150390625,8.5194102875Q12.23812150390625,8.6433913875,12.21734150390625,8.8073326875L12.04869150390625,8.7859576875L12.21869150390625,8.7859576875ZM11.87869150390625,8.7859576875L11.87869150390625,8.7752276875L11.88004150390625,8.7645826875Q11.88151150390625,8.7529796875,11.87377150390625,8.7442046875Q11.86604150390625,8.7354296875,11.85435150390625,8.7354296875Q11.84265150390625,8.7354296875,11.83492150390625,8.7442046875Q11.82718150390625,8.7529796875,11.82865150390625,8.7645826875L11.83000150390625,8.7752276875L11.83000150390625,10.8216396875L9.78358950390625,10.8216396875L9.77294450390625,10.8202896875Q9.76134050390625,10.8188196875,9.75256650390625,10.8265496875Q9.74379150390625,10.8342896875,9.74379150390625,10.8459796875Q9.74379150390625,10.8576796875,9.75256650390625,10.8654096875Q9.76134150390625,10.8731396875,9.77294550390625,10.871669687499999L9.78359050390625,10.8703196875L11.83000150390625,10.8703196875L11.83000150390625,12.9059996875L11.66000150390625,12.9059996875L11.82865150390625,12.8846296875Q11.83152150390625,12.907269687500001,11.85435150390625,12.907269687500001Q11.87717150390625,12.907269687500001,11.88004150390625,12.8846296875L12.04869150390625,12.9059996875L11.87869150390625,12.9059996875L11.87869150390625,10.8703196875L13.91437150390625,10.8703196875L13.91437150390625,11.0403196875L13.89300150390625,10.871669687499999Q13.91564150390625,10.868799687500001,13.91564150390625,10.8459796875Q13.91564150390625,10.8231596875,13.89300150390625,10.8202896875L13.91437150390625,10.6516396875L13.91437150390625,10.8216396875L11.87869150390625,10.8216396875L11.87869150390625,8.7859576875Z" fill="#FFCC00" fill-opacity="1"/></g></g></g></g></svg>