<svg xmlns="http://www.w3.org/2000/svg" xmlns:xlink="http://www.w3.org/1999/xlink" fill="none" version="1.1" width="16" height="16" viewBox="0 0 16 16"><defs><clipPath id="master_svg0_714_26887"><rect x="0" y="0" width="16" height="16" rx="0"/></clipPath></defs><g style="mix-blend-mode:passthrough"><g clip-path="url(#master_svg0_714_26887)"><g><path d="M15.79364734375,9.8126903125C15.79364734375,7.6064503125,13.58583734375,5.8095703125,11.10771734375,5.8095703125C8.48271734375,5.8095703125,6.41552734375,7.6080103125,6.41552734375,9.8126903125C6.41552734375,12.0220703125,8.48271734375,13.8158203125,11.10771734375,13.8158203125C11.65771734375,13.8158203125,12.21240734375,13.6767603125,12.76396734375,13.5392603125L14.27646734375,14.3673803125L13.86083734375,12.9892603125C14.96864734375,12.1580103125,15.79365734375,11.056440312500001,15.79364734375,9.8126903125ZM9.65614734375,9.2001903125C9.31083734375,9.2001903125,9.03114734375,8.9205103125,9.03114734375,8.5751903125C9.03114734375,8.2298803125,9.31083734375,7.9501903125,9.65614734375,7.9501903125C10.00146734375,7.9501903125,10.28114734375,8.2298803125,10.28114734375,8.5751903125C10.28114734375,8.9189403125,10.00146734375,9.2001903125,9.65614734375,9.2001903125ZM12.69208734375,9.1955103125C12.34677734375,9.1955103125,12.06708734375,8.9158203125,12.06708734375,8.5705103125C12.06708734375,8.2252003125,12.34677734375,7.9455103125,12.69208734375,7.9455103125C13.037397343750001,7.9455103125,13.31708734375,8.2252003125,13.31708734375,8.5705103125C13.31708734375,8.9158203125,13.037397343750001,9.1955103125,12.69208734375,9.1955103125Z" fill="#00C800" fill-opacity="1"/></g><g><path d="M5.7232446875,1.669921875C2.6904246875,1.669921875,0.2060546875,3.737111875,0.2060546875,6.362111875C0.2060546875,7.877731875,1.0326166875,9.121481875,2.4138646875,10.087111875L1.8623046875,11.746521875L3.7904246875,10.779301875C4.4810546875,10.915231875,5.0341746875,11.055861875,5.7232446875,11.055861875C5.8966746875,11.055861875,6.0685546875,11.048051875,6.2388646875,11.033981875C6.1310546875,10.665231875,6.0685546875,10.279301875,6.0685546875,9.877731875C6.0685546875,7.466801875,8.1388646875,5.5105418749999995,10.7591546875,5.5105418749999995C10.9388546875,5.5105418749999995,11.1154546875,5.5230418750000005,11.2904546875,5.543361875C10.8122546875,3.321481875,8.4357446875,1.669921875,5.7232446875,1.669921875ZM3.8701146875,5.455861875C3.4560546875,5.455861875,3.1201146875,5.119921875,3.1201146875,4.705861875C3.1201146875,4.291801875,3.4560546875,3.955861875,3.8701146875,3.955861875C4.2841746875,3.955861875,4.6201146875,4.291801875,4.6201146875,4.705861875C4.6201146875,5.119921875,4.2841746875,5.455861875,3.8701146875,5.455861875ZM7.7232446875,5.455861875C7.3091746875,5.455861875,6.9732446875,5.119921875,6.9732446875,4.705861875C6.9732446875,4.291801875,7.3091746875,3.955861875,7.7232446875,3.955861875C8.1373046875,3.955861875,8.4732446875,4.291801875,8.4732446875,4.705861875C8.4732446875,5.119921875,8.1373046875,5.455861875,7.7232446875,5.455861875Z" fill="#00C800" fill-opacity="1"/></g></g></g></svg>