<svg xmlns="http://www.w3.org/2000/svg" xmlns:xlink="http://www.w3.org/1999/xlink" fill="none" version="1.1" width="24" height="24" viewBox="0 0 24 24"><g style="mix-blend-mode:passthrough"><g style="mix-blend-mode:passthrough" transform="matrix(0,-1,1,0,-24,24)"><rect x="0" y="24" width="24" height="24" rx="4" fill="#FFF9E5" fill-opacity="0.8999999761581421"/></g><g style="mix-blend-mode:passthrough"><g style="mix-blend-mode:passthrough"></g></g><g style="mix-blend-mode:passthrough"><g><path d="M8.45009220703125,17.575L15.95011220703125,17.575L15.95011220703125,18.375L15.26061220703125,17.9694L19.01041220703125,11.59439L19.70001220703125,12L19.01041220703125,12.40561L15.26061220703125,6.030607L15.95011220703125,5.625L15.95011220703125,6.425L8.45009220703125,6.425L8.45009220703125,5.625L9.13963220703125,6.030622L5.38955620703125,12.405619999999999L4.70001220703125,12L5.38955620703125,11.594380000000001L9.13963220703125,17.9694L8.45009220703125,18.375L8.45009220703125,17.575ZM8.45009220703125,19.175Q8.345592207031249,19.175,8.24460220703125,19.1482Q8.14361220703125,19.121299999999998,8.05291220703125,19.0694Q7.96220220703125,19.0176,7.88786220703125,18.9441Q7.81352220703125,18.8707,7.76054220703125,18.7806L4.01046820703125,12.405619999999999Q3.95622820703125,12.31342,3.9281202070312498,12.2102Q3.90001220703125,12.10698,3.90001220703125,12Q3.90001220703125,11.89302,3.9281202070312498,11.7898Q3.95622820703125,11.686589999999999,4.01046820703125,11.594380000000001L7.76054220703125,5.219378Q7.81352220703125,5.129311,7.88786220703125,5.055874Q7.96220220703125,4.982437,8.05291220703125,4.930559Q8.14361220703125,4.87868,8.24460220703125,4.85184Q8.345592207031249,4.825,8.45009220703125,4.825L15.95011220703125,4.825Q16.054612207031248,4.825,16.15561220703125,4.851841Q16.25661220703125,4.8786819999999995,16.34731220703125,4.930563Q16.43801220703125,4.982444,16.51231220703125,5.055883Q16.586712207031248,5.129323,16.639712207031252,5.219393L20.38961220703125,11.59439Q20.44381220703125,11.6866,20.471912207031252,11.78981Q20.50001220703125,11.89303,20.50001220703125,12Q20.50001220703125,12.10697,20.471912207031252,12.21019Q20.44381220703125,12.3134,20.38961220703125,12.40561L16.639712207031252,18.7806Q16.586712207031248,18.8707,16.51231220703125,18.9441Q16.43801220703125,19.0176,16.34731220703125,19.0694Q16.25661220703125,19.121299999999998,16.15561220703125,19.1482Q16.054612207031248,19.175,15.95011220703125,19.175L8.45009220703125,19.175Z" fill="#FFCC00" fill-opacity="1"/></g><g><path d="M10.92501220703125,12Q10.92501220703125,12.52812,11.29845420703125,12.90156Q11.67189220703125,13.275,12.20001220703125,13.275Q12.72813220703125,13.275,13.10157220703125,12.90156Q13.47501220703125,12.52812,13.47501220703125,12Q13.47501220703125,11.47188,13.10157220703125,11.098442Q12.72813220703125,10.725,12.20001220703125,10.725Q11.67189220703125,10.725,11.29845420703125,11.098442Q10.92501220703125,11.47188,10.92501220703125,12ZM9.72501220703125,12Q9.72501220703125,10.974828,10.44992620703125,10.249914Q11.17484020703125,9.525,12.20001220703125,9.525Q13.22518220703125,9.525,13.95010220703125,10.249914Q14.67501220703125,10.974828,14.67501220703125,12Q14.67501220703125,13.02517,13.95010220703125,13.75009Q13.22518220703125,14.475,12.20001220703125,14.475Q11.17484020703125,14.475,10.44992620703125,13.75009Q9.72501220703125,13.02517,9.72501220703125,12Z" fill="#FFCC00" fill-opacity="1"/></g></g></g></svg>