<svg xmlns="http://www.w3.org/2000/svg" xmlns:xlink="http://www.w3.org/1999/xlink" fill="none" version="1.1" width="16" height="16" viewBox="0 0 16 16"><defs><clipPath id="master_svg0_627_9960"><rect x="0" y="0" width="16" height="16" rx="0"/></clipPath></defs><g style="mix-blend-mode:passthrough"><g clip-path="url(#master_svg0_627_9960)"><g><rect x="0" y="0" width="16" height="16" rx="0" fill="#FFFFFF" fill-opacity="0.009999999776482582"/></g><g><path d="M12.62606390625,14.040548046875L1.9593969062499998,3.373855046875Q1.88975290625,3.304211046875,1.83503390625,3.222318046875Q1.78031590625,3.140426046875,1.74262490625,3.049431046875Q1.70493390625,2.958437046875,1.68571890625,2.861838046875Q1.66650390625,2.765239446875,1.66650390625,2.666748046875Q1.66650390625,2.568256646875,1.68571890625,2.471658046875Q1.70493390625,2.375059046875,1.74262490625,2.284065046875Q1.78031590625,2.193070046875,1.83503390625,2.111178046875Q1.88975290625,2.029285046875,1.9593969062499998,1.9596410468749998Q2.02904090625,1.889997046875,2.11093390625,1.835278046875Q2.19282590625,1.780560046875,2.28382090625,1.742869046875Q2.37481490625,1.705178046875,2.47141390625,1.685963046875Q2.56801250625,1.666748046875,2.66650390625,1.666748046875Q2.76499530625,1.666748046875,2.86159390625,1.685963046875Q2.95819290625,1.705178046875,3.04918690625,1.742869046875Q3.14018190625,1.780560046875,3.22207390625,1.835278046875Q3.30396690625,1.889997046875,3.37361090625,1.9596410468749998L14.04030390625,12.626308046875Q14.10990390625,12.695948046875,14.16460390625,12.777848046875Q14.21940390625,12.859748046875,14.25700390625,12.950748046875Q14.29470390625,13.041748046875,14.31390390625,13.138348046875Q14.33320390625,13.234948046875,14.33320390625,13.333448046875Q14.33320390625,13.431948046875,14.31400390625,13.528548046875Q14.29470390625,13.625148046875,14.25700390625,13.716048046875Q14.21940390625,13.807048046875,14.16460390625,13.888948046875Q14.10990390625,13.970848046875,14.04030390625,14.040548046875Q13.97060390625,14.110148046875,13.88870390625,14.164848046875Q13.80680390625,14.219648046875,13.71580390625,14.257248046875Q13.62490390625,14.294948046875,13.52830390625,14.314148046875Q13.43170390625,14.333448046875,13.33320390625,14.333448046875Q13.23470390625,14.333448046875,13.13810390625,14.314248046875Q13.04150390625,14.294948046875,12.95050390625,14.257248046875Q12.85950390625,14.219648046875,12.77760390625,14.164848046875Q12.69570390625,14.110148046875,12.62606390625,14.040548046875ZM14.33320390625,13.333448046875Q14.33320390625,13.431948046875,14.31400390625,13.528548046875Q14.29470390625,13.625148046875,14.25700390625,13.716048046875Q14.21940390625,13.807048046875,14.16460390625,13.888948046875Q14.10990390625,13.970848046875,14.04030390625,14.040548046875Q13.97060390625,14.110148046875,13.88870390625,14.164848046875Q13.80680390625,14.219648046875,13.71580390625,14.257248046875Q13.62490390625,14.294948046875,13.52830390625,14.314248046875Q13.43170390625,14.333448046875,13.33320390625,14.333448046875Q13.23470390625,14.333448046875,13.13810390625,14.314248046875Q13.04150390625,14.294948046875,12.95050390625,14.257248046875Q12.85950390625,14.219648046875,12.77760390625,14.164848046875Q12.69570390625,14.110148046875,12.62606390625,14.040548046875Q12.55641390625,13.970848046875,12.50169390625,13.888948046875Q12.44698390625,13.807048046875,12.40928390625,13.716048046875Q12.37159390625,13.625148046875,12.35238390625,13.528548046875Q12.33317390625,13.431948046875,12.33317390625,13.333448046875Q12.33317390625,13.234948046875,12.35238390625,13.138348046875Q12.37159390625,13.041748046875,12.40928390625,12.950748046875Q12.44698390625,12.859748046875,12.50169390625,12.777848046875Q12.55641390625,12.695948046875,12.62606390625,12.626308046875Q12.69570390625,12.556658046875,12.77760390625,12.501938046875Q12.85950390625,12.447228046875,12.95050390625,12.409528046875Q13.04150390625,12.371838046875,13.13810390625,12.352628046875Q13.23470390625,12.333418046875,13.33320390625,12.333418046875Q13.43170390625,12.333418046875,13.52830390625,12.352628046875Q13.62490390625,12.371838046875,13.71580390625,12.409528046875Q13.80680390625,12.447228046875,13.88870390625,12.501938046875Q13.97060390625,12.556658046875,14.04030390625,12.626308046875Q14.10990390625,12.695948046875,14.16460390625,12.777848046875Q14.21940390625,12.859748046875,14.25700390625,12.950748046875Q14.29470390625,13.041748046875,14.31400390625,13.138348046875Q14.33320390625,13.234948046875,14.33320390625,13.333448046875ZM3.66650390625,2.666748046875Q3.66650390625,2.765239446875,3.64728890625,2.861838046875Q3.62807390625,2.958437046875,3.59038290625,3.049431046875Q3.5526919062499998,3.140426046875,3.49797390625,3.222318046875Q3.44325490625,3.304211046875,3.37361090625,3.373855046875Q3.30396690625,3.443499046875,3.22207390625,3.498218046875Q3.14018190625,3.5529360468749998,3.04918690625,3.590627046875Q2.95819290625,3.628318046875,2.86159390625,3.647533046875Q2.76499530625,3.666748046875,2.66650390625,3.666748046875Q2.56801250625,3.666748046875,2.47141390625,3.647533046875Q2.37481490625,3.628318046875,2.28382090625,3.590627046875Q2.19282590625,3.5529360468749998,2.11093390625,3.498218046875Q2.02904090625,3.443499046875,1.9593969062499998,3.373855046875Q1.88975290625,3.304211046875,1.83503390625,3.222318046875Q1.78031590625,3.140426046875,1.74262490625,3.049431046875Q1.70493390625,2.958437046875,1.68571890625,2.861838046875Q1.66650390625,2.765239446875,1.66650390625,2.666748046875Q1.66650390625,2.568256646875,1.68571890625,2.471658046875Q1.70493390625,2.375059046875,1.74262490625,2.284065046875Q1.78031590625,2.193070046875,1.83503390625,2.111178046875Q1.88975290625,2.029285046875,1.9593969062499998,1.9596410468749998Q2.02904090625,1.889997046875,2.11093390625,1.835278046875Q2.19282590625,1.780560046875,2.28382090625,1.742869046875Q2.37481490625,1.705178046875,2.47141390625,1.685963046875Q2.56801250625,1.666748046875,2.66650390625,1.666748046875Q2.76499530625,1.666748046875,2.86159390625,1.685963046875Q2.95819290625,1.705178046875,3.04918690625,1.742869046875Q3.14018190625,1.780560046875,3.22207390625,1.835278046875Q3.30396690625,1.889997046875,3.37361090625,1.9596410468749998Q3.44325490625,2.029285046875,3.49797390625,2.111178046875Q3.5526919062499998,2.193070046875,3.59038290625,2.284065046875Q3.62807390625,2.375059046875,3.64728890625,2.471658046875Q3.66650390625,2.568256646875,3.66650390625,2.666748046875Z" fill="#999999" fill-opacity="1"/></g><g><path d="M14.04030390625,3.373855046875L3.37361090625,14.040548046875Q3.30396690625,14.110148046875,3.22207390625,14.164848046875Q3.14018190625,14.219648046875,3.04918690625,14.257248046875Q2.95819290625,14.294948046875,2.86159390625,14.314148046875Q2.76499530625,14.333448046875,2.66650390625,14.333448046875Q2.56801250625,14.333448046875,2.47141390625,14.314248046875Q2.37481490625,14.294948046875,2.28382090625,14.257248046875Q2.19282590625,14.219648046875,2.11093390625,14.164848046875Q2.02904090625,14.110148046875,1.9593969062499998,14.040548046875Q1.88975290625,13.970848046875,1.83503390625,13.888948046875Q1.78031590625,13.807048046875,1.74262490625,13.716048046875Q1.70493390625,13.625148046875,1.68571890625,13.528548046875Q1.66650390625,13.431948046875,1.66650390625,13.333448046875Q1.66650390625,13.234948046875,1.68571890625,13.138348046875Q1.70493390625,13.041748046875,1.74262490625,12.950748046875Q1.78031590625,12.859748046875,1.83503390625,12.777848046875Q1.88975290625,12.695948046875,1.9593969062499998,12.626308046875L12.62606390625,1.9596410468749998Q12.69570390625,1.889997046875,12.77760390625,1.835278046875Q12.85950390625,1.780560046875,12.95050390625,1.742869046875Q13.04150390625,1.705178046875,13.13810390625,1.685963046875Q13.23470390625,1.666748046875,13.33320390625,1.666748046875Q13.43170390625,1.666748046875,13.52830390625,1.685963046875Q13.62490390625,1.705178046875,13.71580390625,1.742869046875Q13.80680390625,1.780560046875,13.88870390625,1.835278046875Q13.97060390625,1.889997046875,14.04030390625,1.9596410468749998Q14.10990390625,2.029285046875,14.16460390625,2.111178046875Q14.21940390625,2.193070046875,14.25700390625,2.284065046875Q14.29470390625,2.375059046875,14.31390390625,2.471658046875Q14.33320390625,2.568256646875,14.33320390625,2.666748046875Q14.33320390625,2.765239446875,14.31400390625,2.861838046875Q14.29470390625,2.958437046875,14.25700390625,3.049431046875Q14.21940390625,3.140426046875,14.16460390625,3.222318046875Q14.10990390625,3.304211046875,14.04030390625,3.373855046875ZM14.33320390625,2.666748046875Q14.33320390625,2.765239446875,14.31400390625,2.861838046875Q14.29470390625,2.958437046875,14.25700390625,3.049431046875Q14.21940390625,3.140426046875,14.16460390625,3.222318046875Q14.10990390625,3.304211046875,14.04030390625,3.373855046875Q13.97060390625,3.443499046875,13.88870390625,3.498218046875Q13.80680390625,3.5529360468749998,13.71580390625,3.590627046875Q13.62490390625,3.628318046875,13.52830390625,3.647533046875Q13.43170390625,3.666748046875,13.33320390625,3.666748046875Q13.23470390625,3.666748046875,13.13810390625,3.647533046875Q13.04150390625,3.628318046875,12.95050390625,3.590627046875Q12.85950390625,3.5529360468749998,12.77760390625,3.498218046875Q12.69570390625,3.443499046875,12.62606390625,3.373855046875Q12.55641390625,3.304211046875,12.50169390625,3.222318046875Q12.44698390625,3.140426046875,12.40928390625,3.049431046875Q12.37159390625,2.958437046875,12.35238390625,2.861838046875Q12.33317390625,2.765239446875,12.33317390625,2.666748046875Q12.33317390625,2.568256646875,12.35238390625,2.471658046875Q12.37159390625,2.375059046875,12.40928390625,2.284065046875Q12.44698390625,2.193070046875,12.50169390625,2.111178046875Q12.55641390625,2.029285046875,12.62606390625,1.9596410468749998Q12.69570390625,1.889997046875,12.77760390625,1.835278046875Q12.85950390625,1.780560046875,12.95050390625,1.742869046875Q13.04150390625,1.705178046875,13.13810390625,1.685963046875Q13.23470390625,1.666748046875,13.33320390625,1.666748046875Q13.43170390625,1.666748046875,13.52830390625,1.685963046875Q13.62490390625,1.705178046875,13.71580390625,1.742869046875Q13.80680390625,1.780560046875,13.88870390625,1.835278046875Q13.97060390625,1.889997046875,14.04030390625,1.9596410468749998Q14.10990390625,2.029285046875,14.16460390625,2.111178046875Q14.21940390625,2.193070046875,14.25700390625,2.284065046875Q14.29470390625,2.375059046875,14.31400390625,2.471658046875Q14.33320390625,2.568256646875,14.33320390625,2.666748046875ZM3.66650390625,13.333448046875Q3.66650390625,13.431948046875,3.64728890625,13.528548046875Q3.62807390625,13.625148046875,3.59038290625,13.716048046875Q3.5526919062499998,13.807048046875,3.49797390625,13.888948046875Q3.44325490625,13.970848046875,3.37361090625,14.040548046875Q3.30396690625,14.110148046875,3.22207390625,14.164848046875Q3.14018190625,14.219648046875,3.04918690625,14.257248046875Q2.95819290625,14.294948046875,2.86159390625,14.314248046875Q2.76499530625,14.333448046875,2.66650390625,14.333448046875Q2.56801250625,14.333448046875,2.47141390625,14.314248046875Q2.37481490625,14.294948046875,2.28382090625,14.257248046875Q2.19282590625,14.219648046875,2.11093390625,14.164848046875Q2.02904090625,14.110148046875,1.9593969062499998,14.040548046875Q1.88975290625,13.970848046875,1.83503390625,13.888948046875Q1.78031590625,13.807048046875,1.74262490625,13.716048046875Q1.70493390625,13.625148046875,1.68571890625,13.528548046875Q1.66650390625,13.431948046875,1.66650390625,13.333448046875Q1.66650390625,13.234948046875,1.68571890625,13.138348046875Q1.70493390625,13.041748046875,1.74262490625,12.950748046875Q1.78031590625,12.859748046875,1.83503390625,12.777848046875Q1.88975290625,12.695948046875,1.9593969062499998,12.626308046875Q2.02904090625,12.556658046875,2.11093390625,12.501938046875Q2.19282590625,12.447228046875,2.28382090625,12.409528046875Q2.37481490625,12.371838046875,2.47141390625,12.352628046875Q2.56801250625,12.333418046875,2.66650390625,12.333418046875Q2.76499530625,12.333418046875,2.86159390625,12.352628046875Q2.95819290625,12.371838046875,3.04918690625,12.409528046875Q3.14018190625,12.447228046875,3.22207390625,12.501938046875Q3.30396690625,12.556658046875,3.37361090625,12.626308046875Q3.44325490625,12.695948046875,3.49797390625,12.777848046875Q3.5526919062499998,12.859748046875,3.59038290625,12.950748046875Q3.62807390625,13.041748046875,3.64728890625,13.138348046875Q3.66650390625,13.234948046875,3.66650390625,13.333448046875Z" fill="#999999" fill-opacity="1"/></g></g></g></svg>