<svg xmlns="http://www.w3.org/2000/svg" xmlns:xlink="http://www.w3.org/1999/xlink" fill="none" version="1.1" width="21" height="10" viewBox="0 0 21 10"><defs><linearGradient x1="0.5" y1="0" x2="0.5" y2="1" id="master_svg0_1584_00010"><stop offset="0%" stop-color="#FF6D2E" stop-opacity="1"/><stop offset="100%" stop-color="#FA2323" stop-opacity="1"/></linearGradient></defs><g style="mix-blend-mode:passthrough"><g style="mix-blend-mode:passthrough"><g style="mix-blend-mode:passthrough"><path d="M16,10L0,10L0,5C0,2.23858,2.23858,0,5,0L16,0C18.7614,0,21,2.23858,21,5C21,7.76142,18.7614,10,16,10ZM4.66721,7.69862L2.80002,7.69862L2.80002,2.14307L4.53861,2.14307C5.67871,2.14307,6.5072,2.51757,6.5072,3.52203C6.5072,4.06271,6.21784,4.57362,5.70839,4.74227L5.70839,4.77948C6.34645,4.90844,6.81139,5.34495,6.81139,6.08404C6.81139,7.16539,5.91365,7.69862,4.66721,7.69862ZM14.2876,7.69862C14.06,7.77551,13.7707,7.85735,13.4665,7.85735C12.5317,7.85735,12.1978,7.2646,12.1978,6.38662L12.1978,4.28096L11.5894,4.28096L11.5894,3.6262L12.2448,3.57164L12.3412,2.41588L13.0708,2.41588L13.0708,3.57164L14.159,3.57164L14.159,4.28096L13.0708,4.28096L13.0708,6.39406C13.0708,6.89257,13.2464,7.15051,13.6866,7.15051C13.8251,7.15051,14.0056,7.09594,14.1268,7.0513L14.2876,7.69862ZM3.68044,2.83751L3.68044,4.4893L4.43226,4.4893C5.28301,4.4893,5.64161,4.16936,5.64161,3.64356C5.64161,3.06569,5.24592,2.83751,4.45452,2.83751L3.68044,2.83751ZM10.9415,7.40844C10.5606,7.66886,10.0759,7.85735,9.53427,7.85735C8.38675,7.85735,7.49149,7.04634,7.49149,5.69961C7.49149,4.2636,8.42632,3.41291,9.39825,3.41291C10.5087,3.41291,11.1072,4.22144,11.1072,5.47888C11.1072,5.65497,11.0849,5.82114,11.0626,5.92779L8.34966,5.92779C8.4189,6.7016,8.92094,7.16539,9.64062,7.16539C10.0141,7.16539,10.3331,7.05378,10.6373,6.86281L10.9415,7.40844ZM17.3864,7.27204C17.0055,7.59942,16.5579,7.85735,16.0558,7.85735C15.3337,7.85735,14.8242,7.37868,14.8242,6.58999C14.8242,5.68721,15.5859,5.22342,17.3245,5.03493C17.3171,4.55626,17.144,4.12967,16.5282,4.12967C16.0855,4.12967,15.6775,4.32809,15.3189,4.55626L14.9924,3.9635C15.4252,3.68821,16.0113,3.41291,16.6791,3.41291C17.7202,3.41291,18.2,4.07015,18.2,5.18622L18.2,7.69862L17.4853,7.69862L17.416,7.27204L17.3864,7.27204ZM9.41309,4.10735C8.88879,4.10735,8.42632,4.53394,8.34224,5.31767L10.3479,5.31767C10.3479,4.54882,10.0215,4.10735,9.41309,4.10735ZM3.68044,5.15894L3.68044,7.00666L4.56829,7.00666C5.44376,7.00666,5.94333,6.70408,5.94333,6.0394C5.94333,5.43424,5.4586,5.15894,4.56829,5.15894L3.68044,5.15894ZM15.6676,6.56271C15.6676,6.98682,15.9495,7.15795,16.3229,7.15795C16.6865,7.15795,16.9833,6.97938,17.3245,6.65448L17.3245,5.62025C16.0855,5.76658,15.6676,6.09148,15.6676,6.56271Z" fill-rule="evenodd" fill="url(#master_svg0_1584_00010)" fill-opacity="1"/></g></g></g></svg>