<svg xmlns="http://www.w3.org/2000/svg" xmlns:xlink="http://www.w3.org/1999/xlink" fill="none" version="1.1" width="16" height="16" viewBox="0 0 16 16"><defs><clipPath id="master_svg0_862_03405"><rect x="0" y="0" width="16" height="16" rx="0"/></clipPath></defs><g clip-path="url(#master_svg0_862_03405)"><g><path d="M6.017849375,6.02597L4.003859375,6.02597L4.003859375,3.67632Q4.003859375,2.90909,4.307559375,2.24575Q4.611249375,1.58242,5.146719375,1.07892Q5.6821793750000005,0.575424,6.409459375,0.287712Q7.136729375,1.19209e-7,7.999869375,0Q8.767099375,0,9.478389374999999,0.287712Q10.189679375,0.575425,10.741119375,1.07892Q11.292569375,1.58242,11.620249375,2.24575Q11.947919375,2.90909,11.947919375,3.67632L11.947919375,6.02597L10.013849375,6.02597L10.013849375,4.12388Q10.013849375,3.11688,9.454409375000001,2.56543Q8.894969374999999,2.01399,7.935929375,2.01399Q7.072789375,2.01399,6.545319375,2.56543Q6.017849375,3.11688,6.017849375,4.12388L6.017849375,6.02597ZM12.906959375,6.98501Q13.338559375,6.98501,13.650259375,7.2967Q13.961859375,7.60839,13.961859375,8.03996L13.961859375,12.995Q13.961859375,13.4266,13.810059375,13.8022Q13.658159375,14.1778,13.394459375,14.4575Q13.130759375,14.7373,12.771059375,14.8971Q12.411459375,15.0569,11.979889375,15.0569L3.907959375,15.0569Q3.476389375,15.0569,3.124739375,14.8971Q2.773092375,14.7373,2.525339375,14.4735Q2.277587375,14.2098,2.141723375,13.8581Q2.005859136581,13.5065,2.005859375,13.1069L2.005859375,8.03996Q2.005859375,7.60839,2.309555375,7.2967Q2.613252375,6.98502,3.0448193750000003,6.98502L4.003859375,6.98502L6.017849375,6.98502L10.013849375,6.98502L11.947919375,6.98502L12.906959375,6.98501Z" fill="#FFFFFF" fill-opacity="1"/></g></g></svg>