<svg xmlns="http://www.w3.org/2000/svg" xmlns:xlink="http://www.w3.org/1999/xlink" fill="none" version="1.1" width="30" height="30" viewBox="0 0 30 30"><g style="mix-blend-mode:passthrough"><g style="mix-blend-mode:passthrough"><rect x="0" y="0" width="30" height="30" rx="0" fill="#D8D8D8" fill-opacity="0"/></g><g style="mix-blend-mode:passthrough"><rect x="5.75" y="2.75" width="18.5" height="24.5" rx="1.25" fill-opacity="0" stroke-opacity="1" stroke="#F09736" fill="none" stroke-width="1.5"/></g><g style="mix-blend-mode:passthrough"><path d="M11.27344,6.43359L8,15L9.5,15L10.27734,12.85547L13.86719,12.85547L14.64844,15L16.14844,15L12.871089999999999,6.43359L11.27344,6.43359ZM10.69922,11.70312L12.05469,7.94531L12.10156,7.94531L13.44531,11.70312L10.69922,11.70312Z" fill="#F09736" fill-opacity="1"/></g><g style="mix-blend-mode:passthrough"><path d="M22,8.75L18,8.75L18,7.25L22,7.25L22,8.75ZM22.75,8Q22.75,8.0738685,22.735590000000002,8.146318Q22.72118,8.218767,22.69291,8.287013Q22.66464,8.355258,22.6236,8.416678Q22.58256,8.478097,22.53033,8.53033Q22.4781,8.582563,22.41668,8.623602Q22.35526,8.664641,22.287010000000002,8.69291Q22.21877,8.721178,22.14632,8.735589000000001Q22.07387,8.75,22,8.75Q21.92613,8.75,21.85368,8.735589000000001Q21.78123,8.721178,21.71299,8.69291Q21.64474,8.664641,21.58332,8.623602Q21.5219,8.582563,21.46967,8.53033Q21.41744,8.478097,21.3764,8.416678Q21.33536,8.355258,21.30709,8.287013Q21.27882,8.218767,21.264409999999998,8.146318Q21.25,8.0738685,21.25,8Q21.25,7.9261315,21.264409999999998,7.853682Q21.27882,7.781233,21.30709,7.712987Q21.33536,7.644742,21.3764,7.583322Q21.41744,7.521903,21.46967,7.46967Q21.5219,7.417437,21.58332,7.376398Q21.64474,7.335359,21.71299,7.30709Q21.78123,7.278822,21.85368,7.264411Q21.92613,7.25,22,7.25Q22.07387,7.25,22.14632,7.264411Q22.21877,7.278822,22.287010000000002,7.30709Q22.35526,7.335359,22.41668,7.376398Q22.4781,7.417437,22.53033,7.46967Q22.58256,7.521903,22.6236,7.583322Q22.66464,7.644742,22.69291,7.712987Q22.72118,7.781233,22.735590000000002,7.853682Q22.75,7.9261315,22.75,8ZM18.75,8Q18.75,8.0738685,18.735589,8.146318Q18.721178,8.218767,18.69291,8.287013Q18.664641,8.355258,18.623601999999998,8.416678Q18.582563,8.478097,18.53033,8.53033Q18.478096999999998,8.582563,18.416678,8.623602Q18.355258,8.664641,18.287013,8.69291Q18.218767,8.721178,18.146318,8.735589000000001Q18.0738685,8.75,18,8.75Q17.9261315,8.75,17.853682,8.735589000000001Q17.781233,8.721178,17.712987,8.69291Q17.644742,8.664641,17.583322,8.623602Q17.521903000000002,8.582563,17.46967,8.53033Q17.417437,8.478097,17.376398000000002,8.416678Q17.335359,8.355258,17.30709,8.287013Q17.278822,8.218767,17.264411,8.146318Q17.25,8.0738685,17.25,8Q17.25,7.9261315,17.264411,7.853682Q17.278822,7.781233,17.30709,7.712987Q17.335359,7.644742,17.376398000000002,7.583322Q17.417437,7.521903,17.46967,7.46967Q17.521903000000002,7.417437,17.583322,7.376398Q17.644742,7.335359,17.712987,7.30709Q17.781233,7.278822,17.853682,7.264411Q17.9261315,7.25,18,7.25Q18.0738685,7.25,18.146318,7.264411Q18.218767,7.278822,18.287013,7.30709Q18.355258,7.335359,18.416678,7.376398Q18.478096999999998,7.417437,18.53033,7.46967Q18.582563,7.521903,18.623601999999998,7.583322Q18.664641,7.644742,18.69291,7.712987Q18.721178,7.781233,18.735589,7.853682Q18.75,7.9261315,18.75,8Z" fill="#F09736" fill-opacity="1"/></g><g style="mix-blend-mode:passthrough"><path d="M22,17.75L8,17.75L8,16.25L22,16.25L22,17.75ZM22.75,17Q22.75,17.0738685,22.735599999999998,17.146318Q22.7212,17.218767,22.6929,17.287013Q22.6646,17.355258,22.6236,17.416678Q22.5826,17.478096999999998,22.5303,17.53033Q22.478099999999998,17.582563,22.4167,17.623601999999998Q22.3553,17.664641,22.287,17.69291Q22.2188,17.721178,22.1463,17.735589Q22.073900000000002,17.75,22,17.75Q21.926099999999998,17.75,21.8537,17.735589Q21.7812,17.721178,21.713,17.69291Q21.6447,17.664641,21.5833,17.623601999999998Q21.521900000000002,17.582563,21.4697,17.53033Q21.4174,17.478096999999998,21.3764,17.416678Q21.3354,17.355258,21.3071,17.287013Q21.2788,17.218767,21.264400000000002,17.146318Q21.25,17.0738685,21.25,17Q21.25,16.9261315,21.264400000000002,16.853682Q21.2788,16.781233,21.3071,16.712987Q21.3354,16.644742,21.3764,16.583322Q21.4174,16.521903000000002,21.4697,16.46967Q21.521900000000002,16.417437,21.5833,16.376398000000002Q21.6447,16.335359,21.713,16.30709Q21.7812,16.278822,21.8537,16.264411Q21.926099999999998,16.25,22,16.25Q22.073900000000002,16.25,22.1463,16.264411Q22.2188,16.278822,22.287,16.30709Q22.3553,16.335359,22.4167,16.376398000000002Q22.478099999999998,16.417437,22.5303,16.46967Q22.5826,16.521903000000002,22.6236,16.583322Q22.6646,16.644742,22.6929,16.712987Q22.7212,16.781233,22.735599999999998,16.853682Q22.75,16.9261315,22.75,17ZM8.75,17Q8.75,17.0738685,8.735589000000001,17.146318Q8.721178,17.218767,8.69291,17.287013Q8.664641,17.355258,8.623602,17.416678Q8.582563,17.478096999999998,8.53033,17.53033Q8.478097,17.582563,8.416678,17.623601999999998Q8.355258,17.664641,8.287013,17.69291Q8.218767,17.721178,8.146318,17.735589Q8.0738685,17.75,8,17.75Q7.9261315,17.75,7.853682,17.735589Q7.781233,17.721178,7.712987,17.69291Q7.644742,17.664641,7.583322,17.623601999999998Q7.521903,17.582563,7.46967,17.53033Q7.417437,17.478096999999998,7.376398,17.416678Q7.335359,17.355258,7.30709,17.287013Q7.278822,17.218767,7.264411,17.146318Q7.25,17.0738685,7.25,17Q7.25,16.9261315,7.264411,16.853682Q7.278822,16.781233,7.30709,16.712987Q7.335359,16.644742,7.376398,16.583322Q7.417437,16.521903000000002,7.46967,16.46967Q7.521903,16.417437,7.583322,16.376398000000002Q7.644742,16.335359,7.712987,16.30709Q7.781233,16.278822,7.853682,16.264411Q7.9261315,16.25,8,16.25Q8.0738685,16.25,8.146318,16.264411Q8.218767,16.278822,8.287013,16.30709Q8.355258,16.335359,8.416678,16.376398000000002Q8.478097,16.417437,8.53033,16.46967Q8.582563,16.521903000000002,8.623602,16.583322Q8.664641,16.644742,8.69291,16.712987Q8.721178,16.781233,8.735589000000001,16.853682Q8.75,16.9261315,8.75,17Z" fill="#F09736" fill-opacity="1"/></g><g style="mix-blend-mode:passthrough"><path d="M22,20.75L8,20.75L8,19.25L22,19.25L22,20.75ZM22.75,20Q22.75,20.0738685,22.735599999999998,20.146318Q22.7212,20.218767,22.6929,20.287013Q22.6646,20.355258,22.6236,20.416678Q22.5826,20.478096999999998,22.5303,20.53033Q22.478099999999998,20.582563,22.4167,20.623601999999998Q22.3553,20.664641,22.287,20.69291Q22.2188,20.721178,22.1463,20.735589Q22.073900000000002,20.75,22,20.75Q21.926099999999998,20.75,21.8537,20.735589Q21.7812,20.721178,21.713,20.69291Q21.6447,20.664641,21.5833,20.623601999999998Q21.521900000000002,20.582563,21.4697,20.53033Q21.4174,20.478096999999998,21.3764,20.416678Q21.3354,20.355258,21.3071,20.287013Q21.2788,20.218767,21.264400000000002,20.146318Q21.25,20.0738685,21.25,20Q21.25,19.9261315,21.264400000000002,19.853682Q21.2788,19.781233,21.3071,19.712987Q21.3354,19.644742,21.3764,19.583322Q21.4174,19.521903000000002,21.4697,19.46967Q21.521900000000002,19.417437,21.5833,19.376398000000002Q21.6447,19.335359,21.713,19.30709Q21.7812,19.278822,21.8537,19.264411Q21.926099999999998,19.25,22,19.25Q22.073900000000002,19.25,22.1463,19.264411Q22.2188,19.278822,22.287,19.30709Q22.3553,19.335359,22.4167,19.376398000000002Q22.478099999999998,19.417437,22.5303,19.46967Q22.5826,19.521903000000002,22.6236,19.583322Q22.6646,19.644742,22.6929,19.712987Q22.7212,19.781233,22.735599999999998,19.853682Q22.75,19.9261315,22.75,20ZM8.75,20Q8.75,20.0738685,8.735589000000001,20.146318Q8.721178,20.218767,8.69291,20.287013Q8.664641,20.355258,8.623602,20.416678Q8.582563,20.478096999999998,8.53033,20.53033Q8.478097,20.582563,8.416678,20.623601999999998Q8.355258,20.664641,8.287013,20.69291Q8.218767,20.721178,8.146318,20.735589Q8.0738685,20.75,8,20.75Q7.9261315,20.75,7.853682,20.735589Q7.781233,20.721178,7.712987,20.69291Q7.644742,20.664641,7.583322,20.623601999999998Q7.521903,20.582563,7.46967,20.53033Q7.417437,20.478096999999998,7.376398,20.416678Q7.335359,20.355258,7.30709,20.287013Q7.278822,20.218767,7.264411,20.146318Q7.25,20.0738685,7.25,20Q7.25,19.9261315,7.264411,19.853682Q7.278822,19.781233,7.30709,19.712987Q7.335359,19.644742,7.376398,19.583322Q7.417437,19.521903000000002,7.46967,19.46967Q7.521903,19.417437,7.583322,19.376398000000002Q7.644742,19.335359,7.712987,19.30709Q7.781233,19.278822,7.853682,19.264411Q7.9261315,19.25,8,19.25Q8.0738685,19.25,8.146318,19.264411Q8.218767,19.278822,8.287013,19.30709Q8.355258,19.335359,8.416678,19.376398000000002Q8.478097,19.417437,8.53033,19.46967Q8.582563,19.521903000000002,8.623602,19.583322Q8.664641,19.644742,8.69291,19.712987Q8.721178,19.781233,8.735589000000001,19.853682Q8.75,19.9261315,8.75,20Z" fill="#F09736" fill-opacity="1"/></g><g style="mix-blend-mode:passthrough"><path d="M22,23.75L8,23.75L8,22.25L22,22.25L22,23.75ZM22.75,23Q22.75,23.0738685,22.735599999999998,23.146318Q22.7212,23.218767,22.6929,23.287013Q22.6646,23.355258,22.6236,23.416678Q22.5826,23.478096999999998,22.5303,23.53033Q22.478099999999998,23.582563,22.4167,23.623601999999998Q22.3553,23.664641,22.287,23.69291Q22.2188,23.721178,22.1463,23.735589Q22.073900000000002,23.75,22,23.75Q21.926099999999998,23.75,21.8537,23.735589Q21.7812,23.721178,21.713,23.69291Q21.6447,23.664641,21.5833,23.623601999999998Q21.521900000000002,23.582563,21.4697,23.53033Q21.4174,23.478096999999998,21.3764,23.416678Q21.3354,23.355258,21.3071,23.287013Q21.2788,23.218767,21.264400000000002,23.146318Q21.25,23.0738685,21.25,23Q21.25,22.9261315,21.264400000000002,22.853682Q21.2788,22.781233,21.3071,22.712987Q21.3354,22.644742,21.3764,22.583322Q21.4174,22.521903000000002,21.4697,22.46967Q21.521900000000002,22.417437,21.5833,22.376398000000002Q21.6447,22.335359,21.713,22.30709Q21.7812,22.278822,21.8537,22.264411Q21.926099999999998,22.25,22,22.25Q22.073900000000002,22.25,22.1463,22.264411Q22.2188,22.278822,22.287,22.30709Q22.3553,22.335359,22.4167,22.376398000000002Q22.478099999999998,22.417437,22.5303,22.46967Q22.5826,22.521903000000002,22.6236,22.583322Q22.6646,22.644742,22.6929,22.712987Q22.7212,22.781233,22.735599999999998,22.853682Q22.75,22.9261315,22.75,23ZM8.75,23Q8.75,23.0738685,8.735589000000001,23.146318Q8.721178,23.218767,8.69291,23.287013Q8.664641,23.355258,8.623602,23.416678Q8.582563,23.478096999999998,8.53033,23.53033Q8.478097,23.582563,8.416678,23.623601999999998Q8.355258,23.664641,8.287013,23.69291Q8.218767,23.721178,8.146318,23.735589Q8.0738685,23.75,8,23.75Q7.9261315,23.75,7.853682,23.735589Q7.781233,23.721178,7.712987,23.69291Q7.644742,23.664641,7.583322,23.623601999999998Q7.521903,23.582563,7.46967,23.53033Q7.417437,23.478096999999998,7.376398,23.416678Q7.335359,23.355258,7.30709,23.287013Q7.278822,23.218767,7.264411,23.146318Q7.25,23.0738685,7.25,23Q7.25,22.9261315,7.264411,22.853682Q7.278822,22.781233,7.30709,22.712987Q7.335359,22.644742,7.376398,22.583322Q7.417437,22.521903000000002,7.46967,22.46967Q7.521903,22.417437,7.583322,22.376398000000002Q7.644742,22.335359,7.712987,22.30709Q7.781233,22.278822,7.853682,22.264411Q7.9261315,22.25,8,22.25Q8.0738685,22.25,8.146318,22.264411Q8.218767,22.278822,8.287013,22.30709Q8.355258,22.335359,8.416678,22.376398000000002Q8.478097,22.417437,8.53033,22.46967Q8.582563,22.521903000000002,8.623602,22.583322Q8.664641,22.644742,8.69291,22.712987Q8.721178,22.781233,8.735589000000001,22.853682Q8.75,22.9261315,8.75,23Z" fill="#F09736" fill-opacity="1"/></g><g style="mix-blend-mode:passthrough"><path d="M22,11.75L18,11.75L18,10.25L22,10.25L22,11.75ZM22.75,11Q22.75,11.0738685,22.735590000000002,11.146318Q22.72118,11.218767,22.69291,11.287013Q22.66464,11.355258,22.6236,11.416678Q22.58256,11.478097,22.53033,11.53033Q22.4781,11.582563,22.41668,11.623602Q22.35526,11.664641,22.287010000000002,11.69291Q22.21877,11.721178,22.14632,11.735589000000001Q22.07387,11.75,22,11.75Q21.92613,11.75,21.85368,11.735589000000001Q21.78123,11.721178,21.71299,11.69291Q21.64474,11.664641,21.58332,11.623602Q21.5219,11.582563,21.46967,11.53033Q21.41744,11.478097,21.3764,11.416678Q21.33536,11.355258,21.30709,11.287013Q21.27882,11.218767,21.264409999999998,11.146318Q21.25,11.0738685,21.25,11Q21.25,10.9261315,21.264409999999998,10.853682Q21.27882,10.781233,21.30709,10.712987Q21.33536,10.644742,21.3764,10.583322Q21.41744,10.521903,21.46967,10.46967Q21.5219,10.417437,21.58332,10.376398Q21.64474,10.335359,21.71299,10.30709Q21.78123,10.278822,21.85368,10.264410999999999Q21.92613,10.25,22,10.25Q22.07387,10.25,22.14632,10.264410999999999Q22.21877,10.278822,22.287010000000002,10.30709Q22.35526,10.335359,22.41668,10.376398Q22.4781,10.417437,22.53033,10.46967Q22.58256,10.521903,22.6236,10.583322Q22.66464,10.644742,22.69291,10.712987Q22.72118,10.781233,22.735590000000002,10.853682Q22.75,10.9261315,22.75,11ZM18.75,11Q18.75,11.0738685,18.735589,11.146318Q18.721178,11.218767,18.69291,11.287013Q18.664641,11.355258,18.623601999999998,11.416678Q18.582563,11.478097,18.53033,11.53033Q18.478096999999998,11.582563,18.416678,11.623602Q18.355258,11.664641,18.287013,11.69291Q18.218767,11.721178,18.146318,11.735589000000001Q18.0738685,11.75,18,11.75Q17.9261315,11.75,17.853682,11.735589000000001Q17.781233,11.721178,17.712987,11.69291Q17.644742,11.664641,17.583322,11.623602Q17.521903000000002,11.582563,17.46967,11.53033Q17.417437,11.478097,17.376398000000002,11.416678Q17.335359,11.355258,17.30709,11.287013Q17.278822,11.218767,17.264411,11.146318Q17.25,11.0738685,17.25,11Q17.25,10.9261315,17.264411,10.853682Q17.278822,10.781233,17.30709,10.712987Q17.335359,10.644742,17.376398000000002,10.583322Q17.417437,10.521903,17.46967,10.46967Q17.521903000000002,10.417437,17.583322,10.376398Q17.644742,10.335359,17.712987,10.30709Q17.781233,10.278822,17.853682,10.264410999999999Q17.9261315,10.25,18,10.25Q18.0738685,10.25,18.146318,10.264410999999999Q18.218767,10.278822,18.287013,10.30709Q18.355258,10.335359,18.416678,10.376398Q18.478096999999998,10.417437,18.53033,10.46967Q18.582563,10.521903,18.623601999999998,10.583322Q18.664641,10.644742,18.69291,10.712987Q18.721178,10.781233,18.735589,10.853682Q18.75,10.9261315,18.75,11Z" fill="#F09736" fill-opacity="1"/></g><g style="mix-blend-mode:passthrough"><path d="M22,14.75L18,14.75L18,13.25L22,13.25L22,14.75ZM22.75,14Q22.75,14.0738685,22.735590000000002,14.146318Q22.72118,14.218767,22.69291,14.287013Q22.66464,14.355258,22.6236,14.416678Q22.58256,14.478097,22.53033,14.53033Q22.4781,14.582563,22.41668,14.623602Q22.35526,14.664641,22.287010000000002,14.69291Q22.21877,14.721178,22.14632,14.735589000000001Q22.07387,14.75,22,14.75Q21.92613,14.75,21.85368,14.735589000000001Q21.78123,14.721178,21.71299,14.69291Q21.64474,14.664641,21.58332,14.623602Q21.5219,14.582563,21.46967,14.53033Q21.41744,14.478097,21.3764,14.416678Q21.33536,14.355258,21.30709,14.287013Q21.27882,14.218767,21.264409999999998,14.146318Q21.25,14.0738685,21.25,14Q21.25,13.9261315,21.264409999999998,13.853682Q21.27882,13.781233,21.30709,13.712987Q21.33536,13.644742,21.3764,13.583322Q21.41744,13.521903,21.46967,13.46967Q21.5219,13.417437,21.58332,13.376398Q21.64474,13.335359,21.71299,13.30709Q21.78123,13.278822,21.85368,13.264410999999999Q21.92613,13.25,22,13.25Q22.07387,13.25,22.14632,13.264410999999999Q22.21877,13.278822,22.287010000000002,13.30709Q22.35526,13.335359,22.41668,13.376398Q22.4781,13.417437,22.53033,13.46967Q22.58256,13.521903,22.6236,13.583322Q22.66464,13.644742,22.69291,13.712987Q22.72118,13.781233,22.735590000000002,13.853682Q22.75,13.9261315,22.75,14ZM18.75,14Q18.75,14.0738685,18.735589,14.146318Q18.721178,14.218767,18.69291,14.287013Q18.664641,14.355258,18.623601999999998,14.416678Q18.582563,14.478097,18.53033,14.53033Q18.478096999999998,14.582563,18.416678,14.623602Q18.355258,14.664641,18.287013,14.69291Q18.218767,14.721178,18.146318,14.735589000000001Q18.0738685,14.75,18,14.75Q17.9261315,14.75,17.853682,14.735589000000001Q17.781233,14.721178,17.712987,14.69291Q17.644742,14.664641,17.583322,14.623602Q17.521903000000002,14.582563,17.46967,14.53033Q17.417437,14.478097,17.376398000000002,14.416678Q17.335359,14.355258,17.30709,14.287013Q17.278822,14.218767,17.264411,14.146318Q17.25,14.0738685,17.25,14Q17.25,13.9261315,17.264411,13.853682Q17.278822,13.781233,17.30709,13.712987Q17.335359,13.644742,17.376398000000002,13.583322Q17.417437,13.521903,17.46967,13.46967Q17.521903000000002,13.417437,17.583322,13.376398Q17.644742,13.335359,17.712987,13.30709Q17.781233,13.278822,17.853682,13.264410999999999Q17.9261315,13.25,18,13.25Q18.0738685,13.25,18.146318,13.264410999999999Q18.218767,13.278822,18.287013,13.30709Q18.355258,13.335359,18.416678,13.376398Q18.478096999999998,13.417437,18.53033,13.46967Q18.582563,13.521903,18.623601999999998,13.583322Q18.664641,13.644742,18.69291,13.712987Q18.721178,13.781233,18.735589,13.853682Q18.75,13.9261315,18.75,14Z" fill="#F09736" fill-opacity="1"/></g></g></svg>