<svg xmlns="http://www.w3.org/2000/svg" xmlns:xlink="http://www.w3.org/1999/xlink" fill="none" version="1.1" width="16" height="16" viewBox="0 0 16 16"><g style="mix-blend-mode:passthrough"><g><rect x="0" y="0" width="16" height="16" rx="0" fill="#FFFFFF" fill-opacity="0.009999999776482582"/></g><g><path d="M14.397699761581421,4.647748L6.897749761581421,12.14775Q6.858569761581421,12.18692,6.8125097615814205,12.2177Q6.766439761581421,12.24848,6.715259761581421,12.26968Q6.6640697615814215,12.29088,6.609739761581421,12.30169Q6.5553997615814215,12.3125,6.499999761581421,12.3125Q6.44459976158142,12.3125,6.3902597615814205,12.30169Q6.335919761581421,12.29088,6.284739761581421,12.26968Q6.2335597615814216,12.24848,6.187489761581421,12.2177Q6.141429761581421,12.18692,6.102249761581421,12.14775L2.352251761581421,8.39775Q2.313077761581421,8.35857,2.282297761581421,8.31251Q2.251518761581421,8.26644,2.230317761581421,8.21526Q2.209116761581421,8.16407,2.198307761581421,8.10974Q2.187499761581421,8.0554,2.187499761581421,8Q2.187499761581421,7.944599999999999,2.198307761581421,7.89026Q2.209116761581421,7.83592,2.230317761581421,7.78474Q2.251518761581421,7.733560000000001,2.282297761581421,7.68749Q2.313077761581421,7.64143,2.352251761581421,7.60225Q2.391426761581421,7.563079999999999,2.4374917615814207,7.5323Q2.483555761581421,7.50152,2.534740761581421,7.48032Q2.585924761581421,7.45912,2.640261761581421,7.44831Q2.694598361581421,7.4375,2.749999761581421,7.4375Q2.805401161581421,7.4375,2.859737761581421,7.44831Q2.914074761581421,7.45912,2.965258761581421,7.48032Q3.016443761581421,7.50152,3.062507761581421,7.5323Q3.1085727615814207,7.563079999999999,3.147747761581421,7.60225L6.897749761581421,11.35225L6.499999761581421,11.75L6.102249761581421,11.35225L13.60229976158142,3.852252Q13.641399761581422,3.813078,13.687499761581421,3.782298Q13.73359976158142,3.751519,13.784699761581422,3.730318Q13.835899761581421,3.709117,13.89029976158142,3.698308Q13.94459976158142,3.6875,13.999999761581421,3.6875Q14.055399761581421,3.6875,14.109699761581421,3.698308Q14.16409976158142,3.709117,14.21529976158142,3.730318Q14.266399761581422,3.751519,14.312499761581421,3.782298Q14.35859976158142,3.813078,14.397699761581421,3.852252Q14.43689976158142,3.891427,14.467699761581422,3.9374919999999998Q14.49849976158142,3.983556,14.519699761581421,4.034741Q14.540899761581422,4.085925,14.551699761581421,4.140262Q14.562499761581421,4.1945986,14.562499761581421,4.2500000174578Q14.562499761581421,4.3054014,14.551699761581421,4.359738Q14.540899761581422,4.414075,14.519699761581421,4.465259Q14.49849976158142,4.516444,14.467699761581422,4.562508Q14.43689976158142,4.608573,14.397699761581421,4.647748ZM14.56499976158142,4.25Q14.56499976158142,4.3056476,14.554099761581421,4.360226Q14.543299761581421,4.414804,14.521999761581421,4.466216Q14.500699761581421,4.517628,14.46979976158142,4.563897Q14.438899761581421,4.6101659999999995,14.39949976158142,4.649515Q14.360199761581422,4.688864,14.313899761581421,4.71978Q14.26759976158142,4.750696,14.216199761581422,4.771992Q14.16479976158142,4.793287,14.110199761581422,4.804144Q14.055599761581421,4.8149999999999995,13.999999761581421,4.8149999999999995Q13.94439976158142,4.8149999999999995,13.88979976158142,4.804144Q13.835199761581421,4.793287,13.78379976158142,4.771992Q13.732399761581421,4.750696,13.68609976158142,4.71978Q13.63979976158142,4.688864,13.600499761581421,4.649515Q13.56109976158142,4.6101659999999995,13.530199761581422,4.563897Q13.49929976158142,4.517628,13.47799976158142,4.466216Q13.45669976158142,4.414804,13.44589976158142,4.360226Q13.434999761581421,4.3056476,13.434999761581421,4.25Q13.434999761581421,4.1943524,13.44589976158142,4.139774Q13.45669976158142,4.085196,13.47799976158142,4.033784Q13.49929976158142,3.982372,13.530199761581422,3.936103Q13.56109976158142,3.889834,13.600499761581421,3.850485Q13.63979976158142,3.811136,13.68609976158142,3.78022Q13.732399761581421,3.749304,13.78379976158142,3.728008Q13.835199761581421,3.706713,13.88979976158142,3.695856Q13.94439976158142,3.685,13.999999761581421,3.685Q14.055599761581421,3.685,14.110199761581422,3.695856Q14.16479976158142,3.706713,14.216199761581422,3.728008Q14.26759976158142,3.749304,14.313899761581421,3.78022Q14.360199761581422,3.811136,14.39949976158142,3.850485Q14.438899761581421,3.889834,14.46979976158142,3.936103Q14.500699761581421,3.982372,14.521999761581421,4.033784Q14.543299761581421,4.085196,14.554099761581421,4.139774Q14.56499976158142,4.1943524,14.56499976158142,4.25ZM3.314999761581421,8Q3.314999761581421,8.05565,3.304143761581421,8.11023Q3.2932867615814208,8.1648,3.271991761581421,8.21622Q3.250695761581421,8.26763,3.219779761581421,8.3139Q3.188863761581421,8.36017,3.149514761581421,8.39951Q3.110165761581421,8.43886,3.0638967615814208,8.46978Q3.017627761581421,8.5007,2.966215761581421,8.521989999999999Q2.914803761581421,8.543289999999999,2.860225761581421,8.55414Q2.805647361581421,8.565000000000001,2.749999761581421,8.565000000000001Q2.694352161581421,8.565000000000001,2.639773761581421,8.55414Q2.5851957615814207,8.543289999999999,2.5337837615814207,8.521989999999999Q2.4823717615814207,8.5007,2.436102761581421,8.46978Q2.389833761581421,8.43886,2.350484761581421,8.39951Q2.3111357615814208,8.36017,2.280219761581421,8.3139Q2.249303761581421,8.26763,2.228007761581421,8.21622Q2.206712761581421,8.1648,2.195855761581421,8.11023Q2.184999761581421,8.05565,2.184999761581421,8Q2.184999761581421,7.94435,2.195855761581421,7.88977Q2.206712761581421,7.83519,2.228007761581421,7.78378Q2.249303761581421,7.7323699999999995,2.280219761581421,7.6861Q2.3111357615814208,7.63983,2.350484761581421,7.60048Q2.389833761581421,7.56114,2.436102761581421,7.53022Q2.4823717615814207,7.4993,2.5337837615814207,7.478009999999999Q2.5851957615814207,7.45671,2.639773761581421,7.44586Q2.694352161581421,7.4350000000000005,2.749999761581421,7.4350000000000005Q2.805647361581421,7.4350000000000005,2.860225761581421,7.44586Q2.914803761581421,7.45671,2.966215761581421,7.478009999999999Q3.017627761581421,7.4993,3.0638967615814208,7.53022Q3.110165761581421,7.56114,3.149514761581421,7.60048Q3.188863761581421,7.63983,3.219779761581421,7.6861Q3.250695761581421,7.7323699999999995,3.271991761581421,7.78378Q3.2932867615814208,7.83519,3.304143761581421,7.88977Q3.314999761581421,7.94435,3.314999761581421,8Z" fill="#979797" fill-opacity="1"/></g></g></svg>