<svg xmlns="http://www.w3.org/2000/svg" xmlns:xlink="http://www.w3.org/1999/xlink" fill="none" version="1.1" width="16" height="16" viewBox="0 0 16 16"><defs><clipPath id="master_svg0_1391_61102"><rect x="0" y="0" width="16" height="16" rx="0"/></clipPath></defs><g style="mix-blend-mode:passthrough"><g clip-path="url(#master_svg0_1391_61102)"><g><path d="M2.796875,1L10.11719,1L13.60155,4.52344L13.60155,14.6094C13.60155,14.8251,13.42665,15,13.21095,15L2.796875,15C2.581141,15,2.40625,14.8251,2.40625,14.6094L2.40625,1.390625C2.40625,1.174891,2.581141,1,2.796875,1Z" fill="#FF4867" fill-opacity="1"/></g><g><path d="M10.1171875,1L10.1171875,4.13281C10.1171875,4.3485499999999995,10.2920785,4.52344,10.5078125,4.52344L13.6015675,4.52344L10.1171875,1Z" fill="#FF97A9" fill-opacity="1"/></g><g><path d="M10.811235,12.6875C10.117485,12.6875,9.495294999999999,11.49705,9.167955,10.722940000000001C8.617284999999999,10.493089999999999,8.010265,10.278410000000001,7.4205950000000005,10.13964C6.904624999999999,10.480080000000001,6.026625,10.98964,5.352389,10.98964C4.933983,10.98964,4.632639,10.779309999999999,4.5220766,10.41286C4.4375296,10.11145,4.5090766,9.903279999999999,4.600123,9.79052C4.777889,9.54766,5.144264,9.42406,5.692765,9.42406C6.137185,9.42406,6.700845,9.50212,7.3295449999999995,9.65391C7.734935,9.36552,8.146844999999999,9.03158,8.513235,8.67813C8.350635,7.9061900000000005,8.172855,6.655016,8.623795000000001,6.078235C8.847075,5.802844,9.187455,5.7117658,9.599355,5.8353753C10.050295,5.965469,10.221544999999999,6.24086,10.273575000000001,6.457704C10.464355000000001,7.2101299999999995,9.599355,8.22494,9.016185,8.82125C9.146265,9.33733,9.317525,9.88159,9.525655,10.38031C10.362465,10.75328,11.357524999999999,11.310559999999999,11.470275,11.91772C11.515795,12.12805,11.450765,12.3232,11.279495,12.49452C11.132075,12.61594,10.975985,12.6875,10.811235,12.6875L10.811235,12.6875ZM10.187495,11.375C10.340125,11.714690000000001,10.485635,11.875,10.562345,11.875C10.574214999999999,11.875,10.590824999999999,11.8698,10.614545,11.849C10.643015,11.81781,10.643015,11.79702,10.638265,11.77795C10.622455,11.688690000000001,10.493545000000001,11.54225,10.187495,11.375ZM5.782465,10C5.538405,10,5.471326,10.05897,5.4509039999999995,10.08648C5.445076,10.09533,5.427576,10.12186,5.445076,10.19064C5.459655,10.24961,5.500495,10.3125,5.626885,10.3125C5.785375,10.3125,6.014845,10.22308,6.281245,10.06289C6.090685,10.02064,5.922465,10,5.782465,10ZM8.171875,9.69659C8.317705,9.73722,8.468905,9.78958,8.609375,9.84375C8.558375,9.710139999999999,8.517215,9.571110000000001,8.482345,9.4375C8.380645,9.52598,8.277125,9.61237,8.171875,9.69659ZM9.202594999999999,6.765625C9.150715,6.765625,9.114325000000001,6.7848299999999995,9.081575,6.82048C8.985125,6.94209,8.974205000000001,7.2483900000000006,9.048815000000001,7.64063C9.331795,7.33708,9.485575,7.0582,9.447355,6.90917C9.441885,6.88723,9.425515,6.82048,9.293575,6.7820800000000006C9.257175,6.77111,9.229885,6.765625,9.202594999999999,6.765625Z" fill="#FFFFFF" fill-opacity="1"/></g></g></g></svg>