<svg xmlns="http://www.w3.org/2000/svg" xmlns:xlink="http://www.w3.org/1999/xlink" fill="none" version="1.1" width="16" height="16" viewBox="0 0 16 16"><defs><clipPath id="master_svg0_714_26771"><rect x="0" y="0" width="16" height="16" rx="0"/></clipPath></defs><g style="mix-blend-mode:passthrough"><g clip-path="url(#master_svg0_714_26771)"><g><path d="M3.3452521875,7.99999796875C3.3452521875,7.49199796875,3.4319121875,7.004667968750001,3.5852521875,6.54799796875L0.8932501875,4.53466796875C0.3523831875,5.60964796875,0.0715104075,6.796617968750001,0.07325030118,7.99999796875C0.07325030118,9.24533796875,0.3679171875,10.41999796875,0.8919171875,11.46266796875L3.5825821875,9.44599796875C3.4256921875,8.98002796875,3.3455421875,8.49166796875,3.3452521875,7.99999796875Z" fill="#FBBC05" fill-opacity="1"/></g><g><path d="M8.0735546875,3.377978515625C9.2002246875,3.377978515625,10.2182246875,3.768648515625,11.0182546875,4.408648515625L13.3455546875,2.133308515625C11.9275546875,0.924645515625,10.1095546875,0.177978515625,8.0735546875,0.177978515625C4.9122246875,0.177978515625,2.1948846875,1.947978515625,0.8935546875,4.534648515625L3.5868846875,6.547978515625C4.2068846875000006,4.703978515625,5.9748846875,3.377978515625,8.0735546875,3.377978515625Z" fill="#EA4335" fill-opacity="1"/></g><g><path d="M8.0735546875,12.6220263671875C5.9742246875,12.6220263671875,4.2062246875,11.2960263671875,3.5855546875,9.4520263671875L0.8935546875,11.4653563671875C2.1942246875,14.0520263671875,4.9115546875,15.822026367187501,8.0735546875,15.822026367187501C10.0242246875,15.822026367187501,11.8868546875,15.1440263671875,13.2855546875,13.872696367187501L10.7295546875,11.9380263671875C10.0088846875,12.3826963671875,9.1008846875,12.6220263671875,8.0728846875,12.6220263671875" fill="#34A853" fill-opacity="1"/></g><g><path d="M15.709423906249999,8.0000029296875C15.709423906249999,7.5380029296875,15.63608390625,7.0400029296875,15.52742390625,6.5780029296875L8.07275390625,6.5780029296875L8.07275390625,9.6000029296875L12.36342390625,9.6000029296875C12.14942390625,10.630672929687499,11.56542390625,11.4226729296875,10.73008390625,11.9380029296875L13.28542390625,13.8726729296875C14.754083906249999,12.5380029296875,15.709423906249999,10.5500029296875,15.709423906249999,8.0000029296875Z" fill="#4285F4" fill-opacity="1"/></g></g></g></svg>