<svg xmlns="http://www.w3.org/2000/svg" xmlns:xlink="http://www.w3.org/1999/xlink" fill="none" version="1.1" width="20" height="20" viewBox="0 0 20 20"><g style="mix-blend-mode:passthrough"><g style="mix-blend-mode:passthrough"><g style="mix-blend-mode:passthrough"><rect x="0" y="0" width="20" height="20" rx="0" fill="#FFFFFF" fill-opacity="0"/></g><g><path d="M1.75,2.5L1.75,8.33333Q1.75,8.4072,1.764411,8.47965Q1.778822,8.5521,1.80709,8.62035Q1.835359,8.68859,1.876398,8.75001Q1.917437,8.81143,1.96967,8.86366Q2.021903,8.9159,2.083322,8.95694Q2.144742,8.997969999999999,2.212987,9.02624Q2.281233,9.05451,2.353682,9.06892Q2.4261315,9.08333,2.5,9.08333L8.33333,9.08333Q8.4072,9.08333,8.47965,9.06892Q8.5521,9.05451,8.62035,9.02624Q8.68859,8.997969999999999,8.75001,8.95694Q8.81143,8.9159,8.86366,8.86366Q8.9159,8.81143,8.95694,8.75001Q8.997969999999999,8.68859,9.02624,8.62035Q9.05451,8.5521,9.06892,8.47965Q9.08333,8.4072,9.08333,8.33333L9.08333,2.5Q9.08333,2.4261315,9.06892,2.353682Q9.05451,2.281233,9.02624,2.212987Q8.997969999999999,2.144742,8.95694,2.083322Q8.9159,2.021903,8.86366,1.96967Q8.81143,1.917437,8.75001,1.876398Q8.68859,1.835359,8.62035,1.80709Q8.5521,1.778822,8.47965,1.764411Q8.4072,1.75,8.33333,1.75L2.5,1.75Q2.4261315,1.75,2.353682,1.764411Q2.281233,1.778822,2.212987,1.80709Q2.144742,1.835359,2.083322,1.876398Q2.021903,1.917437,1.96967,1.96967Q1.917437,2.021903,1.876398,2.083322Q1.835359,2.144742,1.80709,2.212987Q1.778822,2.281233,1.764411,2.353682Q1.75,2.4261315,1.75,2.5ZM3.25,3.25L7.58333,3.25L7.58333,7.58333L3.25,7.58333L3.25,3.25Z" fill="#75C5A2" fill-opacity="1"/></g><g><path d="M1.75,11.666717529296875L1.75,17.500047529296875Q1.75,17.573917529296875,1.764411,17.646367529296874Q1.778822,17.718817529296874,1.80709,17.787067529296877Q1.835359,17.855307529296873,1.876398,17.916727529296875Q1.917437,17.978147529296876,1.96967,18.030377529296874Q2.021903,18.082617529296876,2.083322,18.123657529296874Q2.144742,18.164687529296874,2.212987,18.192957529296876Q2.281233,18.221227529296876,2.353682,18.235637529296874Q2.4261315,18.250047529296875,2.5,18.250047529296875L8.33333,18.250047529296875Q8.4072,18.250047529296875,8.47965,18.235637529296874Q8.5521,18.221227529296876,8.62035,18.192957529296876Q8.68859,18.164687529296874,8.75001,18.123657529296874Q8.81143,18.082617529296876,8.86366,18.030377529296874Q8.9159,17.978147529296876,8.95694,17.916727529296875Q8.997969999999999,17.855307529296873,9.02624,17.787067529296877Q9.05451,17.718817529296874,9.06892,17.646367529296874Q9.08333,17.573917529296875,9.08333,17.500047529296875L9.08333,11.666717529296875Q9.08333,11.592849029296875,9.06892,11.520399529296874Q9.05451,11.447950529296875,9.02624,11.379704529296875Q8.997969999999999,11.311459529296876,8.95694,11.250039529296876Q8.9159,11.188620529296875,8.86366,11.136387529296876Q8.81143,11.084154529296875,8.75001,11.043115529296875Q8.68859,11.002076529296875,8.62035,10.973807529296876Q8.5521,10.945539529296875,8.47965,10.931128529296874Q8.4072,10.916717529296875,8.33333,10.916717529296875L2.5,10.916717529296875Q2.4261315,10.916717529296875,2.353682,10.931128529296874Q2.281233,10.945539529296875,2.212987,10.973807529296876Q2.144742,11.002076529296875,2.083322,11.043115529296875Q2.021903,11.084154529296875,1.96967,11.136387529296876Q1.917437,11.188620529296875,1.876398,11.250039529296876Q1.835359,11.311459529296876,1.80709,11.379704529296875Q1.778822,11.447950529296875,1.764411,11.520399529296874Q1.75,11.592849029296875,1.75,11.666717529296875ZM3.25,12.416717529296875L7.58333,12.416717529296875L7.58333,16.750047529296875L3.25,16.750047529296875L3.25,12.416717529296875Z" fill="#75C5A2" fill-opacity="1"/></g><g><path d="M10.916679382324219,2.5L10.916679382324219,8.33333Q10.916679382324219,8.4072,10.931090382324218,8.47965Q10.945501382324219,8.5521,10.97376938232422,8.62035Q11.00203838232422,8.68859,11.043077382324219,8.75001Q11.084116382324218,8.81143,11.13634938232422,8.86366Q11.188582382324219,8.9159,11.25000138232422,8.95694Q11.31142138232422,8.997969999999999,11.379666382324219,9.02624Q11.447912382324219,9.05451,11.520361382324218,9.06892Q11.592810882324219,9.08333,11.666679382324219,9.08333L17.50000938232422,9.08333Q17.57387938232422,9.08333,17.646329382324218,9.06892Q17.718779382324218,9.05451,17.78702938232422,9.02624Q17.855269382324217,8.997969999999999,17.91668938232422,8.95694Q17.97810938232422,8.9159,18.030339382324218,8.86366Q18.08257938232422,8.81143,18.123619382324218,8.75001Q18.164649382324217,8.68859,18.19291938232422,8.62035Q18.22118938232422,8.5521,18.235599382324217,8.47965Q18.25000938232422,8.4072,18.25000938232422,8.33333L18.25000938232422,2.5Q18.25000938232422,2.4261315,18.235599382324217,2.353682Q18.22118938232422,2.281233,18.19291938232422,2.212987Q18.164649382324217,2.144742,18.123619382324218,2.083322Q18.08257938232422,2.021903,18.030339382324218,1.96967Q17.97810938232422,1.917437,17.91668938232422,1.876398Q17.855269382324217,1.835359,17.78702938232422,1.80709Q17.718779382324218,1.778822,17.646329382324218,1.764411Q17.57387938232422,1.75,17.50000938232422,1.75L11.666679382324219,1.75Q11.592810882324219,1.75,11.520361382324218,1.764411Q11.447912382324219,1.778822,11.379666382324219,1.80709Q11.31142138232422,1.835359,11.25000138232422,1.876398Q11.188582382324219,1.917437,11.13634938232422,1.96967Q11.084116382324218,2.021903,11.043077382324219,2.083322Q11.00203838232422,2.144742,10.97376938232422,2.212987Q10.945501382324219,2.281233,10.931090382324218,2.353682Q10.916679382324219,2.4261315,10.916679382324219,2.5ZM12.416679382324219,3.25L16.75000938232422,3.25L16.75000938232422,7.58333L12.416679382324219,7.58333L12.416679382324219,3.25Z" fill="#75C5A2" fill-opacity="1"/></g><g><path d="M16.96967938232422,18.030377529296874L11.13634938232422,12.197047529296874Q11.084116382324218,12.144814529296875,11.043077382324219,12.083395529296874Q11.00203838232422,12.021975529296874,10.97376938232422,11.953730529296875Q10.945501382324219,11.885484529296875,10.931090382324218,11.813035529296876Q10.916679382324219,11.740586029296875,10.916679382324219,11.666717529296875Q10.916679382324219,11.592849029296875,10.931090382324218,11.520399529296874Q10.945501382324219,11.447950529296875,10.97376938232422,11.379704529296875Q11.00203838232422,11.311459529296876,11.043077382324219,11.250039529296876Q11.084116382324218,11.188620529296875,11.13634938232422,11.136387529296876Q11.188582382324219,11.084154529296875,11.25000138232422,11.043115529296875Q11.31142138232422,11.002076529296875,11.379666382324219,10.973807529296876Q11.447912382324219,10.945539529296875,11.520361382324218,10.931128529296874Q11.592810882324219,10.916717529296875,11.666679382324219,10.916717529296875Q11.740547882324218,10.916717529296875,11.81299738232422,10.931128529296874Q11.885446382324218,10.945539529296875,11.953692382324219,10.973807529296876Q12.021937382324218,11.002076529296875,12.083357382324218,11.043115529296875Q12.144776382324219,11.084154529296875,12.197009382324218,11.136387529296876L18.030339382324218,16.969717529296876Q18.08257938232422,17.021957529296877,18.123619382324218,17.083377529296875Q18.164649382324217,17.144797529296874,18.19291938232422,17.213037529296876Q18.22118938232422,17.281287529296876,18.235599382324217,17.353737529296875Q18.25000938232422,17.426177529296876,18.25000938232422,17.500047529296875Q18.25000938232422,17.573917529296875,18.235599382324217,17.646367529296874Q18.22118938232422,17.718817529296874,18.19291938232422,17.787067529296877Q18.164649382324217,17.855307529296873,18.123619382324218,17.916727529296875Q18.08257938232422,17.978147529296876,18.030339382324218,18.030377529296874Q17.97810938232422,18.082617529296876,17.91668938232422,18.123657529296874Q17.855269382324217,18.164687529296874,17.78702938232422,18.192957529296876Q17.718779382324218,18.221227529296876,17.646329382324218,18.235637529296874Q17.57387938232422,18.250047529296875,17.50000938232422,18.250047529296875Q17.42613938232422,18.250047529296875,17.35369938232422,18.235637529296874Q17.28124938232422,18.221227529296876,17.21299938232422,18.192957529296876Q17.144759382324217,18.164687529296874,17.08333938232422,18.123657529296874Q17.02191938232422,18.082617529296876,16.96967938232422,18.030377529296874ZM10.916679382324219,17.500047529296875L10.916679382324219,11.666717529296875L11.666679382324219,11.666717529296875L12.416679382324219,11.666717529296875L12.416679382324219,17.500047529296875L11.666679382324219,17.500047529296875L10.916679382324219,17.500047529296875ZM12.416679382324219,17.500047529296875Q12.416679382324219,17.573917529296875,12.40226838232422,17.646367529296874Q12.387857382324219,17.718817529296874,12.359589382324218,17.787067529296877Q12.331320382324218,17.855307529296873,12.290281382324219,17.916727529296875Q12.24924238232422,17.978147529296876,12.197009382324218,18.030377529296874Q12.144776382324219,18.082617529296876,12.083357382324218,18.123657529296874Q12.021937382324218,18.164687529296874,11.953692382324219,18.192957529296876Q11.885446382324218,18.221227529296876,11.81299738232422,18.235637529296874Q11.740547882324218,18.250047529296875,11.666679382324219,18.250047529296875Q11.592810882324219,18.250047529296875,11.520361382324218,18.235637529296874Q11.447912382324219,18.221227529296876,11.379666382324219,18.192957529296876Q11.31142138232422,18.164687529296874,11.25000138232422,18.123657529296874Q11.188582382324219,18.082617529296876,11.13634938232422,18.030377529296874Q11.084116382324218,17.978147529296876,11.043077382324219,17.916727529296875Q11.00203838232422,17.855307529296873,10.97376938232422,17.787067529296877Q10.945501382324219,17.718817529296874,10.931090382324218,17.646367529296874Q10.916679382324219,17.573917529296875,10.916679382324219,17.500047529296875L10.916679382324219,11.666717529296875Q10.916679382324219,11.592849029296875,10.931090382324218,11.520399529296874Q10.945501382324219,11.447950529296875,10.97376938232422,11.379704529296875Q11.00203838232422,11.311459529296876,11.043077382324219,11.250039529296876Q11.084116382324218,11.188620529296875,11.13634938232422,11.136387529296876Q11.188582382324219,11.084154529296875,11.25000138232422,11.043115529296875Q11.31142138232422,11.002076529296875,11.379666382324219,10.973807529296876Q11.447912382324219,10.945539529296875,11.520361382324218,10.931128529296874Q11.592810882324219,10.916717529296875,11.666679382324219,10.916717529296875Q11.740547882324218,10.916717529296875,11.81299738232422,10.931128529296874Q11.885446382324218,10.945539529296875,11.953692382324219,10.973807529296876Q12.021937382324218,11.002076529296875,12.083357382324218,11.043115529296875Q12.144776382324219,11.084154529296875,12.197009382324218,11.136387529296876Q12.24924238232422,11.188620529296875,12.290281382324219,11.250039529296876Q12.331320382324218,11.311459529296876,12.359589382324218,11.379704529296875Q12.387857382324219,11.447950529296875,12.40226838232422,11.520399529296874Q12.416679382324219,11.592849029296875,12.416679382324219,11.666717529296875L12.416679382324219,17.500047529296875ZM17.50000938232422,12.416717529296875L11.666679382324219,12.416717529296875L11.666679382324219,11.666717529296875L11.666679382324219,10.916717529296875L17.50000938232422,10.916717529296875L17.50000938232422,11.666717529296875L17.50000938232422,12.416717529296875ZM17.50000938232422,10.916717529296875Q17.57387938232422,10.916717529296875,17.646329382324218,10.931128529296874Q17.718779382324218,10.945539529296875,17.78702938232422,10.973807529296876Q17.855269382324217,11.002076529296875,17.91668938232422,11.043115529296875Q17.97810938232422,11.084154529296875,18.030339382324218,11.136387529296876Q18.08257938232422,11.188620529296875,18.123619382324218,11.250039529296876Q18.164649382324217,11.311459529296876,18.19291938232422,11.379704529296875Q18.22118938232422,11.447950529296875,18.235599382324217,11.520399529296874Q18.25000938232422,11.592849029296875,18.25000938232422,11.666717529296875Q18.25000938232422,11.740586029296875,18.235599382324217,11.813035529296876Q18.22118938232422,11.885484529296875,18.19291938232422,11.953730529296875Q18.164649382324217,12.021975529296874,18.123619382324218,12.083395529296874Q18.08257938232422,12.144814529296875,18.030339382324218,12.197047529296874Q17.97810938232422,12.249280529296875,17.91668938232422,12.290319529296875Q17.855269382324217,12.331358529296875,17.78702938232422,12.359627529296874Q17.718779382324218,12.387895529296875,17.646329382324218,12.402306529296876Q17.57387938232422,12.416717529296875,17.50000938232422,12.416717529296875L11.666679382324219,12.416717529296875Q11.592810882324219,12.416717529296875,11.520361382324218,12.402306529296876Q11.447912382324219,12.387895529296875,11.379666382324219,12.359627529296874Q11.31142138232422,12.331358529296875,11.25000138232422,12.290319529296875Q11.188582382324219,12.249280529296875,11.13634938232422,12.197047529296874Q11.084116382324218,12.144814529296875,11.043077382324219,12.083395529296874Q11.00203838232422,12.021975529296874,10.97376938232422,11.953730529296875Q10.945501382324219,11.885484529296875,10.931090382324218,11.813035529296876Q10.916679382324219,11.740586029296875,10.916679382324219,11.666717529296875Q10.916679382324219,11.592849029296875,10.931090382324218,11.520399529296874Q10.945501382324219,11.447950529296875,10.97376938232422,11.379704529296875Q11.00203838232422,11.311459529296876,11.043077382324219,11.250039529296876Q11.084116382324218,11.188620529296875,11.13634938232422,11.136387529296876Q11.188582382324219,11.084154529296875,11.25000138232422,11.043115529296875Q11.31142138232422,11.002076529296875,11.379666382324219,10.973807529296876Q11.447912382324219,10.945539529296875,11.520361382324218,10.931128529296874Q11.592810882324219,10.916717529296875,11.666679382324219,10.916717529296875L17.50000938232422,10.916717529296875ZM18.25000938232422,17.500047529296875Q18.25000938232422,17.573917529296875,18.235599382324217,17.646367529296874Q18.22118938232422,17.718817529296874,18.19291938232422,17.787067529296877Q18.164649382324217,17.855307529296873,18.123619382324218,17.916727529296875Q18.08257938232422,17.978147529296876,18.030339382324218,18.030377529296874Q17.97810938232422,18.082617529296876,17.91668938232422,18.123657529296874Q17.855269382324217,18.164687529296874,17.78702938232422,18.192957529296876Q17.718779382324218,18.221227529296876,17.646329382324218,18.235637529296874Q17.57387938232422,18.250047529296875,17.50000938232422,18.250047529296875Q17.42614938232422,18.250047529296875,17.35369938232422,18.235637529296874Q17.28124938232422,18.221227529296876,17.21299938232422,18.192957529296876Q17.144759382324217,18.164687529296874,17.08333938232422,18.123657529296874Q17.02191938232422,18.082617529296876,16.96967938232422,18.030377529296874Q16.917449382324218,17.978147529296876,16.87640938232422,17.916727529296875Q16.835369382324217,17.855307529296873,16.807099382324218,17.787067529296877Q16.778839382324218,17.718817529296874,16.76441938232422,17.646367529296874Q16.75000938232422,17.573917529296875,16.75000938232422,17.500047529296875Q16.75000938232422,17.426187529296875,16.76441938232422,17.353737529296875Q16.778839382324218,17.281287529296876,16.807099382324218,17.213037529296876Q16.835369382324217,17.144797529296874,16.87640938232422,17.083377529296875Q16.917449382324218,17.021957529296877,16.96967938232422,16.969717529296876Q17.02191938232422,16.917487529296874,17.08333938232422,16.876447529296875Q17.144759382324217,16.835407529296873,17.21299938232422,16.807137529296874Q17.28124938232422,16.778877529296874,17.35369938232422,16.764457529296877Q17.42614938232422,16.750047529296875,17.50000938232422,16.750047529296875Q17.57387938232422,16.750047529296875,17.646329382324218,16.764457529296877Q17.718779382324218,16.778877529296874,17.78702938232422,16.807137529296874Q17.855269382324217,16.835407529296873,17.91668938232422,16.876447529296875Q17.97810938232422,16.917487529296874,18.030339382324218,16.969717529296876Q18.08257938232422,17.021957529296877,18.123619382324218,17.083377529296875Q18.164649382324217,17.144797529296874,18.19291938232422,17.213037529296876Q18.22118938232422,17.281287529296876,18.235599382324217,17.353737529296875Q18.25000938232422,17.426187529296875,18.25000938232422,17.500047529296875ZM12.416679382324219,11.666717529296875Q12.416679382324219,11.740586029296875,12.40226838232422,11.813035529296876Q12.387857382324219,11.885484529296875,12.359589382324218,11.953730529296875Q12.331320382324218,12.021975529296874,12.290281382324219,12.083395529296874Q12.24924238232422,12.144814529296875,12.197009382324218,12.197047529296874Q12.144776382324219,12.249280529296875,12.083357382324218,12.290319529296875Q12.021937382324218,12.331358529296875,11.953692382324219,12.359627529296874Q11.885446382324218,12.387895529296875,11.81299738232422,12.402306529296876Q11.740547882324218,12.416717529296875,11.666679382324219,12.416717529296875Q11.592810882324219,12.416717529296875,11.520361382324218,12.402306529296876Q11.447912382324219,12.387895529296875,11.379666382324219,12.359627529296874Q11.31142138232422,12.331358529296875,11.25000138232422,12.290319529296875Q11.188582382324219,12.249280529296875,11.13634938232422,12.197047529296874Q11.084116382324218,12.144814529296875,11.043077382324219,12.083395529296874Q11.00203838232422,12.021975529296874,10.97376938232422,11.953730529296875Q10.945501382324219,11.885484529296875,10.931090382324218,11.813035529296876Q10.916679382324219,11.740586029296875,10.916679382324219,11.666717529296875Q10.916679382324219,11.592849029296875,10.931090382324218,11.520399529296874Q10.945501382324219,11.447950529296875,10.97376938232422,11.379704529296875Q11.00203838232422,11.311459529296876,11.043077382324219,11.250039529296876Q11.084116382324218,11.188620529296875,11.13634938232422,11.136387529296876Q11.188582382324219,11.084154529296875,11.25000138232422,11.043115529296875Q11.31142138232422,11.002076529296875,11.379666382324219,10.973807529296876Q11.447912382324219,10.945539529296875,11.520361382324218,10.931128529296874Q11.592810882324219,10.916717529296875,11.666679382324219,10.916717529296875Q11.740547882324218,10.916717529296875,11.81299738232422,10.931128529296874Q11.885446382324218,10.945539529296875,11.953692382324219,10.973807529296876Q12.021937382324218,11.002076529296875,12.083357382324218,11.043115529296875Q12.144776382324219,11.084154529296875,12.197009382324218,11.136387529296876Q12.24924238232422,11.188620529296875,12.290281382324219,11.250039529296876Q12.331320382324218,11.311459529296876,12.359589382324218,11.379704529296875Q12.387857382324219,11.447950529296875,12.40226838232422,11.520399529296874Q12.416679382324219,11.592849029296875,12.416679382324219,11.666717529296875Z" fill="#75C5A2" fill-opacity="1"/></g></g></g></svg>