<svg xmlns="http://www.w3.org/2000/svg" xmlns:xlink="http://www.w3.org/1999/xlink" fill="none" version="1.1" width="16" height="16" viewBox="0 0 16 16"><g style="mix-blend-mode:passthrough"><g><rect x="0" y="0" width="16" height="16" rx="0" fill="#FFFFFF" fill-opacity="0.009999999776482582"/></g><g><path d="M11.35225,12.14775L3.852252,4.647748Q3.813078,4.608573,3.782298,4.562508Q3.751519,4.516444,3.730318,4.465259Q3.709117,4.414075,3.698308,4.359738Q3.6875,4.3054014,3.6875,4.25Q3.6875,4.1945986,3.698308,4.140262Q3.709117,4.085925,3.730318,4.034741Q3.751519,3.983556,3.782298,3.9374919999999998Q3.813078,3.891427,3.852252,3.852252Q3.891427,3.813078,3.9374919999999998,3.782298Q3.983556,3.751519,4.034741,3.730318Q4.085925,3.709117,4.140262,3.698308Q4.1945986,3.6875,4.25,3.6875Q4.3054014,3.6875,4.359738,3.698308Q4.414075,3.709117,4.465259,3.730318Q4.516444,3.751519,4.562508,3.782298Q4.608573,3.813078,4.647748,3.852252L12.14775,11.35225Q12.18692,11.39143,12.2177,11.43749Q12.24848,11.483550000000001,12.26968,11.53474Q12.29088,11.58592,12.30169,11.64026Q12.3125,11.694600000000001,12.3125,11.75Q12.3125,11.805399999999999,12.30169,11.85974Q12.29088,11.914069999999999,12.26968,11.96526Q12.24848,12.01644,12.2177,12.06251Q12.18692,12.10857,12.14775,12.14775Q12.10857,12.18692,12.06251,12.2177Q12.01644,12.24848,11.96526,12.26968Q11.914069999999999,12.29088,11.85974,12.30169Q11.805399999999999,12.3125,11.75,12.3125Q11.694600000000001,12.3125,11.64026,12.30169Q11.58592,12.29088,11.53474,12.26968Q11.483550000000001,12.24848,11.43749,12.2177Q11.39143,12.18692,11.35225,12.14775ZM12.315,11.75Q12.315,11.80565,12.30414,11.86022Q12.29329,11.9148,12.27199,11.96622Q12.2507,12.01763,12.21978,12.0639Q12.18886,12.11017,12.14951,12.14951Q12.11017,12.18886,12.0639,12.21978Q12.01763,12.2507,11.96622,12.27199Q11.9148,12.29329,11.86023,12.30414Q11.80565,12.315,11.75,12.315Q11.69435,12.315,11.63977,12.30414Q11.58519,12.29329,11.53378,12.27199Q11.48237,12.2507,11.4361,12.21978Q11.38983,12.18886,11.350480000000001,12.14951Q11.31113,12.11017,11.28022,12.0639Q11.2493,12.01763,11.228010000000001,11.96622Q11.206710000000001,11.9148,11.19586,11.86023Q11.184999999999999,11.80565,11.184999999999999,11.75Q11.184999999999999,11.69435,11.19586,11.63977Q11.206710000000001,11.58519,11.228010000000001,11.53378Q11.2493,11.48237,11.28022,11.4361Q11.31113,11.38983,11.350480000000001,11.350480000000001Q11.38983,11.31113,11.4361,11.28022Q11.48237,11.2493,11.53378,11.228010000000001Q11.58519,11.206710000000001,11.63977,11.19586Q11.69435,11.184999999999999,11.75,11.184999999999999Q11.80565,11.184999999999999,11.86022,11.19586Q11.9148,11.206710000000001,11.96622,11.228010000000001Q12.01763,11.2493,12.0639,11.28022Q12.11017,11.31113,12.14951,11.350480000000001Q12.18886,11.38983,12.21978,11.4361Q12.2507,11.48237,12.27199,11.53378Q12.29329,11.58519,12.30414,11.63977Q12.315,11.69435,12.315,11.75ZM4.8149999999999995,4.25Q4.8149999999999995,4.3056476,4.804144,4.360226Q4.793287,4.414804,4.771992,4.466216Q4.750696,4.517628,4.71978,4.563897Q4.688864,4.6101659999999995,4.649515,4.649515Q4.6101659999999995,4.688864,4.563897,4.71978Q4.517628,4.750696,4.466216,4.771992Q4.414804,4.793287,4.360226,4.804144Q4.3056476,4.8149999999999995,4.25,4.8149999999999995Q4.1943524,4.8149999999999995,4.139774,4.804144Q4.085196,4.793287,4.033784,4.771992Q3.982372,4.750696,3.936103,4.71978Q3.889834,4.688864,3.850485,4.649515Q3.811136,4.6101659999999995,3.78022,4.563897Q3.749304,4.517628,3.728008,4.466216Q3.706713,4.414804,3.695856,4.360226Q3.685,4.3056476,3.685,4.25Q3.685,4.1943524,3.695856,4.139774Q3.706713,4.085196,3.728008,4.033784Q3.749304,3.982372,3.78022,3.936103Q3.811136,3.889834,3.850485,3.850485Q3.889834,3.811136,3.936103,3.78022Q3.982372,3.749304,4.033784,3.728008Q4.085196,3.706713,4.139774,3.695856Q4.1943524,3.685,4.25,3.685Q4.3056476,3.685,4.360226,3.695856Q4.414804,3.706713,4.466216,3.728008Q4.517628,3.749304,4.563897,3.78022Q4.6101659999999995,3.811136,4.649515,3.850485Q4.688864,3.889834,4.71978,3.936103Q4.750696,3.982372,4.771992,4.033784Q4.793287,4.085196,4.804144,4.139774Q4.8149999999999995,4.1943524,4.8149999999999995,4.25Z" fill="#979797" fill-opacity="1"/></g><g><path d="M12.14775,4.647748L4.647748,12.14775Q4.608573,12.18692,4.562508,12.2177Q4.516444,12.24848,4.465259,12.26968Q4.414075,12.29088,4.359738,12.30169Q4.3054014,12.3125,4.25,12.3125Q4.1945986,12.3125,4.140262,12.30169Q4.085925,12.29088,4.034741,12.26968Q3.983556,12.24848,3.9374919999999998,12.2177Q3.891427,12.18692,3.852252,12.14775Q3.813078,12.10857,3.782298,12.06251Q3.751519,12.01644,3.730318,11.96526Q3.709117,11.914069999999999,3.698308,11.85974Q3.6875,11.805399999999999,3.6875,11.75Q3.6875,11.694600000000001,3.698308,11.64026Q3.709117,11.58592,3.730318,11.53474Q3.751519,11.483550000000001,3.782298,11.43749Q3.813078,11.39143,3.852252,11.35225L11.35225,3.852252Q11.39143,3.813078,11.43749,3.782298Q11.483550000000001,3.751519,11.53474,3.730318Q11.58592,3.709117,11.64026,3.698308Q11.694600000000001,3.6875,11.75,3.6875Q11.805399999999999,3.6875,11.85974,3.698308Q11.914069999999999,3.709117,11.96526,3.730318Q12.01644,3.751519,12.06251,3.782298Q12.10857,3.813078,12.14775,3.852252Q12.18692,3.891427,12.2177,3.9374919999999998Q12.24848,3.983556,12.26968,4.034741Q12.29088,4.085925,12.30169,4.140262Q12.3125,4.1945986,12.3125,4.25Q12.3125,4.3054014,12.30169,4.359738Q12.29088,4.414075,12.26968,4.465259Q12.24848,4.516444,12.2177,4.562508Q12.18692,4.608573,12.14775,4.647748ZM12.315,4.25Q12.315,4.3056476,12.30414,4.360226Q12.29329,4.414804,12.27199,4.466216Q12.2507,4.517628,12.21978,4.563897Q12.18886,4.6101659999999995,12.14951,4.649515Q12.11017,4.688864,12.0639,4.71978Q12.01763,4.750696,11.96622,4.771992Q11.9148,4.793287,11.86023,4.804144Q11.80565,4.8149999999999995,11.75,4.8149999999999995Q11.69435,4.8149999999999995,11.63977,4.804144Q11.58519,4.793287,11.53378,4.771992Q11.48237,4.750696,11.4361,4.71978Q11.38983,4.688864,11.350480000000001,4.649515Q11.31113,4.6101659999999995,11.28022,4.563897Q11.2493,4.517628,11.228010000000001,4.466216Q11.206710000000001,4.414804,11.19586,4.360226Q11.184999999999999,4.3056476,11.184999999999999,4.25Q11.184999999999999,4.1943524,11.19586,4.139774Q11.206710000000001,4.085196,11.228010000000001,4.033784Q11.2493,3.982372,11.28022,3.936103Q11.31113,3.889834,11.350480000000001,3.850485Q11.38983,3.811136,11.4361,3.78022Q11.48237,3.749304,11.53378,3.728008Q11.58519,3.706713,11.63977,3.695856Q11.69435,3.685,11.75,3.685Q11.80565,3.685,11.86022,3.695856Q11.9148,3.706713,11.96622,3.728008Q12.01763,3.749304,12.0639,3.78022Q12.11017,3.811136,12.14951,3.850485Q12.18886,3.889834,12.21978,3.936103Q12.2507,3.982372,12.27199,4.033784Q12.29329,4.085196,12.30414,4.139774Q12.315,4.1943524,12.315,4.25ZM4.8149999999999995,11.75Q4.8149999999999995,11.80565,4.804144,11.86022Q4.793287,11.9148,4.771992,11.96622Q4.750696,12.01763,4.71978,12.0639Q4.688864,12.11017,4.649515,12.14951Q4.6101659999999995,12.18886,4.563897,12.21978Q4.517628,12.2507,4.466216,12.27199Q4.414804,12.29329,4.360226,12.30414Q4.3056476,12.315,4.25,12.315Q4.1943524,12.315,4.139774,12.30414Q4.085196,12.29329,4.033784,12.27199Q3.982372,12.2507,3.936103,12.21978Q3.889834,12.18886,3.850485,12.14951Q3.811136,12.11017,3.78022,12.0639Q3.749304,12.01763,3.728008,11.96622Q3.706713,11.9148,3.695856,11.86023Q3.685,11.80565,3.685,11.75Q3.685,11.69435,3.695856,11.63977Q3.706713,11.58519,3.728008,11.53378Q3.749304,11.48237,3.78022,11.4361Q3.811136,11.38983,3.850485,11.350480000000001Q3.889834,11.31113,3.936103,11.28022Q3.982372,11.2493,4.033784,11.228010000000001Q4.085196,11.206710000000001,4.139774,11.19586Q4.1943524,11.184999999999999,4.25,11.184999999999999Q4.3056476,11.184999999999999,4.360226,11.19586Q4.414804,11.206710000000001,4.466216,11.228010000000001Q4.517628,11.2493,4.563897,11.28022Q4.6101659999999995,11.31113,4.649515,11.350480000000001Q4.688864,11.38983,4.71978,11.4361Q4.750696,11.48237,4.771992,11.53378Q4.793287,11.58519,4.804144,11.63977Q4.8149999999999995,11.69435,4.8149999999999995,11.75Z" fill="#979797" fill-opacity="1"/></g></g></svg>