<svg xmlns="http://www.w3.org/2000/svg" xmlns:xlink="http://www.w3.org/1999/xlink" fill="none" version="1.1" width="16" height="16" viewBox="0 0 16 16"><g style="mix-blend-mode:passthrough"><g style="mix-blend-mode:passthrough"><rect x="0" y="0" width="16" height="16" rx="0" fill="#D8D8D8" fill-opacity="0"/></g><g><path d="M2.2189085077209474,5.11082Q3.031622507720947,3.4754300000000002,4.546906507720947,2.504778Q6.115466507720948,1.5,7.997066507720947,1.5Q9.881946507720947,1.5,11.467786507720946,2.503262Q13.010266507720948,3.47907,13.821166507720948,5.11082Q13.843066507720946,5.154920000000001,13.855966507720947,5.20245Q13.868866507720947,5.249969999999999,13.872166507720948,5.2991Q13.875566507720947,5.3482400000000005,13.869266507720948,5.39708Q13.862966507720948,5.44592,13.847366507720947,5.4925999999999995Q13.831666507720946,5.53928,13.807166507720947,5.58201Q13.782666507720947,5.62473,13.750266507720948,5.661849999999999Q13.717966507720947,5.698980000000001,13.678966507720947,5.72908Q13.639966507720947,5.75917,13.595866507720947,5.78109Q13.551766507720947,5.8030100000000004,13.504266507720947,5.8159Q13.456766507720948,5.82879,13.407566507720947,5.83216Q13.358466507720948,5.83553,13.309666507720948,5.82925Q13.260766507720946,5.82297,13.214066507720947,5.80729Q13.167366507720947,5.7916,13.124666507720947,5.767110000000001Q13.081966507720947,5.7426200000000005,13.044866507720947,5.71026Q13.007766507720948,5.6779,12.977666507720947,5.63893Q12.947566507720948,5.59995,12.925566507720948,5.5558499999999995Q12.239196507720948,4.1746,10.933146507720947,3.34835Q9.592186507720946,2.5,7.997066507720947,2.5Q6.408286507720947,2.5,5.086306507720947,3.3468299999999997Q3.8040065077209473,4.16824,3.114424507720947,5.5558499999999995Q3.092508507720947,5.59995,3.0624105077209474,5.63893Q3.032311507720947,5.6779,2.995187507720947,5.71026Q2.958063507720947,5.7426200000000005,2.915340507720947,5.767110000000001Q2.872617507720947,5.7916,2.825936507720947,5.80729Q2.7792565077209472,5.82297,2.7304127077209475,5.82925Q2.6815688077209474,5.83553,2.6324387077209472,5.83216Q2.5833085077209472,5.82879,2.5357805077209474,5.8159Q2.488251507720947,5.8030100000000004,2.4441515077209472,5.78109Q2.4000505077209473,5.75917,2.3610735077209473,5.72908Q2.3220965077209472,5.698980000000001,2.289739507720947,5.661849999999999Q2.2573835077209474,5.62473,2.2328915077209475,5.58201Q2.2083985077209474,5.53928,2.192711507720947,5.4925999999999995Q2.1770255077209475,5.44592,2.1707465077209473,5.39708Q2.1644685077209473,5.34823,2.1678395077209474,5.2991Q2.1712105077209474,5.249969999999999,2.184101507720947,5.20245Q2.196993507720947,5.154920000000001,2.2189085077209474,5.11082ZM3.1666665077209473,5.33333Q3.1666665077209473,5.38258,3.1570595077209473,5.43088Q3.1474515077209473,5.4791799999999995,3.1286065077209475,5.52467Q3.109760507720947,5.57017,3.0824015077209475,5.61112Q3.055041507720947,5.6520600000000005,3.020219507720947,5.68689Q2.9853975077209474,5.72171,2.9444515077209474,5.74907Q2.903505507720947,5.7764299999999995,2.8580085077209474,5.79527Q2.8125115077209473,5.81412,2.7642116077209473,5.82372Q2.7159122077209474,5.83333,2.6666665077209473,5.83333Q2.617420807720947,5.83333,2.569121407720947,5.82372Q2.5208215077209473,5.81412,2.475324507720947,5.79527Q2.4298275077209475,5.7764299999999995,2.388881507720947,5.74907Q2.347935507720947,5.72171,2.3131135077209475,5.68689Q2.2782915077209474,5.6520600000000005,2.250931507720947,5.61112Q2.2235725077209474,5.57017,2.204726507720947,5.52467Q2.1858815077209472,5.4791799999999995,2.176273507720947,5.43088Q2.1666665077209473,5.38258,2.1666665077209473,5.33333Q2.1666665077209473,5.28409,2.176273507720947,5.23579Q2.1858815077209472,5.18749,2.204726507720947,5.14199Q2.2235725077209474,5.09649,2.250931507720947,5.05555Q2.2782915077209474,5.0146,2.3131135077209475,4.97978Q2.347935507720947,4.94496,2.388881507720947,4.9176Q2.4298275077209475,4.89024,2.475324507720947,4.87139Q2.5208215077209473,4.85255,2.569121407720947,4.8429400000000005Q2.617420807720947,4.83333,2.6666665077209473,4.83333Q2.7159122077209474,4.83333,2.7642116077209473,4.8429400000000005Q2.8125115077209473,4.85255,2.8580085077209474,4.87139Q2.903505507720947,4.89024,2.9444515077209474,4.9176Q2.9853975077209474,4.94496,3.020219507720947,4.97978Q3.055041507720947,5.0146,3.0824015077209475,5.05555Q3.109760507720947,5.09649,3.1286065077209475,5.14199Q3.1474515077209473,5.18749,3.1570595077209473,5.23579Q3.1666665077209473,5.28409,3.1666665077209473,5.33333ZM13.873366507720947,5.33333Q13.873366507720947,5.38258,13.863766507720948,5.43088Q13.854166507720947,5.4791799999999995,13.835266507720947,5.52467Q13.816466507720948,5.57017,13.789066507720948,5.61112Q13.761766507720948,5.6520600000000005,13.726966507720947,5.68689Q13.692066507720947,5.72171,13.651166507720948,5.74907Q13.610166507720947,5.7764299999999995,13.564666507720947,5.79527Q13.519166507720946,5.81412,13.470866507720947,5.82372Q13.422566507720948,5.83333,13.373366507720947,5.83333Q13.324166507720948,5.83333,13.275866507720947,5.82372Q13.227566507720947,5.81412,13.182066507720947,5.79527Q13.136566507720948,5.7764299999999995,13.095566507720948,5.74907Q13.054666507720947,5.72171,13.019766507720947,5.68689Q12.984966507720948,5.6520600000000005,12.957666507720948,5.61112Q12.930266507720948,5.57017,12.911466507720947,5.52467Q12.892566507720947,5.4791799999999995,12.882966507720948,5.43088Q12.873366507720947,5.38258,12.873366507720947,5.33333Q12.873366507720947,5.28409,12.882966507720948,5.23579Q12.892566507720947,5.18749,12.911466507720947,5.14199Q12.930266507720948,5.09649,12.957666507720948,5.05555Q12.984966507720948,5.0146,13.019766507720947,4.97978Q13.054666507720947,4.94496,13.095566507720948,4.9176Q13.136566507720948,4.89024,13.182066507720947,4.87139Q13.227566507720947,4.85255,13.275866507720947,4.8429400000000005Q13.324166507720948,4.83333,13.373366507720947,4.83333Q13.422566507720948,4.83333,13.470866507720947,4.8429400000000005Q13.519166507720946,4.85255,13.564666507720947,4.87139Q13.610166507720947,4.89024,13.651166507720948,4.9176Q13.692066507720947,4.94496,13.726966507720947,4.97978Q13.761766507720948,5.0146,13.789066507720948,5.05555Q13.816466507720948,5.09649,13.835266507720947,5.14199Q13.854166507720947,5.18749,13.863766507720948,5.23579Q13.873366507720947,5.28409,13.873366507720947,5.33333Z" fill="#FFFFFF" fill-opacity="1"/></g><g><path d="M2.1666665077209473,5.333336507720947L2.1666665077209473,2.6666665077209473Q2.1666665077209473,2.617420807720947,2.176273507720947,2.569121407720947Q2.1858815077209472,2.5208215077209473,2.204726507720947,2.475324507720947Q2.2235725077209474,2.4298275077209475,2.250931507720947,2.388881507720947Q2.2782915077209474,2.347935507720947,2.3131135077209475,2.3131135077209475Q2.347935507720947,2.2782915077209474,2.388881507720947,2.250931507720947Q2.4298275077209475,2.2235725077209474,2.475324507720947,2.204726507720947Q2.5208215077209473,2.1858815077209472,2.569121407720947,2.176273507720947Q2.617420807720947,2.1666665077209473,2.6666665077209473,2.1666665077209473Q2.7159122077209474,2.1666665077209473,2.7642116077209473,2.176273507720947Q2.8125115077209473,2.1858815077209472,2.8580085077209474,2.204726507720947Q2.903505507720947,2.2235725077209474,2.9444515077209474,2.250931507720947Q2.9853975077209474,2.2782915077209474,3.020219507720947,2.3131135077209475Q3.055041507720947,2.347935507720947,3.0824015077209475,2.388881507720947Q3.109760507720947,2.4298275077209475,3.1286065077209475,2.475324507720947Q3.1474515077209473,2.5208215077209473,3.1570595077209473,2.569121407720947Q3.1666665077209473,2.617420807720947,3.1666665077209473,2.6666665077209473L3.1666665077209473,5.333336507720947Q3.1666665077209473,5.382576507720947,3.1570595077209473,5.4308765077209475Q3.1474515077209473,5.479176507720947,3.1286065077209475,5.524676507720947Q3.109760507720947,5.570176507720947,3.0824015077209475,5.611116507720947Q3.055041507720947,5.6520665077209475,3.020219507720947,5.686886507720947Q2.9853975077209474,5.721706507720947,2.9444515077209474,5.749066507720947Q2.903505507720947,5.776426507720947,2.8580085077209474,5.795276507720947Q2.8125115077209473,5.814116507720947,2.7642116077209473,5.823726507720947Q2.7159122077209474,5.833336507720947,2.6666665077209473,5.833336507720947Q2.617420807720947,5.833336507720947,2.569121407720947,5.823726507720947Q2.5208215077209473,5.814116507720947,2.475324507720947,5.795276507720947Q2.4298275077209475,5.776426507720947,2.388881507720947,5.749066507720947Q2.347935507720947,5.721706507720947,2.3131135077209475,5.686886507720947Q2.2782915077209474,5.6520665077209475,2.250931507720947,5.611116507720947Q2.2235725077209474,5.570176507720947,2.204726507720947,5.524676507720947Q2.1858815077209472,5.479176507720947,2.176273507720947,5.4308765077209475Q2.1666665077209473,5.382576507720947,2.1666665077209473,5.333336507720947ZM3.1666665077209473,5.333336507720947Q3.1666665077209473,5.382576507720947,3.1570595077209473,5.4308765077209475Q3.1474515077209473,5.479176507720947,3.1286065077209475,5.524676507720947Q3.109760507720947,5.570176507720947,3.0824015077209475,5.611116507720947Q3.055041507720947,5.6520665077209475,3.020219507720947,5.686886507720947Q2.9853975077209474,5.721706507720947,2.9444515077209474,5.749066507720947Q2.903505507720947,5.776426507720947,2.8580085077209474,5.795276507720947Q2.8125115077209473,5.814116507720947,2.7642116077209473,5.823726507720947Q2.7159122077209474,5.833336507720947,2.6666665077209473,5.833336507720947Q2.617420807720947,5.833336507720947,2.569121407720947,5.823726507720947Q2.5208215077209473,5.814116507720947,2.475324507720947,5.795276507720947Q2.4298275077209475,5.776426507720947,2.388881507720947,5.749066507720947Q2.347935507720947,5.721706507720947,2.3131135077209475,5.686886507720947Q2.2782915077209474,5.6520665077209475,2.250931507720947,5.611116507720947Q2.2235725077209474,5.570176507720947,2.204726507720947,5.524676507720947Q2.1858815077209472,5.479176507720947,2.176273507720947,5.4308765077209475Q2.1666665077209473,5.382576507720947,2.1666665077209473,5.333336507720947Q2.1666665077209473,5.284086507720947,2.176273507720947,5.235786507720947Q2.1858815077209472,5.187486507720948,2.204726507720947,5.141986507720947Q2.2235725077209474,5.096496507720947,2.250931507720947,5.055546507720948Q2.2782915077209474,5.014596507720947,2.3131135077209475,4.979776507720947Q2.347935507720947,4.944956507720947,2.388881507720947,4.917596507720948Q2.4298275077209475,4.890236507720948,2.475324507720947,4.871396507720947Q2.5208215077209473,4.852546507720947,2.569121407720947,4.842936507720948Q2.617420807720947,4.833336507720947,2.6666665077209473,4.833336507720947Q2.7159122077209474,4.833336507720947,2.7642116077209473,4.842936507720948Q2.8125115077209473,4.852546507720947,2.8580085077209474,4.871396507720947Q2.903505507720947,4.890236507720948,2.9444515077209474,4.917596507720948Q2.9853975077209474,4.944956507720947,3.020219507720947,4.979776507720947Q3.055041507720947,5.014596507720947,3.0824015077209475,5.055546507720948Q3.109760507720947,5.096496507720947,3.1286065077209475,5.141986507720947Q3.1474515077209473,5.187486507720948,3.1570595077209473,5.235786507720947Q3.1666665077209473,5.284086507720947,3.1666665077209473,5.333336507720947ZM3.1666665077209473,2.6666665077209473Q3.1666665077209473,2.7159122077209474,3.1570595077209473,2.7642116077209473Q3.1474515077209473,2.8125115077209473,3.1286065077209475,2.8580085077209474Q3.109760507720947,2.903505507720947,3.0824015077209475,2.9444515077209474Q3.055041507720947,2.9853975077209474,3.020219507720947,3.020219507720947Q2.9853975077209474,3.055041507720947,2.9444515077209474,3.0824015077209475Q2.903505507720947,3.109760507720947,2.8580085077209474,3.1286065077209475Q2.8125115077209473,3.1474515077209473,2.7642116077209473,3.1570595077209473Q2.7159122077209474,3.1666665077209473,2.6666665077209473,3.1666665077209473Q2.617420807720947,3.1666665077209473,2.569121407720947,3.1570595077209473Q2.5208215077209473,3.1474515077209473,2.475324507720947,3.1286065077209475Q2.4298275077209475,3.109760507720947,2.388881507720947,3.0824015077209475Q2.347935507720947,3.055041507720947,2.3131135077209475,3.020219507720947Q2.2782915077209474,2.9853975077209474,2.250931507720947,2.9444515077209474Q2.2235725077209474,2.903505507720947,2.204726507720947,2.8580085077209474Q2.1858815077209472,2.8125115077209473,2.176273507720947,2.7642116077209473Q2.1666665077209473,2.7159122077209474,2.1666665077209473,2.6666665077209473Q2.1666665077209473,2.617420807720947,2.176273507720947,2.569121407720947Q2.1858815077209472,2.5208215077209473,2.204726507720947,2.475324507720947Q2.2235725077209474,2.4298275077209475,2.250931507720947,2.388881507720947Q2.2782915077209474,2.347935507720947,2.3131135077209475,2.3131135077209475Q2.347935507720947,2.2782915077209474,2.388881507720947,2.250931507720947Q2.4298275077209475,2.2235725077209474,2.475324507720947,2.204726507720947Q2.5208215077209473,2.1858815077209472,2.569121407720947,2.176273507720947Q2.617420807720947,2.1666665077209473,2.6666665077209473,2.1666665077209473Q2.7159122077209474,2.1666665077209473,2.7642116077209473,2.176273507720947Q2.8125115077209473,2.1858815077209472,2.8580085077209474,2.204726507720947Q2.903505507720947,2.2235725077209474,2.9444515077209474,2.250931507720947Q2.9853975077209474,2.2782915077209474,3.020219507720947,2.3131135077209475Q3.055041507720947,2.347935507720947,3.0824015077209475,2.388881507720947Q3.109760507720947,2.4298275077209475,3.1286065077209475,2.475324507720947Q3.1474515077209473,2.5208215077209473,3.1570595077209473,2.569121407720947Q3.1666665077209473,2.617420807720947,3.1666665077209473,2.6666665077209473Z" fill="#FFFFFF" fill-opacity="1"/></g><g><path d="M2.6667072772979736,4.8333330154418945L4.926767277297974,4.8333330154418945Q4.976007277297974,4.8333330154418945,5.024307277297973,4.8429400154418945Q5.072607277297974,4.8525480154418945,5.118107277297973,4.871393015441894Q5.163607277297974,4.890239015441894,5.204547277297974,4.917598015441895Q5.245497277297973,4.944958015441895,5.280317277297973,4.979780015441895Q5.315137277297973,5.014602015441895,5.342497277297974,5.055548015441895Q5.369857277297974,5.096494015441895,5.388707277297973,5.141991015441895Q5.407547277297974,5.187488015441895,5.4171572772979735,5.235787915441895Q5.426767277297974,5.284087315441894,5.426767277297974,5.3333330154418945Q5.426767277297974,5.382578715441895,5.4171572772979735,5.430878115441894Q5.407547277297974,5.479178015441894,5.388707277297973,5.524675015441894Q5.369857277297974,5.570172015441894,5.342497277297974,5.611118015441894Q5.315137277297973,5.652064015441894,5.280317277297973,5.686886015441894Q5.245497277297973,5.7217080154418944,5.204547277297974,5.749068015441894Q5.163607277297974,5.776427015441895,5.118107277297973,5.795273015441895Q5.072607277297974,5.8141180154418945,5.024307277297973,5.823726015441895Q4.976007277297974,5.8333330154418945,4.926767277297974,5.8333330154418945L2.6667072772979736,5.8333330154418945Q2.6174615772979735,5.8333330154418945,2.5691621772979736,5.823726015441895Q2.5208622772979736,5.8141180154418945,2.4753652772979735,5.795273015441895Q2.429868277297974,5.776427015441895,2.3889222772979735,5.749068015441894Q2.3479762772979735,5.7217080154418944,2.313154277297974,5.686886015441894Q2.2783322772979737,5.652064015441894,2.2509722772979734,5.611118015441894Q2.2236132772979738,5.570172015441894,2.2047672772979734,5.524675015441894Q2.1859222772979736,5.479178015441894,2.1763142772979736,5.430878115441894Q2.1667072772979736,5.382578715441895,2.1667072772979736,5.3333330154418945Q2.1667072772979736,5.284087315441894,2.1763142772979736,5.235787915441895Q2.1859222772979736,5.187488015441895,2.2047672772979734,5.141991015441895Q2.2236132772979738,5.096494015441895,2.2509722772979734,5.055548015441895Q2.2783322772979737,5.014602015441895,2.313154277297974,4.979780015441895Q2.3479762772979735,4.944958015441895,2.3889222772979735,4.917598015441895Q2.429868277297974,4.890239015441894,2.4753652772979735,4.871393015441894Q2.5208622772979736,4.8525480154418945,2.5691621772979736,4.8429400154418945Q2.6174615772979735,4.8333330154418945,2.6667072772979736,4.8333330154418945ZM3.1667072772979736,5.3333330154418945Q3.1667072772979736,5.382578715441895,3.1571002772979737,5.430878115441894Q3.1474922772979737,5.479178015441894,3.128647277297974,5.524675015441894Q3.1098012772979735,5.570172015441894,3.082442277297974,5.611118015441894Q3.0550822772979735,5.652064015441894,3.0202602772979734,5.686886015441894Q2.9854382772979737,5.7217080154418944,2.944492277297974,5.749068015441894Q2.9035462772979734,5.776427015441895,2.8580492772979738,5.795273015441895Q2.8125522772979736,5.8141180154418945,2.7642523772979737,5.823726015441895Q2.715952977297974,5.8333330154418945,2.6667072772979736,5.8333330154418945Q2.6174615772979735,5.8333330154418945,2.5691621772979736,5.823726015441895Q2.5208622772979736,5.8141180154418945,2.4753652772979735,5.795273015441895Q2.429868277297974,5.776427015441895,2.3889222772979735,5.749068015441894Q2.3479762772979735,5.7217080154418944,2.313154277297974,5.686886015441894Q2.2783322772979737,5.652064015441894,2.2509722772979734,5.611118015441894Q2.2236132772979738,5.570172015441894,2.2047672772979734,5.524675015441894Q2.1859222772979736,5.479178015441894,2.1763142772979736,5.430878115441894Q2.1667072772979736,5.382578715441895,2.1667072772979736,5.3333330154418945Q2.1667072772979736,5.284087315441894,2.1763142772979736,5.235787915441895Q2.1859222772979736,5.187488015441895,2.2047672772979734,5.141991015441895Q2.2236132772979738,5.096494015441895,2.2509722772979734,5.055548015441895Q2.2783322772979737,5.014602015441895,2.313154277297974,4.979780015441895Q2.3479762772979735,4.944958015441895,2.3889222772979735,4.917598015441895Q2.429868277297974,4.890239015441894,2.4753652772979735,4.871393015441894Q2.5208622772979736,4.8525480154418945,2.5691621772979736,4.8429400154418945Q2.6174615772979735,4.8333330154418945,2.6667072772979736,4.8333330154418945Q2.715952977297974,4.8333330154418945,2.7642523772979737,4.8429400154418945Q2.8125522772979736,4.8525480154418945,2.8580492772979738,4.871393015441894Q2.9035462772979734,4.890239015441894,2.944492277297974,4.917598015441895Q2.9854382772979737,4.944958015441895,3.0202602772979734,4.979780015441895Q3.0550822772979735,5.014602015441895,3.082442277297974,5.055548015441895Q3.1098012772979735,5.096494015441895,3.128647277297974,5.141991015441895Q3.1474922772979737,5.187488015441895,3.1571002772979737,5.235787915441895Q3.1667072772979736,5.284087315441894,3.1667072772979736,5.3333330154418945ZM5.426767277297974,5.3333330154418945Q5.426767277297974,5.382578715441895,5.4171572772979735,5.430878115441894Q5.407547277297974,5.479178015441894,5.388707277297973,5.524675015441894Q5.369857277297974,5.570172015441894,5.342497277297974,5.611118015441894Q5.315137277297973,5.652064015441894,5.280317277297973,5.686886015441894Q5.245497277297973,5.7217080154418944,5.204547277297974,5.749068015441894Q5.163607277297974,5.776427015441895,5.118107277297973,5.795273015441895Q5.072607277297974,5.8141180154418945,5.024307277297973,5.823726015441895Q4.976007277297974,5.8333330154418945,4.926767277297974,5.8333330154418945Q4.877517277297974,5.8333330154418945,4.829217277297974,5.823726015441895Q4.7809172772979736,5.8141180154418945,4.735417277297973,5.795273015441895Q4.689927277297974,5.776427015441895,4.648977277297973,5.749068015441894Q4.608037277297973,5.7217080154418944,4.573207277297974,5.686886015441894Q4.538387277297973,5.652064015441894,4.511027277297973,5.611118015441894Q4.4836672772979735,5.570172015441894,4.464827277297974,5.524675015441894Q4.445977277297974,5.479178015441894,4.436367277297974,5.430878115441894Q4.426767277297974,5.382578715441895,4.426767277297974,5.3333330154418945Q4.426767277297974,5.284087315441894,4.436367277297974,5.235787915441895Q4.445977277297974,5.187488015441895,4.464827277297974,5.141991015441895Q4.4836672772979735,5.096494015441895,4.511027277297973,5.055548015441895Q4.538387277297973,5.014602015441895,4.573207277297974,4.979780015441895Q4.608037277297973,4.944958015441895,4.648977277297973,4.917598015441895Q4.689927277297974,4.890239015441894,4.735417277297973,4.871393015441894Q4.7809172772979736,4.8525480154418945,4.829217277297974,4.8429400154418945Q4.877517277297974,4.8333330154418945,4.926767277297974,4.8333330154418945Q4.976007277297974,4.8333330154418945,5.024307277297973,4.8429400154418945Q5.072607277297974,4.8525480154418945,5.118107277297973,4.871393015441894Q5.163607277297974,4.890239015441894,5.204547277297974,4.917598015441895Q5.245497277297973,4.944958015441895,5.280317277297973,4.979780015441895Q5.315137277297973,5.014602015441895,5.342497277297974,5.055548015441895Q5.369857277297974,5.096494015441895,5.388707277297973,5.141991015441895Q5.407547277297974,5.187488015441895,5.4171572772979735,5.235787915441895Q5.426767277297974,5.284087315441894,5.426767277297974,5.3333330154418945Z" fill="#FFFFFF" fill-opacity="1"/></g><g><path d="M13.821166507720948,10.889181030883789Q13.008366507720947,12.52456603088379,11.493136507720948,13.495216030883789Q9.924576507720946,14.49999603088379,8.042996507720947,14.49999603088379Q6.158096507720947,14.49999603088379,4.572256507720947,13.496736030883788Q3.0298135077209474,12.520926030883789,2.2189085077209474,10.889181030883789Q2.196993507720947,10.845081030883788,2.184101507720947,10.797553030883789Q2.1712105077209474,10.75002403088379,2.1678395077209474,10.700893930883788Q2.1644685077209473,10.65176373088379,2.1707465077209473,10.60291993088379Q2.1770255077209475,10.554076030883788,2.1927125077209473,10.50739603088379Q2.2083985077209474,10.460715030883788,2.2328915077209475,10.41799203088379Q2.2573835077209474,10.37526903088379,2.289739507720947,10.338145030883789Q2.3220965077209472,10.301021030883788,2.3610735077209473,10.270922030883789Q2.4000505077209473,10.24082403088379,2.4441515077209472,10.218908030883789Q2.488251507720947,10.196993030883789,2.5357795077209473,10.18410103088379Q2.5833085077209472,10.171210030883788,2.6324386077209474,10.167839030883789Q2.6815688077209474,10.16446803088379,2.730412607720947,10.17074603088379Q2.7792565077209472,10.177025030883788,2.825936507720947,10.19271203088379Q2.872617507720947,10.208398030883789,2.915340507720947,10.232891030883788Q2.958063507720947,10.257383030883789,2.995187507720947,10.289739030883789Q3.032311507720947,10.32209603088379,3.0624105077209474,10.361073030883789Q3.092508507720947,10.400050030883788,3.114424507720947,10.44415103088379Q3.800846507720947,11.82539603088379,5.106886507720947,12.651656030883789Q6.447856507720948,13.49999603088379,8.042996507720947,13.49999603088379Q9.631756507720947,13.49999603088379,10.953736507720947,12.653166030883789Q12.236026507720947,11.831756030883788,12.925566507720948,10.44415103088379Q12.947566507720948,10.40005103088379,12.977666507720947,10.361073030883789Q13.007766507720948,10.32209603088379,13.044866507720947,10.289739030883789Q13.081966507720947,10.257383030883789,13.124666507720947,10.232891030883788Q13.167366507720947,10.208398030883789,13.214066507720947,10.19271203088379Q13.260766507720946,10.177025030883788,13.309666507720948,10.17074603088379Q13.358466507720948,10.16446803088379,13.407566507720947,10.167839030883789Q13.456766507720948,10.171210030883788,13.504266507720947,10.18410103088379Q13.551766507720947,10.19699203088379,13.595866507720947,10.218908030883789Q13.639966507720947,10.24082403088379,13.678966507720947,10.270922030883789Q13.717966507720947,10.301021030883788,13.750266507720948,10.338145030883789Q13.782666507720947,10.37526903088379,13.807166507720947,10.41799203088379Q13.831666507720946,10.460715030883788,13.847366507720947,10.507395030883789Q13.862966507720948,10.554076030883788,13.869266507720948,10.602919530883788Q13.875566507720947,10.651763330883789,13.872166507720948,10.70089353088379Q13.868866507720947,10.75002373088379,13.855966507720947,10.79755203088379Q13.843066507720946,10.845081030883788,13.821166507720948,10.889181030883789ZM13.873366507720947,10.666666030883789Q13.873366507720947,10.71591173088379,13.863766507720948,10.764211130883789Q13.854166507720947,10.812511030883789,13.835266507720947,10.85800803088379Q13.816466507720948,10.903505030883789,13.789066507720948,10.944451030883789Q13.761766507720948,10.985397030883789,13.726966507720947,11.020219030883789Q13.692066507720947,11.055041030883789,13.651166507720948,11.082401030883789Q13.610166507720947,11.10976003088379,13.564666507720947,11.12860603088379Q13.519166507720946,11.14745103088379,13.470866507720947,11.157059030883788Q13.422566507720948,11.166666030883789,13.373366507720947,11.166666030883789Q13.324166507720948,11.166666030883789,13.275866507720947,11.157059030883788Q13.227566507720947,11.14745103088379,13.182066507720947,11.12860603088379Q13.136566507720948,11.10976003088379,13.095566507720948,11.082401030883789Q13.054666507720947,11.055041030883789,13.019766507720947,11.020219030883789Q12.984966507720948,10.985397030883789,12.957666507720948,10.944451030883789Q12.930266507720948,10.903505030883789,12.911466507720947,10.85800803088379Q12.892566507720947,10.812511030883789,12.882966507720948,10.764211130883789Q12.873366507720947,10.71591173088379,12.873366507720947,10.666666030883789Q12.873366507720947,10.617420330883789,12.882966507720948,10.56912093088379Q12.892566507720947,10.52082103088379,12.911466507720947,10.475324030883788Q12.930266507720948,10.42982703088379,12.957666507720948,10.38888103088379Q12.984966507720948,10.34793503088379,13.019766507720947,10.31311303088379Q13.054666507720947,10.27829103088379,13.095566507720948,10.25093103088379Q13.136566507720948,10.223572030883789,13.182066507720947,10.204726030883789Q13.227566507720947,10.185881030883788,13.275866507720947,10.17627303088379Q13.324166507720948,10.166666030883789,13.373366507720947,10.166666030883789Q13.422566507720948,10.166666030883789,13.470866507720947,10.17627303088379Q13.519166507720946,10.185881030883788,13.564666507720947,10.204726030883789Q13.610166507720947,10.223572030883789,13.651166507720948,10.25093103088379Q13.692066507720947,10.27829103088379,13.726966507720947,10.31311303088379Q13.761766507720948,10.34793503088379,13.789066507720948,10.38888103088379Q13.816466507720948,10.42982703088379,13.835266507720947,10.475324030883788Q13.854166507720947,10.52082103088379,13.863766507720948,10.56912093088379Q13.873366507720947,10.617420330883789,13.873366507720947,10.666666030883789ZM3.1666665077209473,10.666666030883789Q3.1666665077209473,10.71591173088379,3.1570595077209473,10.764211130883789Q3.1474515077209473,10.812511030883789,3.1286065077209475,10.85800803088379Q3.109760507720947,10.903505030883789,3.0824015077209475,10.944451030883789Q3.055041507720947,10.985397030883789,3.020219507720947,11.020219030883789Q2.9853975077209474,11.055041030883789,2.9444515077209474,11.082401030883789Q2.903505507720947,11.10976003088379,2.8580085077209474,11.12860603088379Q2.8125115077209473,11.14745103088379,2.7642116077209473,11.157059030883788Q2.7159122077209474,11.166666030883789,2.6666665077209473,11.166666030883789Q2.617420807720947,11.166666030883789,2.569121407720947,11.157059030883788Q2.5208215077209473,11.14745103088379,2.475324507720947,11.12860603088379Q2.4298275077209475,11.10976003088379,2.388881507720947,11.082401030883789Q2.347935507720947,11.055041030883789,2.3131135077209475,11.020219030883789Q2.2782915077209474,10.985397030883789,2.250931507720947,10.944451030883789Q2.2235725077209474,10.903505030883789,2.204726507720947,10.85800803088379Q2.1858815077209472,10.812511030883789,2.176273507720947,10.764211130883789Q2.1666665077209473,10.71591173088379,2.1666665077209473,10.666666030883789Q2.1666665077209473,10.617420330883789,2.176273507720947,10.56912093088379Q2.1858815077209472,10.52082103088379,2.204726507720947,10.475324030883788Q2.2235725077209474,10.42982703088379,2.250931507720947,10.38888103088379Q2.2782915077209474,10.34793503088379,2.3131135077209475,10.31311303088379Q2.347935507720947,10.27829103088379,2.388881507720947,10.25093103088379Q2.4298275077209475,10.223572030883789,2.475324507720947,10.204726030883789Q2.5208215077209473,10.185881030883788,2.569121407720947,10.17627303088379Q2.617420807720947,10.166666030883789,2.6666665077209473,10.166666030883789Q2.7159122077209474,10.166666030883789,2.7642116077209473,10.17627303088379Q2.8125115077209473,10.185881030883788,2.8580085077209474,10.204726030883789Q2.903505507720947,10.223572030883789,2.9444515077209474,10.25093103088379Q2.9853975077209474,10.27829103088379,3.020219507720947,10.31311303088379Q3.055041507720947,10.34793503088379,3.0824015077209475,10.38888103088379Q3.109760507720947,10.42982703088379,3.1286065077209475,10.475324030883788Q3.1474515077209473,10.52082103088379,3.1570595077209473,10.56912093088379Q3.1666665077209473,10.617420330883789,3.1666665077209473,10.666666030883789Z" fill="#FFFFFF" fill-opacity="1"/></g><g><path d="M13.87335205078125,10.666666030883789L13.87335205078125,13.333336030883789Q13.87335205078125,13.38257603088379,13.86374505078125,13.43087603088379Q13.854137050781251,13.479176030883789,13.83529205078125,13.52467603088379Q13.81644605078125,13.57017603088379,13.78908705078125,13.611116030883789Q13.76172705078125,13.65206603088379,13.72690505078125,13.68688603088379Q13.69208305078125,13.721706030883789,13.65113705078125,13.749066030883789Q13.61019105078125,13.776426030883789,13.56469405078125,13.79527603088379Q13.51919705078125,13.814116030883788,13.47089715078125,13.823726030883789Q13.42259775078125,13.833336030883789,13.37335205078125,13.833336030883789Q13.32410635078125,13.833336030883789,13.27580695078125,13.823726030883789Q13.22750705078125,13.814116030883788,13.18201005078125,13.79527603088379Q13.13651305078125,13.776426030883789,13.09556705078125,13.749066030883789Q13.05462105078125,13.721706030883789,13.01979905078125,13.68688603088379Q12.98497705078125,13.65206603088379,12.95761705078125,13.611116030883789Q12.93025805078125,13.57017603088379,12.91141205078125,13.52467603088379Q12.892567050781249,13.479176030883789,12.88295905078125,13.43087603088379Q12.87335205078125,13.38257603088379,12.87335205078125,13.333336030883789L12.87335205078125,10.666666030883789Q12.87335205078125,10.617420330883789,12.88295905078125,10.56912093088379Q12.892567050781249,10.52082103088379,12.91141205078125,10.475324030883788Q12.93025805078125,10.42982703088379,12.95761705078125,10.38888103088379Q12.98497705078125,10.34793503088379,13.01979905078125,10.31311303088379Q13.05462105078125,10.27829103088379,13.09556705078125,10.25093103088379Q13.13651305078125,10.223572030883789,13.18201005078125,10.204726030883789Q13.22750705078125,10.185881030883788,13.27580695078125,10.17627303088379Q13.32410635078125,10.166666030883789,13.37335205078125,10.166666030883789Q13.42259775078125,10.166666030883789,13.47089715078125,10.17627303088379Q13.51919705078125,10.185881030883788,13.56469405078125,10.204726030883789Q13.61019105078125,10.223572030883789,13.65113705078125,10.25093103088379Q13.69208305078125,10.27829103088379,13.72690505078125,10.31311303088379Q13.76172705078125,10.34793503088379,13.78908705078125,10.38888103088379Q13.81644605078125,10.42982703088379,13.83529205078125,10.475324030883788Q13.854137050781251,10.52082103088379,13.86374505078125,10.56912093088379Q13.87335205078125,10.617420330883789,13.87335205078125,10.666666030883789ZM13.87335205078125,10.666666030883789Q13.87335205078125,10.71591173088379,13.86374505078125,10.764211130883789Q13.854137050781251,10.812511030883789,13.83529205078125,10.85800803088379Q13.81644605078125,10.903505030883789,13.78908705078125,10.944451030883789Q13.76172705078125,10.985397030883789,13.72690505078125,11.020219030883789Q13.69208305078125,11.055041030883789,13.65113705078125,11.082401030883789Q13.61019105078125,11.10976003088379,13.56469405078125,11.12860603088379Q13.51919705078125,11.14745103088379,13.47089715078125,11.157059030883788Q13.42259775078125,11.166666030883789,13.37335205078125,11.166666030883789Q13.32410635078125,11.166666030883789,13.27580695078125,11.157059030883788Q13.22750705078125,11.14745103088379,13.18201005078125,11.12860603088379Q13.13651305078125,11.10976003088379,13.09556705078125,11.082401030883789Q13.05462105078125,11.055041030883789,13.01979905078125,11.020219030883789Q12.98497705078125,10.985397030883789,12.95761705078125,10.944451030883789Q12.93025805078125,10.903505030883789,12.91141205078125,10.85800803088379Q12.892567050781249,10.812511030883789,12.88295905078125,10.764211130883789Q12.87335205078125,10.71591173088379,12.87335205078125,10.666666030883789Q12.87335205078125,10.617420330883789,12.88295905078125,10.56912093088379Q12.892567050781249,10.52082103088379,12.91141205078125,10.475324030883788Q12.93025805078125,10.42982703088379,12.95761705078125,10.38888103088379Q12.98497705078125,10.34793503088379,13.01979905078125,10.31311303088379Q13.05462105078125,10.27829103088379,13.09556705078125,10.25093103088379Q13.13651305078125,10.223572030883789,13.18201005078125,10.204726030883789Q13.22750705078125,10.185881030883788,13.27580695078125,10.17627303088379Q13.32410635078125,10.166666030883789,13.37335205078125,10.166666030883789Q13.42259775078125,10.166666030883789,13.47089715078125,10.17627303088379Q13.51919705078125,10.185881030883788,13.56469405078125,10.204726030883789Q13.61019105078125,10.223572030883789,13.65113705078125,10.25093103088379Q13.69208305078125,10.27829103088379,13.72690505078125,10.31311303088379Q13.76172705078125,10.34793503088379,13.78908705078125,10.38888103088379Q13.81644605078125,10.42982703088379,13.83529205078125,10.475324030883788Q13.854137050781251,10.52082103088379,13.86374505078125,10.56912093088379Q13.87335205078125,10.617420330883789,13.87335205078125,10.666666030883789ZM13.87335205078125,13.333336030883789Q13.87335205078125,13.38257603088379,13.86374505078125,13.43087603088379Q13.854137050781251,13.479176030883789,13.83529205078125,13.52467603088379Q13.81644605078125,13.57017603088379,13.78908705078125,13.611116030883789Q13.76172705078125,13.65206603088379,13.72690505078125,13.68688603088379Q13.69208305078125,13.721706030883789,13.65113705078125,13.749066030883789Q13.61019105078125,13.776426030883789,13.56469405078125,13.79527603088379Q13.51919705078125,13.814116030883788,13.47089715078125,13.823726030883789Q13.42259775078125,13.833336030883789,13.37335205078125,13.833336030883789Q13.32410635078125,13.833336030883789,13.27580695078125,13.823726030883789Q13.22750705078125,13.814116030883788,13.18201005078125,13.79527603088379Q13.13651305078125,13.776426030883789,13.09556705078125,13.749066030883789Q13.05462105078125,13.721706030883789,13.01979905078125,13.68688603088379Q12.98497705078125,13.65206603088379,12.95761705078125,13.611116030883789Q12.93025805078125,13.57017603088379,12.91141205078125,13.52467603088379Q12.892567050781249,13.479176030883789,12.88295905078125,13.43087603088379Q12.87335205078125,13.38257603088379,12.87335205078125,13.333336030883789Q12.87335205078125,13.284086030883788,12.88295905078125,13.235786030883789Q12.892567050781249,13.18748603088379,12.91141205078125,13.141986030883789Q12.93025805078125,13.096496030883788,12.95761705078125,13.05554603088379Q12.98497705078125,13.014596030883789,13.01979905078125,12.979776030883789Q13.05462105078125,12.94495603088379,13.09556705078125,12.91759603088379Q13.13651305078125,12.89023603088379,13.18201005078125,12.871396030883789Q13.22750705078125,12.85254603088379,13.27580695078125,12.84293603088379Q13.32410635078125,12.833336030883789,13.37335205078125,12.833336030883789Q13.42259775078125,12.833336030883789,13.47089715078125,12.84293603088379Q13.51919705078125,12.85254603088379,13.56469405078125,12.871396030883789Q13.61019105078125,12.89023603088379,13.65113705078125,12.91759603088379Q13.69208305078125,12.94495603088379,13.72690505078125,12.979776030883789Q13.76172705078125,13.014596030883789,13.78908705078125,13.05554603088379Q13.81644605078125,13.096496030883788,13.83529205078125,13.141986030883789Q13.854137050781251,13.18748603088379,13.86374505078125,13.235786030883789Q13.87335205078125,13.284086030883788,13.87335205078125,13.333336030883789Z" fill="#FFFFFF" fill-opacity="1"/></g><g><path d="M13.373330269165038,11.166666030883789L11.113260269165039,11.166666030883789Q11.064014569165039,11.166666030883789,11.01571516916504,11.157059030883788Q10.96741526916504,11.14745103088379,10.921918269165038,11.12860603088379Q10.87642126916504,11.10976003088379,10.83547526916504,11.082401030883789Q10.79452926916504,11.055041030883789,10.75970726916504,11.020219030883789Q10.72488526916504,10.985397030883789,10.69752526916504,10.944451030883789Q10.670166269165039,10.903505030883789,10.651320269165039,10.85800803088379Q10.632475269165038,10.812511030883789,10.62286726916504,10.764211130883789Q10.613260269165039,10.71591173088379,10.613260269165039,10.666666030883789Q10.613260269165039,10.617420330883789,10.62286726916504,10.56912093088379Q10.632475269165038,10.52082103088379,10.651320269165039,10.475324030883788Q10.670166269165039,10.42982703088379,10.69752526916504,10.38888103088379Q10.72488526916504,10.34793503088379,10.75970726916504,10.31311303088379Q10.79452926916504,10.27829103088379,10.83547526916504,10.25093103088379Q10.87642126916504,10.223572030883789,10.921918269165038,10.204726030883789Q10.96741526916504,10.185881030883788,11.01571516916504,10.17627303088379Q11.064014569165039,10.166666030883789,11.113260269165039,10.166666030883789L13.373330269165038,10.166666030883789Q13.422570269165039,10.166666030883789,13.47087026916504,10.17627303088379Q13.51917026916504,10.185881030883788,13.564670269165038,10.204726030883789Q13.61016026916504,10.223572030883789,13.65111026916504,10.25093103088379Q13.69206026916504,10.27829103088379,13.72688026916504,10.31311303088379Q13.76170026916504,10.34793503088379,13.78906026916504,10.38888103088379Q13.81642026916504,10.42982703088379,13.835260269165039,10.475324030883788Q13.854110269165039,10.52082103088379,13.86372026916504,10.56912093088379Q13.873330269165038,10.617420330883789,13.873330269165038,10.666666030883789Q13.873330269165038,10.71591173088379,13.86372026916504,10.764211130883789Q13.854110269165039,10.812511030883789,13.83527026916504,10.85800803088379Q13.81642026916504,10.903505030883789,13.78906026916504,10.944451030883789Q13.76170026916504,10.985397030883789,13.72688026916504,11.020219030883789Q13.69206026916504,11.055041030883789,13.65111026916504,11.082401030883789Q13.61016026916504,11.10976003088379,13.564670269165038,11.12860603088379Q13.51917026916504,11.14745103088379,13.47087026916504,11.157059030883788Q13.422570269165039,11.166666030883789,13.373330269165038,11.166666030883789ZM13.873330269165038,10.666666030883789Q13.873330269165038,10.71591173088379,13.86372026916504,10.764211130883789Q13.854110269165039,10.812511030883789,13.83527026916504,10.85800803088379Q13.81642026916504,10.903505030883789,13.78906026916504,10.944451030883789Q13.76170026916504,10.985397030883789,13.72688026916504,11.020219030883789Q13.69206026916504,11.055041030883789,13.65111026916504,11.082401030883789Q13.61016026916504,11.10976003088379,13.564670269165038,11.12860603088379Q13.51917026916504,11.14745103088379,13.47087026916504,11.157059030883788Q13.422570269165039,11.166666030883789,13.373330269165038,11.166666030883789Q13.324080269165039,11.166666030883789,13.27578026916504,11.157059030883788Q13.227480269165039,11.14745103088379,13.181980269165038,11.12860603088379Q13.136490269165039,11.10976003088379,13.095540269165038,11.082401030883789Q13.05459026916504,11.055041030883789,13.01977026916504,11.020219030883789Q12.98495026916504,10.985397030883789,12.957590269165038,10.944451030883789Q12.930230269165039,10.903505030883789,12.91139026916504,10.85800803088379Q12.892540269165039,10.812511030883789,12.882930269165039,10.764211130883789Q12.87333026916504,10.71591173088379,12.87333026916504,10.666666030883789Q12.87333026916504,10.617420330883789,12.882930269165039,10.56912093088379Q12.892540269165039,10.52082103088379,12.91139026916504,10.475324030883788Q12.930230269165039,10.42982703088379,12.957590269165038,10.38888103088379Q12.98495026916504,10.34793503088379,13.01977026916504,10.31311303088379Q13.05459026916504,10.27829103088379,13.095540269165038,10.25093103088379Q13.136490269165039,10.223572030883789,13.181980269165038,10.204726030883789Q13.227480269165039,10.185881030883788,13.27578026916504,10.17627303088379Q13.324080269165039,10.166666030883789,13.373330269165038,10.166666030883789Q13.422570269165039,10.166666030883789,13.47087026916504,10.17627303088379Q13.51917026916504,10.185881030883788,13.564670269165038,10.204726030883789Q13.61016026916504,10.223572030883789,13.65111026916504,10.25093103088379Q13.69206026916504,10.27829103088379,13.72688026916504,10.31311303088379Q13.76170026916504,10.34793503088379,13.78906026916504,10.38888103088379Q13.81642026916504,10.42982703088379,13.835260269165039,10.475324030883788Q13.854110269165039,10.52082103088379,13.86372026916504,10.56912093088379Q13.873330269165038,10.617420330883789,13.873330269165038,10.666666030883789ZM11.613260269165039,10.666666030883789Q11.613260269165039,10.71591173088379,11.603653269165038,10.764211130883789Q11.59404526916504,10.812511030883789,11.57520026916504,10.85800803088379Q11.55635426916504,10.903505030883789,11.528995269165039,10.944451030883789Q11.501635269165039,10.985397030883789,11.466813269165039,11.020219030883789Q11.431991269165039,11.055041030883789,11.391045269165039,11.082401030883789Q11.350099269165039,11.10976003088379,11.30460226916504,11.12860603088379Q11.259105269165039,11.14745103088379,11.210805369165039,11.157059030883788Q11.16250596916504,11.166666030883789,11.113260269165039,11.166666030883789Q11.064014569165039,11.166666030883789,11.01571516916504,11.157059030883788Q10.96741526916504,11.14745103088379,10.921918269165038,11.12860603088379Q10.87642126916504,11.10976003088379,10.83547526916504,11.082401030883789Q10.79452926916504,11.055041030883789,10.75970726916504,11.020219030883789Q10.72488526916504,10.985397030883789,10.69752526916504,10.944451030883789Q10.670166269165039,10.903505030883789,10.651320269165039,10.85800803088379Q10.632475269165038,10.812511030883789,10.62286726916504,10.764211130883789Q10.613260269165039,10.71591173088379,10.613260269165039,10.666666030883789Q10.613260269165039,10.617420330883789,10.62286726916504,10.56912093088379Q10.632475269165038,10.52082103088379,10.651320269165039,10.475324030883788Q10.670166269165039,10.42982703088379,10.69752526916504,10.38888103088379Q10.72488526916504,10.34793503088379,10.75970726916504,10.31311303088379Q10.79452926916504,10.27829103088379,10.83547526916504,10.25093103088379Q10.87642126916504,10.223572030883789,10.921918269165038,10.204726030883789Q10.96741526916504,10.185881030883788,11.01571516916504,10.17627303088379Q11.064014569165039,10.166666030883789,11.113260269165039,10.166666030883789Q11.16250596916504,10.166666030883789,11.210805369165039,10.17627303088379Q11.259105269165039,10.185881030883788,11.30460226916504,10.204726030883789Q11.350099269165039,10.223572030883789,11.391045269165039,10.25093103088379Q11.431991269165039,10.27829103088379,11.466813269165039,10.31311303088379Q11.501635269165039,10.34793503088379,11.528995269165039,10.38888103088379Q11.55635426916504,10.42982703088379,11.57520026916504,10.475324030883788Q11.59404526916504,10.52082103088379,11.603653269165038,10.56912093088379Q11.613260269165039,10.617420330883789,11.613260269165039,10.666666030883789Z" fill="#FFFFFF" fill-opacity="1"/></g></g></svg>