<svg xmlns="http://www.w3.org/2000/svg" xmlns:xlink="http://www.w3.org/1999/xlink" fill="none" version="1.1" width="16" height="16" viewBox="0 0 16 16"><g style="mix-blend-mode:passthrough"><g style="mix-blend-mode:passthrough"><rect x="0" y="0" width="16" height="16" rx="0" fill="#FFFFFF" fill-opacity="0"/></g><g style="mix-blend-mode:passthrough"><g><path d="M1.8333332538604736,8.000003253860474Q1.8333332538604736,10.554313253860474,3.6395032538604735,12.360533253860474Q5.445683253860474,14.166633253860473,8.000003253860474,14.166633253860473Q10.554313253860474,14.166633253860473,12.360533253860474,12.360533253860474Q14.166633253860473,10.554323253860474,14.166633253860473,8.000003253860474Q14.166633253860473,5.445683253860474,12.360533253860474,3.6395032538604735Q10.554313253860474,1.8333332538604736,8.000003253860474,1.8333332538604736Q5.445683253860474,1.8333332538604736,3.6395032538604735,3.6395032538604735Q1.8333332538604736,5.445683253860474,1.8333332538604736,8.000003253860474L1.8333332538604736,8.000003253860474ZM0.8333332538604736,8.000003253860474Q0.8333332538604736,5.0314632538604736,2.932403253860474,2.932403253860474Q5.031473253860474,0.8333332538604736,8.000003253860474,0.8333332538604736Q10.968533253860473,0.8333332538604736,13.067633253860473,2.932403253860474Q15.166633253860473,5.0314632538604736,15.166633253860473,8.000003253860474Q15.166633253860473,10.968533253860473,13.067633253860473,13.067633253860473Q10.968533253860473,15.166633253860473,8.000003253860474,15.166633253860473Q5.0314632538604736,15.166633253860473,2.932403253860474,13.067633253860473Q0.8333332538604736,10.968533253860473,0.8333332538604736,8.000003253860474L0.8333332538604736,8.000003253860474Z" fill="#FFFFFF" fill-opacity="1"/></g><g><path d="M5.833333730697632,9.999999761581421L5.833333730697632,5.999999761581421Q5.833333730697632,5.950754061581421,5.842940730697632,5.902454661581421Q5.852548730697632,5.854154761581421,5.871393730697632,5.808657761581421Q5.8902397306976315,5.763160761581421,5.917598730697632,5.722214761581421Q5.944958730697632,5.681268761581421,5.979780730697632,5.646446761581421Q6.014602730697632,5.611624761581421,6.055548730697632,5.584264761581421Q6.096494730697632,5.556905761581421,6.141991730697632,5.538059761581421Q6.187488730697632,5.519214761581421,6.235788630697632,5.509606761581421Q6.284088030697632,5.499999761581421,6.333333730697632,5.499999761581421Q6.382579430697632,5.499999761581421,6.430878830697631,5.509606761581421Q6.479178730697631,5.519214761581421,6.5246757306976315,5.538059761581421Q6.570172730697632,5.556905761581421,6.611118730697632,5.584264761581421Q6.6520647306976315,5.611624761581421,6.686886730697632,5.646446761581421Q6.721708730697632,5.681268761581421,6.749068730697632,5.722214761581421Q6.776427730697632,5.763160761581421,6.795273730697632,5.808657761581421Q6.814118730697632,5.854154761581421,6.823726730697632,5.902454661581421Q6.833333730697632,5.950754061581421,6.833333730697632,5.999999761581421L6.833333730697632,9.999999761581421Q6.833333730697632,10.049249761581422,6.823726730697632,10.097549761581421Q6.814118730697632,10.14583976158142,6.795273730697632,10.191339761581421Q6.776427730697632,10.236839761581422,6.749068730697632,10.27777976158142Q6.721708730697632,10.318729761581421,6.686886730697632,10.353549761581421Q6.6520647306976315,10.388369761581421,6.611118730697632,10.41572976158142Q6.570172730697632,10.44308976158142,6.5246757306976315,10.461939761581421Q6.479178730697631,10.48077976158142,6.430878830697631,10.49038976158142Q6.382579430697632,10.499999761581421,6.333333730697632,10.499999761581421Q6.284088030697632,10.499999761581421,6.235788630697632,10.49038976158142Q6.187488730697632,10.48077976158142,6.141991730697632,10.461939761581421Q6.096494730697632,10.44308976158142,6.055548730697632,10.41572976158142Q6.014602730697632,10.388369761581421,5.979780730697632,10.353549761581421Q5.944958730697632,10.318729761581421,5.917598730697632,10.27777976158142Q5.8902397306976315,10.236839761581422,5.871393730697632,10.191339761581421Q5.852548730697632,10.14583976158142,5.842940730697632,10.097549761581421Q5.833333730697632,10.049249761581422,5.833333730697632,9.999999761581421ZM6.833333730697632,9.999999761581421Q6.833333730697632,10.049249761581422,6.823726730697632,10.097549761581421Q6.814118730697632,10.14583976158142,6.795273730697632,10.191339761581421Q6.776427730697632,10.236839761581422,6.749068730697632,10.27777976158142Q6.721708730697632,10.318729761581421,6.686886730697632,10.353549761581421Q6.6520647306976315,10.388369761581421,6.611118730697632,10.41572976158142Q6.570172730697632,10.44308976158142,6.5246757306976315,10.461939761581421Q6.479178730697631,10.48077976158142,6.430878830697631,10.49038976158142Q6.382579430697632,10.499999761581421,6.333333730697632,10.499999761581421Q6.284088030697632,10.499999761581421,6.235788630697632,10.49038976158142Q6.187488730697632,10.48077976158142,6.141991730697632,10.461939761581421Q6.096494730697632,10.44308976158142,6.055548730697632,10.41572976158142Q6.014602730697632,10.388369761581421,5.979780730697632,10.353549761581421Q5.944958730697632,10.318729761581421,5.917598730697632,10.27777976158142Q5.8902397306976315,10.236839761581422,5.871393730697632,10.191339761581421Q5.852548730697632,10.14583976158142,5.842940730697632,10.097549761581421Q5.833333730697632,10.049249761581422,5.833333730697632,9.999999761581421Q5.833333730697632,9.95074976158142,5.842940730697632,9.90244976158142Q5.852548730697632,9.854149761581422,5.871393730697632,9.80865976158142Q5.8902397306976315,9.76315976158142,5.917598730697632,9.722209761581421Q5.944958730697632,9.68126976158142,5.979780730697632,9.64644976158142Q6.014602730697632,9.611619761581421,6.055548730697632,9.584259761581421Q6.096494730697632,9.556909761581421,6.141991730697632,9.53805976158142Q6.187488730697632,9.519209761581422,6.235788630697632,9.509609761581421Q6.284088030697632,9.499999761581421,6.333333730697632,9.499999761581421Q6.382579430697632,9.499999761581421,6.430878830697631,9.509609761581421Q6.479178730697631,9.519209761581422,6.5246757306976315,9.53805976158142Q6.570172730697632,9.556909761581421,6.611118730697632,9.584259761581421Q6.6520647306976315,9.611619761581421,6.686886730697632,9.64644976158142Q6.721708730697632,9.68126976158142,6.749068730697632,9.722209761581421Q6.776427730697632,9.76315976158142,6.795273730697632,9.80865976158142Q6.814118730697632,9.854149761581422,6.823726730697632,9.90244976158142Q6.833333730697632,9.95074976158142,6.833333730697632,9.999999761581421ZM6.833333730697632,5.999999761581421Q6.833333730697632,6.049245461581421,6.823726730697632,6.0975448615814205Q6.814118730697632,6.1458447615814205,6.795273730697632,6.191341761581421Q6.776427730697632,6.236838761581421,6.749068730697632,6.277784761581421Q6.721708730697632,6.3187307615814206,6.686886730697632,6.353552761581421Q6.6520647306976315,6.388374761581421,6.611118730697632,6.415734761581421Q6.570172730697632,6.443093761581421,6.5246757306976315,6.461939761581421Q6.479178730697631,6.480784761581421,6.430878830697631,6.490392761581421Q6.382579430697632,6.499999761581421,6.333333730697632,6.499999761581421Q6.284088030697632,6.499999761581421,6.235788630697632,6.490392761581421Q6.187488730697632,6.480784761581421,6.141991730697632,6.461939761581421Q6.096494730697632,6.443093761581421,6.055548730697632,6.415734761581421Q6.014602730697632,6.388374761581421,5.979780730697632,6.353552761581421Q5.944958730697632,6.3187307615814206,5.917598730697632,6.277784761581421Q5.8902397306976315,6.236838761581421,5.871393730697632,6.191341761581421Q5.852548730697632,6.1458447615814205,5.842940730697632,6.0975448615814205Q5.833333730697632,6.049245461581421,5.833333730697632,5.999999761581421Q5.833333730697632,5.950754061581421,5.842940730697632,5.902454661581421Q5.852548730697632,5.854154761581421,5.871393730697632,5.808657761581421Q5.8902397306976315,5.763160761581421,5.917598730697632,5.722214761581421Q5.944958730697632,5.681268761581421,5.979780730697632,5.646446761581421Q6.014602730697632,5.611624761581421,6.055548730697632,5.584264761581421Q6.096494730697632,5.556905761581421,6.141991730697632,5.538059761581421Q6.187488730697632,5.519214761581421,6.235788630697632,5.509606761581421Q6.284088030697632,5.499999761581421,6.333333730697632,5.499999761581421Q6.382579430697632,5.499999761581421,6.430878830697631,5.509606761581421Q6.479178730697631,5.519214761581421,6.5246757306976315,5.538059761581421Q6.570172730697632,5.556905761581421,6.611118730697632,5.584264761581421Q6.6520647306976315,5.611624761581421,6.686886730697632,5.646446761581421Q6.721708730697632,5.681268761581421,6.749068730697632,5.722214761581421Q6.776427730697632,5.763160761581421,6.795273730697632,5.808657761581421Q6.814118730697632,5.854154761581421,6.823726730697632,5.902454661581421Q6.833333730697632,5.950754061581421,6.833333730697632,5.999999761581421Z" fill="#FFFFFF" fill-opacity="1"/></g><g><path d="M9.166666269302368,9.999999761581421L9.166666269302368,5.999999761581421Q9.166666269302368,5.950754061581421,9.176273269302369,5.902454661581421Q9.185881269302367,5.854154761581421,9.204726269302368,5.808657761581421Q9.223572269302368,5.763160761581421,9.250931269302368,5.722214761581421Q9.278291269302368,5.681268761581421,9.313113269302368,5.646446761581421Q9.347935269302369,5.611624761581421,9.388881269302368,5.584264761581421Q9.429827269302368,5.556905761581421,9.475324269302368,5.538059761581421Q9.520821269302369,5.519214761581421,9.569121169302369,5.509606761581421Q9.617420569302368,5.499999761581421,9.666666269302368,5.499999761581421Q9.715911969302368,5.499999761581421,9.764211369302368,5.509606761581421Q9.812511269302368,5.519214761581421,9.858008269302369,5.538059761581421Q9.903505269302368,5.556905761581421,9.944451269302368,5.584264761581421Q9.985397269302368,5.611624761581421,10.020219269302368,5.646446761581421Q10.055041269302368,5.681268761581421,10.082401269302368,5.722214761581421Q10.109760269302368,5.763160761581421,10.128606269302368,5.808657761581421Q10.147451269302369,5.854154761581421,10.157059269302367,5.902454661581421Q10.166666269302368,5.950754061581421,10.166666269302368,5.999999761581421L10.166666269302368,9.999999761581421Q10.166666269302368,10.049249761581422,10.157059269302367,10.097549761581421Q10.147451269302369,10.14583976158142,10.128606269302368,10.191339761581421Q10.109760269302368,10.236839761581422,10.082401269302368,10.27777976158142Q10.055041269302368,10.318729761581421,10.020219269302368,10.353549761581421Q9.985397269302368,10.388369761581421,9.944451269302368,10.41572976158142Q9.903505269302368,10.44308976158142,9.858008269302369,10.461939761581421Q9.812511269302368,10.48077976158142,9.764211369302368,10.49038976158142Q9.715911969302368,10.499999761581421,9.666666269302368,10.499999761581421Q9.617420569302368,10.499999761581421,9.569121169302369,10.49038976158142Q9.520821269302369,10.48077976158142,9.475324269302368,10.461939761581421Q9.429827269302368,10.44308976158142,9.388881269302368,10.41572976158142Q9.347935269302369,10.388369761581421,9.313113269302368,10.353549761581421Q9.278291269302368,10.318729761581421,9.250931269302368,10.27777976158142Q9.223572269302368,10.236839761581422,9.204726269302368,10.191339761581421Q9.185881269302367,10.14583976158142,9.176273269302369,10.097549761581421Q9.166666269302368,10.049249761581422,9.166666269302368,9.999999761581421ZM10.166666269302368,9.999999761581421Q10.166666269302368,10.049249761581422,10.157059269302367,10.097549761581421Q10.147451269302369,10.14583976158142,10.128606269302368,10.191339761581421Q10.109760269302368,10.236839761581422,10.082401269302368,10.27777976158142Q10.055041269302368,10.318729761581421,10.020219269302368,10.353549761581421Q9.985397269302368,10.388369761581421,9.944451269302368,10.41572976158142Q9.903505269302368,10.44308976158142,9.858008269302369,10.461939761581421Q9.812511269302368,10.48077976158142,9.764211369302368,10.49038976158142Q9.715911969302368,10.499999761581421,9.666666269302368,10.499999761581421Q9.617420569302368,10.499999761581421,9.569121169302369,10.49038976158142Q9.520821269302369,10.48077976158142,9.475324269302368,10.461939761581421Q9.429827269302368,10.44308976158142,9.388881269302368,10.41572976158142Q9.347935269302369,10.388369761581421,9.313113269302368,10.353549761581421Q9.278291269302368,10.318729761581421,9.250931269302368,10.27777976158142Q9.223572269302368,10.236839761581422,9.204726269302368,10.191339761581421Q9.185881269302367,10.14583976158142,9.176273269302369,10.097549761581421Q9.166666269302368,10.049249761581422,9.166666269302368,9.999999761581421Q9.166666269302368,9.95074976158142,9.176273269302369,9.90244976158142Q9.185881269302367,9.854149761581422,9.204726269302368,9.80865976158142Q9.223572269302368,9.76315976158142,9.250931269302368,9.722209761581421Q9.278291269302368,9.68126976158142,9.313113269302368,9.64644976158142Q9.347935269302369,9.611619761581421,9.388881269302368,9.584259761581421Q9.429827269302368,9.556909761581421,9.475324269302368,9.53805976158142Q9.520821269302369,9.519209761581422,9.569121169302369,9.509609761581421Q9.617420569302368,9.499999761581421,9.666666269302368,9.499999761581421Q9.715911969302368,9.499999761581421,9.764211369302368,9.509609761581421Q9.812511269302368,9.519209761581422,9.858008269302369,9.53805976158142Q9.903505269302368,9.556909761581421,9.944451269302368,9.584259761581421Q9.985397269302368,9.611619761581421,10.020219269302368,9.64644976158142Q10.055041269302368,9.68126976158142,10.082401269302368,9.722209761581421Q10.109760269302368,9.76315976158142,10.128606269302368,9.80865976158142Q10.147451269302369,9.854149761581422,10.157059269302367,9.90244976158142Q10.166666269302368,9.95074976158142,10.166666269302368,9.999999761581421ZM10.166666269302368,5.999999761581421Q10.166666269302368,6.049245461581421,10.157059269302367,6.0975448615814205Q10.147451269302369,6.1458447615814205,10.128606269302368,6.191341761581421Q10.109760269302368,6.236838761581421,10.082401269302368,6.277784761581421Q10.055041269302368,6.3187307615814206,10.020219269302368,6.353552761581421Q9.985397269302368,6.388374761581421,9.944451269302368,6.415734761581421Q9.903505269302368,6.443093761581421,9.858008269302369,6.461939761581421Q9.812511269302368,6.480784761581421,9.764211369302368,6.490392761581421Q9.715911969302368,6.499999761581421,9.666666269302368,6.499999761581421Q9.617420569302368,6.499999761581421,9.569121169302369,6.490392761581421Q9.520821269302369,6.480784761581421,9.475324269302368,6.461939761581421Q9.429827269302368,6.443093761581421,9.388881269302368,6.415734761581421Q9.347935269302369,6.388374761581421,9.313113269302368,6.353552761581421Q9.278291269302368,6.3187307615814206,9.250931269302368,6.277784761581421Q9.223572269302368,6.236838761581421,9.204726269302368,6.191341761581421Q9.185881269302367,6.1458447615814205,9.176273269302369,6.0975448615814205Q9.166666269302368,6.049245461581421,9.166666269302368,5.999999761581421Q9.166666269302368,5.950754061581421,9.176273269302369,5.902454661581421Q9.185881269302367,5.854154761581421,9.204726269302368,5.808657761581421Q9.223572269302368,5.763160761581421,9.250931269302368,5.722214761581421Q9.278291269302368,5.681268761581421,9.313113269302368,5.646446761581421Q9.347935269302369,5.611624761581421,9.388881269302368,5.584264761581421Q9.429827269302368,5.556905761581421,9.475324269302368,5.538059761581421Q9.520821269302369,5.519214761581421,9.569121169302369,5.509606761581421Q9.617420569302368,5.499999761581421,9.666666269302368,5.499999761581421Q9.715911969302368,5.499999761581421,9.764211369302368,5.509606761581421Q9.812511269302368,5.519214761581421,9.858008269302369,5.538059761581421Q9.903505269302368,5.556905761581421,9.944451269302368,5.584264761581421Q9.985397269302368,5.611624761581421,10.020219269302368,5.646446761581421Q10.055041269302368,5.681268761581421,10.082401269302368,5.722214761581421Q10.109760269302368,5.763160761581421,10.128606269302368,5.808657761581421Q10.147451269302369,5.854154761581421,10.157059269302367,5.902454661581421Q10.166666269302368,5.950754061581421,10.166666269302368,5.999999761581421Z" fill="#FFFFFF" fill-opacity="1"/></g></g></g></svg>