<svg xmlns="http://www.w3.org/2000/svg" xmlns:xlink="http://www.w3.org/1999/xlink" fill="none" version="1.1" width="24" height="26" viewBox="0 0 24 26"><g><path d="M13.582,3.40601C13.4348,3.2896,13.4594,3.1508,13.6398,3.09855L15.5823,2.54632C15.7642,2.49409,15.9633,2.30009,16.024,2.1195L16.6821,0.147941C16.7427,-0.0341539,16.8783,-0.0505556,16.9808,0.112116L18.0921,1.84935C18.196,2.01055,18.4341,2.14636,18.6217,2.15232L20.6365,2.19262C20.8241,2.19262,20.8804,2.32099,20.7635,2.47322L19.5093,4.10298C19.3924,4.25522,19.3405,4.53133,19.3953,4.7164L19.9798,6.70885C20.0332,6.89541,19.9365,6.98946,19.7605,6.92377L17.8713,6.18948C17.6981,6.12232,17.4268,6.15665,17.2738,6.26709L15.6198,7.46107C15.4669,7.57001,15.3471,7.50286,15.3572,7.30733L15.4467,5.22833C15.4582,5.0343,15.3399,4.78058,15.1898,4.66267L13.582,3.40601ZM15.1393,9.85797C15.3962,9.64158,15.3471,9.40129,15.0224,9.32368L11.576,8.46551C11.257,8.38192,10.8991,8.05508,10.7793,7.74018L9.50786,4.31791C9.38951,3.99851,9.14991,3.97464,8.98108,4.26418L7.1251,7.39244C6.95336,7.68046,6.54205,7.93568,6.21301,7.95358L2.67422,8.14164C2.34375,8.16253,2.24991,8.38939,2.46351,8.64908L4.76545,11.437C4.9776,11.6982,5.08437,12.1788,4.9978,12.5101L4.08281,16.0503C3.99332,16.3816,4.17518,16.5428,4.47679,16.4144L7.75578,15.013C8.06029,14.8832,8.53799,14.928,8.80934,15.1115L11.7852,17.1069C12.0594,17.2935,12.2658,17.1681,12.2399,16.8264L11.9656,13.1713C11.9411,12.8355,12.1273,12.3788,12.3885,12.1624L15.1393,9.85797ZM2.54434,5.20299L3.63686,5.62684C3.73786,5.66564,3.79561,5.61042,3.76386,5.50294L3.42613,4.34779C3.39584,4.24034,3.42326,4.08064,3.4911,3.99259L4.21991,3.04634C4.28775,2.96129,4.25166,2.88664,4.14486,2.88367L2.97586,2.85981C2.86618,2.85981,2.72906,2.78069,2.66847,2.68665L2.0262,1.67924C1.96561,1.58522,1.88913,1.59418,1.85159,1.70163L1.46915,2.84338C1.43451,2.94933,1.31904,3.06127,1.21514,3.08963L0.0894488,3.41051C-0.0159266,3.44186,-0.030363,3.52095,0.057679,3.58961L0.990001,4.31943C1.07659,4.38659,1.14443,4.53585,1.14008,4.64777L1.08524,5.8537C1.08092,5.96862,1.1473,6.00594,1.23679,5.94325L2.19364,5.25075C2.28456,5.18356,2.43899,5.16267,2.54434,5.20299ZM23.5979,23.3843L21.1748,20.8785L13.5777,12.843C13.2761,13.14,13.0524,13.6638,13.0769,14.0713L13.2443,17.0756L21.4721,25.5842C21.9527,26.0797,22.67,26.1409,23.0755,25.7215L23.7307,25.044C24.1363,24.6216,24.0771,23.8799,23.5979,23.3843Z" fill-opacity="1"/></g></svg>