<svg xmlns="http://www.w3.org/2000/svg" xmlns:xlink="http://www.w3.org/1999/xlink" fill="none" version="1.1" width="24" height="24" viewBox="0 0 24 24"><g style="mix-blend-mode:passthrough"><g style="mix-blend-mode:passthrough" transform="matrix(0,-1,1,0,-24,24)"><rect x="0" y="24" width="24" height="24" rx="4" fill="#FFF9E5" fill-opacity="1"/></g><g style="mix-blend-mode:passthrough"><g style="mix-blend-mode:passthrough"></g></g><g><g><g><g><rect x="5" y="5" width="14.399999618530273" height="14.399999618530273" rx="2" fill-opacity="0" stroke-opacity="1" stroke="#FFCC00" fill="none" stroke-width="1.600000023841858"/></g><g><line x1="13.2001953125" y1="12.199951171875" x2="16.2001953125" y2="12.199951171875" fill-opacity="0" stroke-opacity="1" stroke="#FFCC00" fill="none" stroke-width="1" stroke-linecap="ROUND"/></g><g transform="matrix(-1,0,0,1,22.400390625,0)"><line x1="11.2001953125" y1="12.199951171875" x2="14.2001953125" y2="12.199951171875" fill-opacity="0" stroke-opacity="1" stroke="#FFCC00" fill="none" stroke-width="1" stroke-linecap="ROUND"/></g><g><path d="M14.8466423125,13.846401171875L16.8466453125,11.846401171875L17.2001953125,12.199951171875L16.8466453125,12.553501171875L14.8466423125,10.553504171875Q14.8118203125,10.518682171875,14.7844603125,10.477736171875Q14.7571013125,10.436790171875,14.7382553125,10.391293171875Q14.719410312499999,10.345796171875,14.7098023125,10.297496271875Q14.7001953125,10.249196871875,14.7001953125,10.199951171875Q14.7001953125,10.150705471875,14.7098023125,10.102406071875Q14.719410312499999,10.054106171875,14.7382553125,10.008609171875Q14.7571013125,9.963112171875,14.7844603125,9.922166171875Q14.8118203125,9.881220171875,14.8466423125,9.846398171875Q14.8814643125,9.811576171875,14.9224103125,9.784216171875Q14.9633563125,9.756857171875,15.0088533125,9.738011171875Q15.0543503125,9.719166171874999,15.1026502125,9.709558171875Q15.1509496125,9.699951171875,15.2001953125,9.699951171875Q15.2494410125,9.699951171875,15.2977404125,9.709558171875Q15.3460403125,9.719166171874999,15.3915373125,9.738011171875Q15.4370343125,9.756857171875,15.4779803125,9.784216171875Q15.5189263125,9.811576171875,15.5537483125,9.846398171875L17.5537453125,11.846401171875Q17.5885753125,11.881221171875,17.6159253125,11.922161171875Q17.6432853125,11.963111171875,17.6621353125,12.008611171875Q17.6809753125,12.054111171875,17.6905853125,12.102401171875Q17.7001953125,12.150701171875,17.7001953125,12.199951171875Q17.7001953125,12.249201171875,17.6905853125,12.297491171875Q17.6809753125,12.345791171875,17.6621353125,12.391291171875Q17.6432853125,12.436791171875,17.6159253125,12.477731171875Q17.5885753125,12.518681171875,17.5537453125,12.553501171875L15.5537483125,14.553501171875Q15.5189263125,14.588321171875,15.4779803125,14.615681171875Q15.4370343125,14.643041171875,15.3915373125,14.661891171875Q15.3460403125,14.680731171875,15.2977404125,14.690341171875Q15.2494410125,14.699951171875,15.2001953125,14.699951171875Q15.1509496125,14.699951171875,15.1026502125,14.690341171875Q15.0543503125,14.680731171875,15.0088533125,14.661891171875Q14.9633563125,14.643041171875,14.9224103125,14.615681171875Q14.8814643125,14.588321171875,14.8466423125,14.553501171875Q14.8118203125,14.518681171875,14.7844603125,14.477731171875Q14.7571013125,14.436791171875,14.7382553125,14.391291171875Q14.719410312499999,14.345791171875,14.7098023125,14.297491171875Q14.7001953125,14.249191171875001,14.7001953125,14.199951171875Q14.7001953125,14.150701171875,14.7098023125,14.102401171875Q14.719410312499999,14.054101171875,14.7382553125,14.008611171875Q14.7571013125,13.963111171875,14.7844603125,13.922161171875Q14.8118203125,13.881221171875,14.8466423125,13.846401171875ZM15.7001953125,14.199951171875Q15.7001953125,14.249201171875,15.6905883125,14.297501171875Q15.680980312500001,14.345791171875,15.6621353125,14.391291171875Q15.6432893125,14.436791171875,15.6159303125,14.477731171875Q15.5885703125,14.518681171875,15.5537483125,14.553501171875Q15.5189263125,14.588321171875,15.4779803125,14.615681171875Q15.4370343125,14.643041171875,15.3915373125,14.661891171875Q15.3460403125,14.680731171875,15.2977404125,14.690341171875Q15.2494410125,14.699951171875,15.2001953125,14.699951171875Q15.1509496125,14.699951171875,15.1026502125,14.690341171875Q15.0543503125,14.680731171875,15.0088533125,14.661891171875Q14.9633563125,14.643041171875,14.9224103125,14.615681171875Q14.8814643125,14.588321171875,14.8466423125,14.553501171875Q14.8118203125,14.518681171875,14.7844603125,14.477731171875Q14.7571013125,14.436791171875,14.7382553125,14.391291171875Q14.719410312499999,14.345791171875,14.7098023125,14.297501171875Q14.7001953125,14.249201171875,14.7001953125,14.199951171875Q14.7001953125,14.150701171875,14.7098023125,14.102401171875Q14.719410312499999,14.054101171875,14.7382553125,14.008611171875Q14.7571013125,13.963111171875,14.7844603125,13.922161171875Q14.8118203125,13.881221171875,14.8466423125,13.846401171875Q14.8814643125,13.811571171875,14.9224103125,13.784211171875Q14.9633563125,13.756861171875,15.0088533125,13.738011171875Q15.0543503125,13.719161171875001,15.1026502125,13.709561171875Q15.1509496125,13.699951171875,15.2001953125,13.699951171875Q15.2494410125,13.699951171875,15.2977404125,13.709561171875Q15.3460403125,13.719161171875001,15.3915373125,13.738011171875Q15.4370343125,13.756861171875,15.4779803125,13.784211171875Q15.5189263125,13.811571171875,15.5537483125,13.846401171875Q15.5885703125,13.881221171875,15.6159303125,13.922161171875Q15.6432893125,13.963111171875,15.6621353125,14.008611171875Q15.680980312500001,14.054101171875,15.6905883125,14.102401171875Q15.7001953125,14.150701171875,15.7001953125,14.199951171875ZM15.7001953125,10.199951171875Q15.7001953125,10.249196871875,15.6905883125,10.297496271875Q15.680980312500001,10.345796171875,15.6621353125,10.391293171875Q15.6432893125,10.436790171875,15.6159303125,10.477736171875Q15.5885703125,10.518682171875,15.5537483125,10.553504171875Q15.5189263125,10.588326171875,15.4779803125,10.615686171875Q15.4370343125,10.643045171875,15.3915373125,10.661891171875Q15.3460403125,10.680736171875001,15.2977404125,10.690344171875Q15.2494410125,10.699951171875,15.2001953125,10.699951171875Q15.1509496125,10.699951171875,15.1026502125,10.690344171875Q15.0543503125,10.680736171875001,15.0088533125,10.661891171875Q14.9633563125,10.643045171875,14.9224103125,10.615686171875Q14.8814643125,10.588326171875,14.8466423125,10.553504171875Q14.8118203125,10.518682171875,14.7844603125,10.477736171875Q14.7571013125,10.436790171875,14.7382553125,10.391293171875Q14.719410312499999,10.345796171875,14.7098023125,10.297496271875Q14.7001953125,10.249196871875,14.7001953125,10.199951171875Q14.7001953125,10.150705471875,14.7098023125,10.102406071875Q14.719410312499999,10.054106171875,14.7382553125,10.008609171875Q14.7571013125,9.963112171875,14.7844603125,9.922166171875Q14.8118203125,9.881220171875,14.8466423125,9.846398171875Q14.8814643125,9.811576171875,14.9224103125,9.784216171875Q14.9633563125,9.756857171875,15.0088533125,9.738011171875Q15.0543503125,9.719166171874999,15.1026502125,9.709558171875Q15.1509496125,9.699951171875,15.2001953125,9.699951171875Q15.2494410125,9.699951171875,15.2977404125,9.709558171875Q15.3460403125,9.719166171874999,15.3915373125,9.738011171875Q15.4370343125,9.756857171875,15.4779803125,9.784216171875Q15.5189263125,9.811576171875,15.5537483125,9.846398171875Q15.5885703125,9.881220171875,15.6159303125,9.922166171875Q15.6432893125,9.963112171875,15.6621353125,10.008609171875Q15.680980312500001,10.054106171875,15.6905883125,10.102406071875Q15.7001953125,10.150705471875,15.7001953125,10.199951171875Z" fill="#FFCC00" fill-opacity="1"/></g><g transform="matrix(-1,0,0,1,18.400390625,0)"><path d="M8.8466423125,13.846401171875L10.8466453125,11.846401171875L11.2001953125,12.199951171875L10.8466453125,12.553501171875L8.8466423125,10.553504171875Q8.8118203125,10.518682171875,8.7844603125,10.477736171875Q8.7571013125,10.436790171875,8.7382553125,10.391293171875Q8.719410312499999,10.345796171875,8.7098023125,10.297496271875Q8.7001953125,10.249196871875,8.7001953125,10.199951171875Q8.7001953125,10.150705471875,8.7098023125,10.102406071875Q8.719410312499999,10.054106171875,8.7382553125,10.008609171875Q8.7571013125,9.963112171875,8.7844603125,9.922166171875Q8.8118203125,9.881220171875,8.8466423125,9.846398171875Q8.8814643125,9.811576171875,8.9224103125,9.784216171875Q8.9633563125,9.756857171875,9.0088533125,9.738011171875Q9.0543503125,9.719166171874999,9.1026502125,9.709558171875Q9.1509496125,9.699951171875,9.2001953125,9.699951171875Q9.2494410125,9.699951171875,9.2977404125,9.709558171875Q9.3460403125,9.719166171874999,9.3915373125,9.738011171875Q9.4370343125,9.756857171875,9.4779803125,9.784216171875Q9.5189263125,9.811576171875,9.5537483125,9.846398171875L11.5537453125,11.846401171875Q11.5885753125,11.881221171875,11.6159253125,11.922161171875Q11.6432853125,11.963111171875,11.6621353125,12.008611171875Q11.6809753125,12.054111171875,11.6905853125,12.102401171875Q11.7001953125,12.150701171875,11.7001953125,12.199951171875Q11.7001953125,12.249201171875,11.6905853125,12.297491171875Q11.6809753125,12.345791171875,11.6621353125,12.391291171875Q11.6432853125,12.436791171875,11.6159253125,12.477731171875Q11.5885753125,12.518681171875,11.5537453125,12.553501171875L9.5537483125,14.553501171875Q9.5189263125,14.588321171875,9.4779803125,14.615681171875Q9.4370343125,14.643041171875,9.3915373125,14.661891171875Q9.3460403125,14.680731171875,9.2977404125,14.690341171875Q9.2494410125,14.699951171875,9.2001953125,14.699951171875Q9.1509496125,14.699951171875,9.1026502125,14.690341171875Q9.0543503125,14.680731171875,9.0088533125,14.661891171875Q8.9633563125,14.643041171875,8.9224103125,14.615681171875Q8.8814643125,14.588321171875,8.8466423125,14.553501171875Q8.8118203125,14.518681171875,8.7844603125,14.477731171875Q8.7571013125,14.436791171875,8.7382553125,14.391291171875Q8.719410312499999,14.345791171875,8.7098023125,14.297491171875Q8.7001953125,14.249191171875001,8.7001953125,14.199951171875Q8.7001953125,14.150701171875,8.7098023125,14.102401171875Q8.719410312499999,14.054101171875,8.7382553125,14.008611171875Q8.7571013125,13.963111171875,8.7844603125,13.922161171875Q8.8118203125,13.881221171875,8.8466423125,13.846401171875ZM9.7001953125,14.199951171875Q9.7001953125,14.249201171875,9.6905883125,14.297501171875Q9.680980312500001,14.345791171875,9.6621353125,14.391291171875Q9.6432893125,14.436791171875,9.6159303125,14.477731171875Q9.5885703125,14.518681171875,9.5537483125,14.553501171875Q9.5189263125,14.588321171875,9.4779803125,14.615681171875Q9.4370343125,14.643041171875,9.3915373125,14.661891171875Q9.3460403125,14.680731171875,9.2977404125,14.690341171875Q9.2494410125,14.699951171875,9.2001953125,14.699951171875Q9.1509496125,14.699951171875,9.1026502125,14.690341171875Q9.0543503125,14.680731171875,9.0088533125,14.661891171875Q8.9633563125,14.643041171875,8.9224103125,14.615681171875Q8.8814643125,14.588321171875,8.8466423125,14.553501171875Q8.8118203125,14.518681171875,8.7844603125,14.477731171875Q8.7571013125,14.436791171875,8.7382553125,14.391291171875Q8.719410312499999,14.345791171875,8.7098023125,14.297501171875Q8.7001953125,14.249201171875,8.7001953125,14.199951171875Q8.7001953125,14.150701171875,8.7098023125,14.102401171875Q8.719410312499999,14.054101171875,8.7382553125,14.008611171875Q8.7571013125,13.963111171875,8.7844603125,13.922161171875Q8.8118203125,13.881221171875,8.8466423125,13.846401171875Q8.8814643125,13.811571171875,8.9224103125,13.784211171875Q8.9633563125,13.756861171875,9.0088533125,13.738011171875Q9.0543503125,13.719161171875001,9.1026502125,13.709561171875Q9.1509496125,13.699951171875,9.2001953125,13.699951171875Q9.2494410125,13.699951171875,9.2977404125,13.709561171875Q9.3460403125,13.719161171875001,9.3915373125,13.738011171875Q9.4370343125,13.756861171875,9.4779803125,13.784211171875Q9.5189263125,13.811571171875,9.5537483125,13.846401171875Q9.5885703125,13.881221171875,9.6159303125,13.922161171875Q9.6432893125,13.963111171875,9.6621353125,14.008611171875Q9.680980312500001,14.054101171875,9.6905883125,14.102401171875Q9.7001953125,14.150701171875,9.7001953125,14.199951171875ZM9.7001953125,10.199951171875Q9.7001953125,10.249196871875,9.6905883125,10.297496271875Q9.680980312500001,10.345796171875,9.6621353125,10.391293171875Q9.6432893125,10.436790171875,9.6159303125,10.477736171875Q9.5885703125,10.518682171875,9.5537483125,10.553504171875Q9.5189263125,10.588326171875,9.4779803125,10.615686171875Q9.4370343125,10.643045171875,9.3915373125,10.661891171875Q9.3460403125,10.680736171875001,9.2977404125,10.690344171875Q9.2494410125,10.699951171875,9.2001953125,10.699951171875Q9.1509496125,10.699951171875,9.1026502125,10.690344171875Q9.0543503125,10.680736171875001,9.0088533125,10.661891171875Q8.9633563125,10.643045171875,8.9224103125,10.615686171875Q8.8814643125,10.588326171875,8.8466423125,10.553504171875Q8.8118203125,10.518682171875,8.7844603125,10.477736171875Q8.7571013125,10.436790171875,8.7382553125,10.391293171875Q8.719410312499999,10.345796171875,8.7098023125,10.297496271875Q8.7001953125,10.249196871875,8.7001953125,10.199951171875Q8.7001953125,10.150705471875,8.7098023125,10.102406071875Q8.719410312499999,10.054106171875,8.7382553125,10.008609171875Q8.7571013125,9.963112171875,8.7844603125,9.922166171875Q8.8118203125,9.881220171875,8.8466423125,9.846398171875Q8.8814643125,9.811576171875,8.9224103125,9.784216171875Q8.9633563125,9.756857171875,9.0088533125,9.738011171875Q9.0543503125,9.719166171874999,9.1026502125,9.709558171875Q9.1509496125,9.699951171875,9.2001953125,9.699951171875Q9.2494410125,9.699951171875,9.2977404125,9.709558171875Q9.3460403125,9.719166171874999,9.3915373125,9.738011171875Q9.4370343125,9.756857171875,9.4779803125,9.784216171875Q9.5189263125,9.811576171875,9.5537483125,9.846398171875Q9.5885703125,9.881220171875,9.6159303125,9.922166171875Q9.6432893125,9.963112171875,9.6621353125,10.008609171875Q9.680980312500001,10.054106171875,9.6905883125,10.102406071875Q9.7001953125,10.150705471875,9.7001953125,10.199951171875Z" fill="#FFCC00" fill-opacity="1"/></g></g></g></g></g></svg>